<?xml version="1.0" encoding="ISO-8859-1" standalone="no"?>
<!DOCTYPE svg PUBLIC "-//W3C//DTD SVG 1.1//EN" "http://www.w3.org/Graphics/SVG/1.1/DTD/svg11.dtd">
<svg version="1.1" baseProfile="full" id="body" width="8in" height="8in" viewBox="0 0 1 1" preserveAspectRatio="none" xmlns="http://www.w3.org/2000/svg" xmlns:xlink="http://www.w3.org/1999/xlink" xmlns:ev="http://www.w3.org/2001/xml-events">
<title>SVG drawing</title>
<desc>This was produced by version 4.4 of GNU libplot, a free library for exporting 2-D vector graphics.</desc>
<rect id="background" x="0" y="0" width="1" height="1" stroke="none" fill="white"/>
<g id="content" transform="translate(0.23438,0.084375) scale(1,-1) scale(0.125) " xml:space="preserve" stroke="black" stroke-linecap="butt" stroke-linejoin="miter" stroke-miterlimit="10.433" stroke-dasharray="none" stroke-dashoffset="0" stroke-opacity="1" fill="none" fill-rule="evenodd" fill-opacity="1" font-style="normal" font-variant="normal" font-weight="normal" font-stretch="normal" font-size-adjust="none" letter-spacing="normal" word-spacing="normal" text-anchor="start">
<rect x="-0.375" y="-0.8" width="0.75" height="0.3" stroke-width="0.0094118" />
<text transform="translate(-0.20833,-0.69903) scale(1,-1) scale(0.0069444) " font-family="Helvetica,sans-serif" font-size="20px" stroke="none" fill="black" >worker</text>
<line x1="-0.275" y1="-0.72" x2="0.275" y2="-0.72" stroke-width="0.0094118" />
<rect x="3.375" y="-0.8" width="0.75" height="0.3" stroke-width="0.0094118" />
<text transform="translate(3.4335,-0.69903) scale(1,-1) scale(0.0069444) " font-family="Helvetica,sans-serif" font-size="20px" stroke="none" fill="black" >rtcpd child</text>
<line x1="3.475" y1="-0.72" x2="4.025" y2="-0.72" stroke-width="0.0094118" />
<line x1="3.75" y1="-0.8" x2="3.75" y2="-0.9" stroke-width="0.0094118" stroke-dasharray="0.05, 0.05"/>
<line x1="3.7" y1="-0.9" x2="3.8" y2="-0.9" stroke-width="0.0094118" />
<line x1="0" y1="-0.8" x2="0" y2="-0.9" stroke-width="0.0094118" stroke-dasharray="0.05, 0.05"/>
<line x1="-0.05" y1="-0.9" x2="0.05" y2="-0.9" stroke-width="0.0094118" />
<line x1="3.69" y1="-1.15" x2="0.06" y2="-1.15" stroke-width="0.0094118" />
<polygon points="0.16,-1.175 0.06,-1.15 0.16,-1.125 " stroke-width="0.0094118" fill="black" />
<text transform="translate(1.3,-1.1157) scale(1,-1) scale(0.0069444) " font-family="Helvetica,sans-serif" font-size="20px" stroke="none" fill="black" >request more work</text>
<text transform="translate(1.8557,-1.2824) scale(1,-1) scale(0.0069444) " font-family="Helvetica,sans-serif" font-size="20px" stroke="none" fill="black" > </text>
<line x1="0.06" y1="-1.65" x2="3.69" y2="-1.65" stroke-width="0.0094118" />
<polygon points="3.59,-1.625 3.69,-1.65 3.59,-1.675 " stroke-width="0.0094118" fill="black" />
<text transform="translate(1.4119,-1.6157) scale(1,-1) scale(0.0069444) " font-family="Helvetica,sans-serif" font-size="20px" stroke="none" fill="black" >end of work list</text>
<text transform="translate(1.8557,-1.7824) scale(1,-1) scale(0.0069444) " font-family="Helvetica,sans-serif" font-size="20px" stroke="none" fill="black" > </text>
<line x1="3.69" y1="-1.9" x2="0.06" y2="-1.9" stroke-width="0.0094118" />
<polygon points="0.16,-1.925 0.06,-1.9 0.16,-1.875 " stroke-width="0.0094118" fill="black" />
<text transform="translate(1.7669,-1.8657) scale(1,-1) scale(0.0069444) " font-family="Helvetica,sans-serif" font-size="20px" stroke="none" fill="black" >ack</text>
<text transform="translate(1.8557,-2.0324) scale(1,-1) scale(0.0069444) " font-family="Helvetica,sans-serif" font-size="20px" stroke="none" fill="black" > </text>
<line x1="0.06" y1="-2.4" x2="3.69" y2="-2.4" stroke-width="0.0094118" />
<polygon points="3.59,-2.375 3.69,-2.4 3.59,-2.425 " stroke-width="0.0094118" fill="black" />
<text transform="translate(0.99507,-2.3657) scale(1,-1) scale(0.0069444) " font-family="Helvetica,sans-serif" font-size="20px" stroke="none" fill="black" >ack of request for more work</text>
<text transform="translate(1.8557,-2.5324) scale(1,-1) scale(0.0069444) " font-family="Helvetica,sans-serif" font-size="20px" stroke="none" fill="black" > </text>
<line x1="3.69" y1="-2.9" x2="0.06" y2="-2.9" stroke-width="0.0094118" />
<polygon points="0.16,-2.925 0.06,-2.9 0.16,-2.875 " stroke-width="0.0094118" fill="black" />
<text transform="translate(0.72083,-2.8657) scale(1,-1) scale(0.0069444) " font-family="Helvetica,sans-serif" font-size="20px" stroke="none" fill="black" >end of session for disk/tape IO thread</text>
<text transform="translate(1.8557,-3.0324) scale(1,-1) scale(0.0069444) " font-family="Helvetica,sans-serif" font-size="20px" stroke="none" fill="black" > </text>
<line x1="0.06" y1="-3.15" x2="3.69" y2="-3.15" stroke-width="0.0094118" />
<polygon points="3.59,-3.125 3.69,-3.15 3.59,-3.175 " stroke-width="0.0094118" fill="black" />
<text transform="translate(1.7669,-3.1157) scale(1,-1) scale(0.0069444) " font-family="Helvetica,sans-serif" font-size="20px" stroke="none" fill="black" >ack</text>
<text transform="translate(1.8557,-3.2824) scale(1,-1) scale(0.0069444) " font-family="Helvetica,sans-serif" font-size="20px" stroke="none" fill="black" > </text>
<line x1="3.69" y1="-3.4" x2="0.06" y2="-3.4" stroke-width="0.0094118" />
<polygon points="0.16,-3.425 0.06,-3.4 0.16,-3.375 " stroke-width="0.0094118" fill="black" />
<text transform="translate(0.72083,-3.3657) scale(1,-1) scale(0.0069444) " font-family="Helvetica,sans-serif" font-size="20px" stroke="none" fill="black" >end of session for disk/tape IO thread</text>
<text transform="translate(1.8557,-3.5324) scale(1,-1) scale(0.0069444) " font-family="Helvetica,sans-serif" font-size="20px" stroke="none" fill="black" > </text>
<line x1="0.06" y1="-3.65" x2="3.69" y2="-3.65" stroke-width="0.0094118" />
<polygon points="3.59,-3.625 3.69,-3.65 3.59,-3.675 " stroke-width="0.0094118" fill="black" />
<text transform="translate(1.7669,-3.6157) scale(1,-1) scale(0.0069444) " font-family="Helvetica,sans-serif" font-size="20px" stroke="none" fill="black" >ack</text>
<text transform="translate(1.8557,-3.7824) scale(1,-1) scale(0.0069444) " font-family="Helvetica,sans-serif" font-size="20px" stroke="none" fill="black" > </text>
<line x1="3.69" y1="-3.9" x2="0.06" y2="-3.9" stroke-width="0.0094118" />
<polygon points="0.16,-3.925 0.06,-3.9 0.16,-3.875 " stroke-width="0.0094118" fill="black" />
<text transform="translate(0.72083,-3.8657) scale(1,-1) scale(0.0069444) " font-family="Helvetica,sans-serif" font-size="20px" stroke="none" fill="black" >end of session for disk/tape IO thread</text>
<text transform="translate(1.8557,-4.0324) scale(1,-1) scale(0.0069444) " font-family="Helvetica,sans-serif" font-size="20px" stroke="none" fill="black" > </text>
<line x1="0.06" y1="-4.15" x2="3.69" y2="-4.15" stroke-width="0.0094118" />
<polygon points="3.59,-4.125 3.69,-4.15 3.59,-4.175 " stroke-width="0.0094118" fill="black" />
<text transform="translate(1.7669,-4.1157) scale(1,-1) scale(0.0069444) " font-family="Helvetica,sans-serif" font-size="20px" stroke="none" fill="black" >ack</text>
<text transform="translate(1.8557,-4.2824) scale(1,-1) scale(0.0069444) " font-family="Helvetica,sans-serif" font-size="20px" stroke="none" fill="black" > </text>
<line x1="0.06" y1="-4.65" x2="3.69" y2="-4.65" stroke-width="0.0094118" />
<polygon points="3.59,-4.625 3.69,-4.65 3.59,-4.675 " stroke-width="0.0094118" fill="black" />
<text transform="translate(1.2342,-4.6157) scale(1,-1) scale(0.0069444) " font-family="Helvetica,sans-serif" font-size="20px" stroke="none" fill="black" >end of entire session</text>
<text transform="translate(1.8557,-4.7824) scale(1,-1) scale(0.0069444) " font-family="Helvetica,sans-serif" font-size="20px" stroke="none" fill="black" > </text>
<line x1="3.69" y1="-4.9" x2="0.06" y2="-4.9" stroke-width="0.0094118" />
<polygon points="0.16,-4.925 0.06,-4.9 0.16,-4.875 " stroke-width="0.0094118" fill="black" />
<text transform="translate(1.7669,-4.8657) scale(1,-1) scale(0.0069444) " font-family="Helvetica,sans-serif" font-size="20px" stroke="none" fill="black" >ack</text>
<text transform="translate(1.8557,-5.0324) scale(1,-1) scale(0.0069444) " font-family="Helvetica,sans-serif" font-size="20px" stroke="none" fill="black" > </text>
<line x1="0.06" y1="-5.4" x2="3.69" y2="-5.4" stroke-width="0.0094118" />
<polygon points="3.59,-5.375 3.69,-5.4 3.59,-5.425 " stroke-width="0.0094118" fill="black" />
<text transform="translate(0.68243,-5.3657) scale(1,-1) scale(0.0069444) " font-family="Helvetica,sans-serif" font-size="20px" stroke="none" fill="black" >close initial connection made to worker</text>
<text transform="translate(1.8557,-5.5324) scale(1,-1) scale(0.0069444) " font-family="Helvetica,sans-serif" font-size="20px" stroke="none" fill="black" > </text>
<line x1="0.06" y1="-5.65" x2="3.69" y2="-5.65" stroke-width="0.0094118" />
<polygon points="3.59,-5.625 3.69,-5.65 3.59,-5.675 " stroke-width="0.0094118" fill="black" />
<text transform="translate(0.50278,-5.6157) scale(1,-1) scale(0.0069444) " font-family="Helvetica,sans-serif" font-size="20px" stroke="none" fill="black" >close disk/tape IO thread control-connection</text>
<text transform="translate(1.8557,-5.7824) scale(1,-1) scale(0.0069444) " font-family="Helvetica,sans-serif" font-size="20px" stroke="none" fill="black" > </text>
<line x1="0.06" y1="-5.9" x2="3.69" y2="-5.9" stroke-width="0.0094118" />
<polygon points="3.59,-5.875 3.69,-5.9 3.59,-5.925 " stroke-width="0.0094118" fill="black" />
<text transform="translate(0.50278,-5.8657) scale(1,-1) scale(0.0069444) " font-family="Helvetica,sans-serif" font-size="20px" stroke="none" fill="black" >close disk/tape IO thread control-connection</text>
<text transform="translate(1.8557,-6.0324) scale(1,-1) scale(0.0069444) " font-family="Helvetica,sans-serif" font-size="20px" stroke="none" fill="black" > </text>
<line x1="0.06" y1="-6.15" x2="3.69" y2="-6.15" stroke-width="0.0094118" />
<polygon points="3.59,-6.125 3.69,-6.15 3.59,-6.175 " stroke-width="0.0094118" fill="black" />
<text transform="translate(0.50278,-6.1157) scale(1,-1) scale(0.0069444) " font-family="Helvetica,sans-serif" font-size="20px" stroke="none" fill="black" >close disk/tape IO thread control-connection</text>
<text transform="translate(1.8557,-6.2824) scale(1,-1) scale(0.0069444) " font-family="Helvetica,sans-serif" font-size="20px" stroke="none" fill="black" > </text>
<line x1="-0.05" y1="-0.9" x2="-0.05" y2="-6.4" stroke-width="0.0094118" />
<line x1="0.05" y1="-0.9" x2="0.05" y2="-6.4" stroke-width="0.0094118" />
<line x1="-0.05" y1="-6.4" x2="0.05" y2="-6.4" stroke-width="0.0094118" />
<line x1="3.7" y1="-0.9" x2="3.7" y2="-6.4" stroke-width="0.0094118" />
<line x1="3.8" y1="-0.9" x2="3.8" y2="-6.4" stroke-width="0.0094118" />
<line x1="3.7" y1="-6.4" x2="3.8" y2="-6.4" stroke-width="0.0094118" />
<line x1="3.75" y1="-6.4" x2="3.75" y2="-6.65" stroke-width="0.0094118" stroke-dasharray="0.05, 0.05"/>
<line x1="0" y1="-6.4" x2="0" y2="-6.65" stroke-width="0.0094118" stroke-dasharray="0.05, 0.05"/>
</g>
</svg>
