<?xml version="1.0" encoding="ISO-8859-1" standalone="no"?>
<!DOCTYPE svg PUBLIC "-//W3C//DTD SVG 1.1//EN" "http://www.w3.org/Graphics/SVG/1.1/DTD/svg11.dtd">
<svg version="1.1" baseProfile="full" id="body" width="8in" height="8in" viewBox="0 0 1 1" preserveAspectRatio="none" xmlns="http://www.w3.org/2000/svg" xmlns:xlink="http://www.w3.org/1999/xlink" xmlns:ev="http://www.w3.org/2001/xml-events">
<title>SVG drawing</title>
<desc>This was produced by version 4.4 of GNU libplot, a free library for exporting 2-D vector graphics.</desc>
<rect id="background" x="0" y="0" width="1" height="1" stroke="none" fill="white"/>
<g id="content" transform="translate(0.3125,0.053125) scale(1,-1) scale(0.125) " xml:space="preserve" stroke="black" stroke-linecap="butt" stroke-linejoin="miter" stroke-miterlimit="10.433" stroke-dasharray="none" stroke-dashoffset="0" stroke-opacity="1" fill="none" fill-rule="evenodd" fill-opacity="1" font-style="normal" font-variant="normal" font-weight="normal" font-stretch="normal" font-size-adjust="none" letter-spacing="normal" word-spacing="normal" text-anchor="start">
<rect x="-0.375" y="-0.8" width="0.75" height="0.3" stroke-width="0.0094118" />
<text transform="translate(-0.25861,-0.69903) scale(1,-1) scale(0.0069444) " font-family="Helvetica,sans-serif" font-size="20px" stroke="none" fill="black" >gateway</text>
<line x1="-0.275" y1="-0.72" x2="0.275" y2="-0.72" stroke-width="0.0094118" />
<rect x="2.125" y="-0.8" width="0.75" height="0.3" stroke-width="0.0094118" />
<text transform="translate(2.307,-0.69903) scale(1,-1) scale(0.0069444) " font-family="Helvetica,sans-serif" font-size="20px" stroke="none" fill="black" >bridge</text>
<line x1="2.225" y1="-0.72" x2="2.775" y2="-0.72" stroke-width="0.0094118" />
<line x1="2.5" y1="-0.8" x2="2.5" y2="-0.9" stroke-width="0.0094118" stroke-dasharray="0.05, 0.05"/>
<line x1="2.45" y1="-0.9" x2="2.55" y2="-0.9" stroke-width="0.0094118" />
<line x1="2.44" y1="-1.15" x2="0.06" y2="-1.15" stroke-width="0.0094118" />
<polygon points="0.16,-1.175 0.06,-1.15 0.16,-1.125 " stroke-width="0.0094118" fill="black" />
<text transform="translate(1.0068,-1.1157) scale(1,-1) scale(0.0069444) " font-family="Helvetica,sans-serif" font-size="20px" stroke="none" fill="black" >connect</text>
<text transform="translate(1.2307,-1.2824) scale(1,-1) scale(0.0069444) " font-family="Helvetica,sans-serif" font-size="20px" stroke="none" fill="black" > </text>
<line x1="0" y1="-0.8" x2="0" y2="-1.15" stroke-width="0.0094118" stroke-dasharray="0.05, 0.05"/>
<line x1="-0.05" y1="-1.15" x2="0.05" y2="-1.15" stroke-width="0.0094118" />
<line x1="2.44" y1="-1.4" x2="0.06" y2="-1.4" stroke-width="0.0094118" />
<polygon points="0.16,-1.425 0.06,-1.4 0.16,-1.375 " stroke-width="0.0094118" fill="black" />
<text transform="translate(0.75597,-1.3657) scale(1,-1) scale(0.0069444) " font-family="Helvetica,sans-serif" font-size="20px" stroke="none" fill="black" >VolumeRequest</text>
<text transform="translate(1.2307,-1.5324) scale(1,-1) scale(0.0069444) " font-family="Helvetica,sans-serif" font-size="20px" stroke="none" fill="black" > </text>
<line x1="0.06" y1="-1.65" x2="2.44" y2="-1.65" stroke-width="0.0094118" />
<polygon points="2.34,-1.625 2.44,-1.65 2.34,-1.675 " stroke-width="0.0094118" fill="black" />
<text transform="translate(1.0146,-1.6157) scale(1,-1) scale(0.0069444) " font-family="Helvetica,sans-serif" font-size="20px" stroke="none" fill="black" >Volume</text>
<text transform="translate(1.2307,-1.7824) scale(1,-1) scale(0.0069444) " font-family="Helvetica,sans-serif" font-size="20px" stroke="none" fill="black" > </text>
<line x1="2.44" y1="-1.9" x2="0.06" y2="-1.9" stroke-width="0.0094118" />
<polygon points="0.16,-1.925 0.06,-1.9 0.16,-1.875 " stroke-width="0.0094118" fill="black" />
<text transform="translate(0.91806,-1.8657) scale(1,-1) scale(0.0069444) " font-family="Helvetica,sans-serif" font-size="20px" stroke="none" fill="black" >disconnect</text>
<text transform="translate(1.2307,-2.0324) scale(1,-1) scale(0.0069444) " font-family="Helvetica,sans-serif" font-size="20px" stroke="none" fill="black" > </text>
<line x1="-0.05" y1="-1.15" x2="-0.05" y2="-1.9" stroke-width="0.0094118" />
<line x1="0.05" y1="-1.15" x2="0.05" y2="-1.9" stroke-width="0.0094118" />
<line x1="-0.05" y1="-1.9" x2="0.05" y2="-1.9" stroke-width="0.0094118" />
<line x1="2.44" y1="-2.4" x2="0.06" y2="-2.4" stroke-width="0.0094118" />
<polygon points="0.16,-2.425 0.06,-2.4 0.16,-2.375 " stroke-width="0.0094118" fill="black" />
<text transform="translate(1.0068,-2.3657) scale(1,-1) scale(0.0069444) " font-family="Helvetica,sans-serif" font-size="20px" stroke="none" fill="black" >connect</text>
<text transform="translate(1.2307,-2.5324) scale(1,-1) scale(0.0069444) " font-family="Helvetica,sans-serif" font-size="20px" stroke="none" fill="black" > </text>
<line x1="0" y1="-1.9" x2="0" y2="-2.4" stroke-width="0.0094118" stroke-dasharray="0.05, 0.05"/>
<line x1="-0.05" y1="-2.4" x2="0.05" y2="-2.4" stroke-width="0.0094118" />
<line x1="2.44" y1="-2.65" x2="0.06" y2="-2.65" stroke-width="0.0094118" />
<polygon points="0.16,-2.675 0.06,-2.65 0.16,-2.625 " stroke-width="0.0094118" fill="black" />
<text transform="translate(0.19389,-2.6157) scale(1,-1) scale(0.0069444) " font-family="Helvetica,sans-serif" font-size="20px" stroke="none" fill="black" >FileTo ( Migrate | Recall ) Request</text>
<text transform="translate(1.2307,-2.7824) scale(1,-1) scale(0.0069444) " font-family="Helvetica,sans-serif" font-size="20px" stroke="none" fill="black" > </text>
<line x1="0.06" y1="-2.9" x2="2.44" y2="-2.9" stroke-width="0.0094118" />
<polygon points="2.34,-2.875 2.44,-2.9 2.34,-2.925 " stroke-width="0.0094118" fill="black" />
<text transform="translate(0.47181,-2.8657) scale(1,-1) scale(0.0069444) " font-family="Helvetica,sans-serif" font-size="20px" stroke="none" fill="black" >FileTo ( Migrate | Recall )</text>
<text transform="translate(1.2307,-3.0324) scale(1,-1) scale(0.0069444) " font-family="Helvetica,sans-serif" font-size="20px" stroke="none" fill="black" > </text>
<line x1="2.44" y1="-3.15" x2="0.06" y2="-3.15" stroke-width="0.0094118" />
<polygon points="0.16,-3.175 0.06,-3.15 0.16,-3.125 " stroke-width="0.0094118" fill="black" />
<text transform="translate(0.91806,-3.1157) scale(1,-1) scale(0.0069444) " font-family="Helvetica,sans-serif" font-size="20px" stroke="none" fill="black" >disconnect</text>
<text transform="translate(1.2307,-3.2824) scale(1,-1) scale(0.0069444) " font-family="Helvetica,sans-serif" font-size="20px" stroke="none" fill="black" > </text>
<line x1="-0.05" y1="-2.4" x2="-0.05" y2="-3.15" stroke-width="0.0094118" />
<line x1="0.05" y1="-2.4" x2="0.05" y2="-3.15" stroke-width="0.0094118" />
<line x1="-0.05" y1="-3.15" x2="0.05" y2="-3.15" stroke-width="0.0094118" />
<line x1="2.44" y1="-3.65" x2="0.06" y2="-3.65" stroke-width="0.0094118" />
<polygon points="0.16,-3.675 0.06,-3.65 0.16,-3.625 " stroke-width="0.0094118" fill="black" />
<text transform="translate(1.0068,-3.6157) scale(1,-1) scale(0.0069444) " font-family="Helvetica,sans-serif" font-size="20px" stroke="none" fill="black" >connect</text>
<text transform="translate(1.2307,-3.7824) scale(1,-1) scale(0.0069444) " font-family="Helvetica,sans-serif" font-size="20px" stroke="none" fill="black" > </text>
<line x1="0" y1="-3.15" x2="0" y2="-3.65" stroke-width="0.0094118" stroke-dasharray="0.05, 0.05"/>
<line x1="-0.05" y1="-3.65" x2="0.05" y2="-3.65" stroke-width="0.0094118" />
<line x1="2.44" y1="-3.9" x2="0.06" y2="-3.9" stroke-width="0.0094118" />
<polygon points="0.16,-3.925 0.06,-3.9 0.16,-3.875 " stroke-width="0.0094118" fill="black" />
<text transform="translate(0.074236,-3.8657) scale(1,-1) scale(0.0069444) " font-family="Helvetica,sans-serif" font-size="20px" stroke="none" fill="black" >File ( Migrated | Recalled ) Notification</text>
<text transform="translate(1.2307,-4.0324) scale(1,-1) scale(0.0069444) " font-family="Helvetica,sans-serif" font-size="20px" stroke="none" fill="black" > </text>
<line x1="0.06" y1="-4.15" x2="2.44" y2="-4.15" stroke-width="0.0094118" />
<polygon points="2.34,-4.125 2.44,-4.15 2.34,-4.175 " stroke-width="0.0094118" fill="black" />
<text transform="translate(0.49354,-4.1157) scale(1,-1) scale(0.0069444) " font-family="Helvetica,sans-serif" font-size="20px" stroke="none" fill="black" >NotificationAcknowledge</text>
<text transform="translate(1.2307,-4.2824) scale(1,-1) scale(0.0069444) " font-family="Helvetica,sans-serif" font-size="20px" stroke="none" fill="black" > </text>
<line x1="2.44" y1="-4.4" x2="0.06" y2="-4.4" stroke-width="0.0094118" />
<polygon points="0.16,-4.425 0.06,-4.4 0.16,-4.375 " stroke-width="0.0094118" fill="black" />
<text transform="translate(0.91806,-4.3657) scale(1,-1) scale(0.0069444) " font-family="Helvetica,sans-serif" font-size="20px" stroke="none" fill="black" >disconnect</text>
<text transform="translate(1.2307,-4.5324) scale(1,-1) scale(0.0069444) " font-family="Helvetica,sans-serif" font-size="20px" stroke="none" fill="black" > </text>
<line x1="-0.05" y1="-3.65" x2="-0.05" y2="-4.4" stroke-width="0.0094118" />
<line x1="0.05" y1="-3.65" x2="0.05" y2="-4.4" stroke-width="0.0094118" />
<line x1="-0.05" y1="-4.4" x2="0.05" y2="-4.4" stroke-width="0.0094118" />
<line x1="2.44" y1="-4.9" x2="0.06" y2="-4.9" stroke-width="0.0094118" />
<polygon points="0.16,-4.925 0.06,-4.9 0.16,-4.875 " stroke-width="0.0094118" fill="black" />
<text transform="translate(1.0068,-4.8657) scale(1,-1) scale(0.0069444) " font-family="Helvetica,sans-serif" font-size="20px" stroke="none" fill="black" >connect</text>
<text transform="translate(1.2307,-5.0324) scale(1,-1) scale(0.0069444) " font-family="Helvetica,sans-serif" font-size="20px" stroke="none" fill="black" > </text>
<line x1="0" y1="-4.4" x2="0" y2="-4.9" stroke-width="0.0094118" stroke-dasharray="0.05, 0.05"/>
<line x1="-0.05" y1="-4.9" x2="0.05" y2="-4.9" stroke-width="0.0094118" />
<line x1="2.44" y1="-5.15" x2="0.06" y2="-5.15" stroke-width="0.0094118" />
<polygon points="0.16,-5.175 0.06,-5.15 0.16,-5.125 " stroke-width="0.0094118" fill="black" />
<text transform="translate(0.19389,-5.1157) scale(1,-1) scale(0.0069444) " font-family="Helvetica,sans-serif" font-size="20px" stroke="none" fill="black" >FileTo ( Migrate | Recall ) Request</text>
<text transform="translate(1.2307,-5.2824) scale(1,-1) scale(0.0069444) " font-family="Helvetica,sans-serif" font-size="20px" stroke="none" fill="black" > </text>
<line x1="0.06" y1="-5.4" x2="2.44" y2="-5.4" stroke-width="0.0094118" />
<polygon points="2.34,-5.375 2.44,-5.4 2.34,-5.425 " stroke-width="0.0094118" fill="black" />
<text transform="translate(0.85646,-5.3657) scale(1,-1) scale(0.0069444) " font-family="Helvetica,sans-serif" font-size="20px" stroke="none" fill="black" >NoMoreFiles</text>
<text transform="translate(1.2307,-5.5324) scale(1,-1) scale(0.0069444) " font-family="Helvetica,sans-serif" font-size="20px" stroke="none" fill="black" > </text>
<line x1="2.44" y1="-5.65" x2="0.06" y2="-5.65" stroke-width="0.0094118" />
<polygon points="0.16,-5.675 0.06,-5.65 0.16,-5.625 " stroke-width="0.0094118" fill="black" />
<text transform="translate(0.91806,-5.6157) scale(1,-1) scale(0.0069444) " font-family="Helvetica,sans-serif" font-size="20px" stroke="none" fill="black" >disconnect</text>
<text transform="translate(1.2307,-5.7824) scale(1,-1) scale(0.0069444) " font-family="Helvetica,sans-serif" font-size="20px" stroke="none" fill="black" > </text>
<line x1="-0.05" y1="-4.9" x2="-0.05" y2="-5.65" stroke-width="0.0094118" />
<line x1="0.05" y1="-4.9" x2="0.05" y2="-5.65" stroke-width="0.0094118" />
<line x1="-0.05" y1="-5.65" x2="0.05" y2="-5.65" stroke-width="0.0094118" />
<line x1="2.44" y1="-6.15" x2="0.06" y2="-6.15" stroke-width="0.0094118" />
<polygon points="0.16,-6.175 0.06,-6.15 0.16,-6.125 " stroke-width="0.0094118" fill="black" />
<text transform="translate(1.0068,-6.1157) scale(1,-1) scale(0.0069444) " font-family="Helvetica,sans-serif" font-size="20px" stroke="none" fill="black" >connect</text>
<text transform="translate(1.2307,-6.2824) scale(1,-1) scale(0.0069444) " font-family="Helvetica,sans-serif" font-size="20px" stroke="none" fill="black" > </text>
<line x1="0" y1="-5.65" x2="0" y2="-6.15" stroke-width="0.0094118" stroke-dasharray="0.05, 0.05"/>
<line x1="-0.05" y1="-6.15" x2="0.05" y2="-6.15" stroke-width="0.0094118" />
<line x1="2.44" y1="-6.4" x2="0.06" y2="-6.4" stroke-width="0.0094118" />
<polygon points="0.16,-6.425 0.06,-6.4 0.16,-6.375 " stroke-width="0.0094118" fill="black" />
<text transform="translate(0.78299,-6.3657) scale(1,-1) scale(0.0069444) " font-family="Helvetica,sans-serif" font-size="20px" stroke="none" fill="black" >EndNotification</text>
<text transform="translate(1.2307,-6.5324) scale(1,-1) scale(0.0069444) " font-family="Helvetica,sans-serif" font-size="20px" stroke="none" fill="black" > </text>
<line x1="0.06" y1="-6.65" x2="2.44" y2="-6.65" stroke-width="0.0094118" />
<polygon points="2.34,-6.625 2.44,-6.65 2.34,-6.675 " stroke-width="0.0094118" fill="black" />
<text transform="translate(0.49354,-6.6157) scale(1,-1) scale(0.0069444) " font-family="Helvetica,sans-serif" font-size="20px" stroke="none" fill="black" >NotificationAcknowledge</text>
<text transform="translate(1.2307,-6.7824) scale(1,-1) scale(0.0069444) " font-family="Helvetica,sans-serif" font-size="20px" stroke="none" fill="black" > </text>
<line x1="2.44" y1="-6.9" x2="0.06" y2="-6.9" stroke-width="0.0094118" />
<polygon points="0.16,-6.925 0.06,-6.9 0.16,-6.875 " stroke-width="0.0094118" fill="black" />
<text transform="translate(0.91806,-6.8657) scale(1,-1) scale(0.0069444) " font-family="Helvetica,sans-serif" font-size="20px" stroke="none" fill="black" >disconnect</text>
<text transform="translate(1.2307,-7.0324) scale(1,-1) scale(0.0069444) " font-family="Helvetica,sans-serif" font-size="20px" stroke="none" fill="black" > </text>
<line x1="-0.05" y1="-6.15" x2="-0.05" y2="-6.9" stroke-width="0.0094118" />
<line x1="0.05" y1="-6.15" x2="0.05" y2="-6.9" stroke-width="0.0094118" />
<line x1="-0.05" y1="-6.9" x2="0.05" y2="-6.9" stroke-width="0.0094118" />
<line x1="2.45" y1="-0.9" x2="2.45" y2="-6.9" stroke-width="0.0094118" />
<line x1="2.55" y1="-0.9" x2="2.55" y2="-6.9" stroke-width="0.0094118" />
<line x1="2.45" y1="-6.9" x2="2.55" y2="-6.9" stroke-width="0.0094118" />
<line x1="0" y1="-6.9" x2="0" y2="-7.15" stroke-width="0.0094118" stroke-dasharray="0.05, 0.05"/>
<line x1="2.5" y1="-6.9" x2="2.5" y2="-7.15" stroke-width="0.0094118" stroke-dasharray="0.05, 0.05"/>
</g>
</svg>
