<?xml version="1.0" encoding="ISO-8859-1" standalone="no"?>
<!DOCTYPE svg PUBLIC "-//W3C//DTD SVG 1.1//EN" "http://www.w3.org/Graphics/SVG/1.1/DTD/svg11.dtd">
<svg version="1.1" baseProfile="full" id="body" width="8in" height="8in" viewBox="0 0 1 1" preserveAspectRatio="none" xmlns="http://www.w3.org/2000/svg" xmlns:xlink="http://www.w3.org/1999/xlink" xmlns:ev="http://www.w3.org/2001/xml-events">
<title>SVG drawing</title>
<desc>This was produced by version 4.4 of GNU libplot, a free library for exporting 2-D vector graphics.</desc>
<rect id="background" x="0" y="0" width="1" height="1" stroke="none" fill="white"/>
<g id="content" transform="translate(0.2492,-0.1875) scale(1,-1) scale(0.11803) " xml:space="preserve" stroke="black" stroke-linecap="butt" stroke-linejoin="miter" stroke-miterlimit="10.433" stroke-dasharray="none" stroke-dashoffset="0" stroke-opacity="1" fill="none" fill-rule="evenodd" fill-opacity="1" font-style="normal" font-variant="normal" font-weight="normal" font-stretch="normal" font-size-adjust="none" letter-spacing="normal" word-spacing="normal" text-anchor="start">
<rect x="-0.375" y="-0.55" width="0.75" height="0.3" stroke-width="0.0099679" />
<text transform="translate(-0.32707,-0.45192) scale(1,-1) scale(0.0073548) " font-family="Helvetica,sans-serif" font-size="20px" stroke="none" fill="black" >dumptape</text>
<line x1="-0.275" y1="-0.47" x2="0.275" y2="-0.47" stroke-width="0.0099679" />
<rect x="0.875" y="-0.55" width="0.75" height="0.3" stroke-width="0.0099679" />
<text transform="translate(1.0866,-0.45192) scale(1,-1) scale(0.0073548) " font-family="Helvetica,sans-serif" font-size="20px" stroke="none" fill="black" >vmgr</text>
<line x1="0.975" y1="-0.47" x2="1.525" y2="-0.47" stroke-width="0.0099679" />
<rect x="2.125" y="-0.55" width="0.75" height="0.3" stroke-width="0.0099679" />
<text transform="translate(2.3202,-0.45192) scale(1,-1) scale(0.0073548) " font-family="Helvetica,sans-serif" font-size="20px" stroke="none" fill="black" >vdqm</text>
<line x1="2.225" y1="-0.47" x2="2.775" y2="-0.47" stroke-width="0.0099679" />
<rect x="3.375" y="-0.55" width="0.75" height="0.3" stroke-width="0.0099679" />
<text transform="translate(3.5865,-0.45192) scale(1,-1) scale(0.0073548) " font-family="Helvetica,sans-serif" font-size="20px" stroke="none" fill="black" >rtcpd</text>
<line x1="3.475" y1="-0.47" x2="4.025" y2="-0.47" stroke-width="0.0099679" />
<line x1="0" y1="-0.55" x2="0" y2="-0.65" stroke-width="0.0099679" stroke-dasharray="0.05, 0.05"/>
<line x1="-0.05" y1="-0.65" x2="0.05" y2="-0.65" stroke-width="0.0099679" />
<line x1="0.06" y1="-0.9" x2="1.19" y2="-0.9" stroke-width="0.0099679" />
<polygon points="1.09,-0.875 1.19,-0.9 1.09,-0.925 " stroke-width="0.0099679" fill="black" />
<text transform="translate(0.36743,-0.86367) scale(1,-1) scale(0.0073548) " font-family="Helvetica,sans-serif" font-size="20px" stroke="none" fill="black" >connect</text>
<text transform="translate(0.60455,-1.0402) scale(1,-1) scale(0.0073548) " font-family="Helvetica,sans-serif" font-size="20px" stroke="none" fill="black" > </text>
<line x1="1.25" y1="-0.55" x2="1.25" y2="-0.9" stroke-width="0.0099679" stroke-dasharray="0.05, 0.05"/>
<line x1="1.2" y1="-0.9" x2="1.3" y2="-0.9" stroke-width="0.0099679" />
<line x1="0.06" y1="-1.15" x2="1.19" y2="-1.15" stroke-width="0.0099679" />
<polygon points="1.09,-1.125 1.19,-1.15 1.09,-1.175 " stroke-width="0.0099679" fill="black" />
<text transform="translate(0.011978,-1.1137) scale(1,-1) scale(0.0073548) " font-family="Helvetica,sans-serif" font-size="20px" stroke="none" fill="black" >VMGR_QRYTAPE</text>
<text transform="translate(0.60455,-1.2902) scale(1,-1) scale(0.0073548) " font-family="Helvetica,sans-serif" font-size="20px" stroke="none" fill="black" > </text>
<line x1="1.19" y1="-1.4" x2="0.06" y2="-1.4" stroke-width="0.0099679" />
<polygon points="0.16,-1.425 0.06,-1.4 0.16,-1.375 " stroke-width="0.0099679" fill="black" />
<text transform="translate(0.22041,-1.3637) scale(1,-1) scale(0.0073548) " font-family="Helvetica,sans-serif" font-size="20px" stroke="none" fill="black" >MSG_DATA</text>
<text transform="translate(0.60455,-1.5402) scale(1,-1) scale(0.0073548) " font-family="Helvetica,sans-serif" font-size="20px" stroke="none" fill="black" > </text>
<line x1="1.19" y1="-1.65" x2="0.06" y2="-1.65" stroke-width="0.0099679" />
<polygon points="0.16,-1.675 0.06,-1.65 0.16,-1.625 " stroke-width="0.0099679" fill="black" />
<text transform="translate(0.25726,-1.6137) scale(1,-1) scale(0.0073548) " font-family="Helvetica,sans-serif" font-size="20px" stroke="none" fill="black" >VMGR_RC</text>
<text transform="translate(0.60455,-1.7902) scale(1,-1) scale(0.0073548) " font-family="Helvetica,sans-serif" font-size="20px" stroke="none" fill="black" > </text>
<line x1="1.19" y1="-1.9" x2="0.06" y2="-1.9" stroke-width="0.0099679" />
<polygon points="0.16,-1.925 0.06,-1.9 0.16,-1.875 " stroke-width="0.0099679" fill="black" />
<text transform="translate(0.077215,-1.8637) scale(1,-1) scale(0.0073548) " font-family="Helvetica,sans-serif" font-size="20px" stroke="none" fill="black" >close connection</text>
<text transform="translate(0.60455,-2.0402) scale(1,-1) scale(0.0073548) " font-family="Helvetica,sans-serif" font-size="20px" stroke="none" fill="black" > </text>
<line x1="1.2" y1="-0.9" x2="1.2" y2="-1.9" stroke-width="0.0099679" />
<line x1="1.3" y1="-0.9" x2="1.3" y2="-1.9" stroke-width="0.0099679" />
<line x1="1.2" y1="-1.9" x2="1.3" y2="-1.9" stroke-width="0.0099679" />
<line x1="0.06" y1="-2.4" x2="2.44" y2="-2.4" stroke-width="0.0099679" />
<polygon points="2.34,-2.375 2.44,-2.4 2.34,-2.425 " stroke-width="0.0099679" fill="black" />
<text transform="translate(0.99243,-2.3637) scale(1,-1) scale(0.0073548) " font-family="Helvetica,sans-serif" font-size="20px" stroke="none" fill="black" >connect</text>
<text transform="translate(1.2296,-2.5402) scale(1,-1) scale(0.0073548) " font-family="Helvetica,sans-serif" font-size="20px" stroke="none" fill="black" > </text>
<line x1="2.5" y1="-0.55" x2="2.5" y2="-2.4" stroke-width="0.0099679" stroke-dasharray="0.05, 0.05"/>
<line x1="2.45" y1="-2.4" x2="2.55" y2="-2.4" stroke-width="0.0099679" />
<line x1="0.06" y1="-2.65" x2="2.44" y2="-2.65" stroke-width="0.0099679" />
<polygon points="2.34,-2.625 2.44,-2.65 2.34,-2.675 " stroke-width="0.0099679" fill="black" />
<text transform="translate(0.64102,-2.6137) scale(1,-1) scale(0.0073548) " font-family="Helvetica,sans-serif" font-size="20px" stroke="none" fill="black" >VDQM_VOL_REQ</text>
<text transform="translate(1.2296,-2.7902) scale(1,-1) scale(0.0073548) " font-family="Helvetica,sans-serif" font-size="20px" stroke="none" fill="black" > </text>
<line x1="2.44" y1="-2.9" x2="0.06" y2="-2.9" stroke-width="0.0099679" />
<polygon points="0.16,-2.925 0.06,-2.9 0.16,-2.875 " stroke-width="0.0099679" fill="black" />
<text transform="translate(0.69023,-2.8637) scale(1,-1) scale(0.0073548) " font-family="Helvetica,sans-serif" font-size="20px" stroke="none" fill="black" >VDQM_COMMIT</text>
<text transform="translate(1.2296,-3.0402) scale(1,-1) scale(0.0073548) " font-family="Helvetica,sans-serif" font-size="20px" stroke="none" fill="black" > </text>
<line x1="2.44" y1="-3.15" x2="0.06" y2="-3.15" stroke-width="0.0099679" />
<polygon points="0.16,-3.175 0.06,-3.15 0.16,-3.125 " stroke-width="0.0099679" fill="black" />
<text transform="translate(0.64102,-3.1137) scale(1,-1) scale(0.0073548) " font-family="Helvetica,sans-serif" font-size="20px" stroke="none" fill="black" >VDQM_VOL_REQ</text>
<text transform="translate(1.2296,-3.2902) scale(1,-1) scale(0.0073548) " font-family="Helvetica,sans-serif" font-size="20px" stroke="none" fill="black" > </text>
<line x1="0.06" y1="-3.4" x2="2.44" y2="-3.4" stroke-width="0.0099679" />
<polygon points="2.34,-3.375 2.44,-3.4 2.34,-3.425 " stroke-width="0.0099679" fill="black" />
<text transform="translate(0.69023,-3.3637) scale(1,-1) scale(0.0073548) " font-family="Helvetica,sans-serif" font-size="20px" stroke="none" fill="black" >VDQM_COMMIT</text>
<text transform="translate(1.2296,-3.5402) scale(1,-1) scale(0.0073548) " font-family="Helvetica,sans-serif" font-size="20px" stroke="none" fill="black" > </text>
<line x1="0.06" y1="-3.65" x2="2.44" y2="-3.65" stroke-width="0.0099679" />
<polygon points="2.34,-3.625 2.44,-3.65 2.34,-3.675 " stroke-width="0.0099679" fill="black" />
<text transform="translate(0.70221,-3.6137) scale(1,-1) scale(0.0073548) " font-family="Helvetica,sans-serif" font-size="20px" stroke="none" fill="black" >close connection</text>
<text transform="translate(1.2296,-3.7902) scale(1,-1) scale(0.0073548) " font-family="Helvetica,sans-serif" font-size="20px" stroke="none" fill="black" > </text>
<line x1="2.45" y1="-2.4" x2="2.45" y2="-3.65" stroke-width="0.0099679" />
<line x1="2.55" y1="-2.4" x2="2.55" y2="-3.65" stroke-width="0.0099679" />
<line x1="2.45" y1="-3.65" x2="2.55" y2="-3.65" stroke-width="0.0099679" />
<line x1="2.5" y1="-3.65" x2="2.5" y2="-3.9" stroke-width="0.0099679" stroke-dasharray="0.05, 0.05"/>
<line x1="2.45" y1="-3.9" x2="2.55" y2="-3.9" stroke-width="0.0099679" />
<line x1="2.56" y1="-4.15" x2="3.69" y2="-4.15" stroke-width="0.0099679" />
<polygon points="3.59,-4.125 3.69,-4.15 3.59,-4.175 " stroke-width="0.0099679" fill="black" />
<text transform="translate(2.8674,-4.1137) scale(1,-1) scale(0.0073548) " font-family="Helvetica,sans-serif" font-size="20px" stroke="none" fill="black" >connect</text>
<text transform="translate(3.1046,-4.2902) scale(1,-1) scale(0.0073548) " font-family="Helvetica,sans-serif" font-size="20px" stroke="none" fill="black" > </text>
<line x1="3.75" y1="-0.55" x2="3.75" y2="-4.15" stroke-width="0.0099679" stroke-dasharray="0.05, 0.05"/>
<line x1="3.7" y1="-4.15" x2="3.8" y2="-4.15" stroke-width="0.0099679" />
<line x1="2.56" y1="-4.4" x2="3.69" y2="-4.4" stroke-width="0.0099679" />
<polygon points="3.59,-4.375 3.69,-4.4 3.59,-4.425 " stroke-width="0.0099679" fill="black" />
<text transform="translate(2.4262,-4.3637) scale(1,-1) scale(0.0073548) " font-family="Helvetica,sans-serif" font-size="20px" stroke="none" fill="black" >VDQM_CLIENTINFO</text>
<text transform="translate(3.1046,-4.5402) scale(1,-1) scale(0.0073548) " font-family="Helvetica,sans-serif" font-size="20px" stroke="none" fill="black" > </text>
<line x1="3.69" y1="-4.65" x2="2.56" y2="-4.65" stroke-width="0.0099679" />
<polygon points="2.66,-4.675 2.56,-4.65 2.66,-4.625 " stroke-width="0.0099679" fill="black" />
<text transform="translate(2.2424,-4.6137) scale(1,-1) scale(0.0073548) " font-family="Helvetica,sans-serif" font-size="20px" stroke="none" fill="black" >VDQM_CLIENTINFO (ack)</text>
<text transform="translate(3.1046,-4.7902) scale(1,-1) scale(0.0073548) " font-family="Helvetica,sans-serif" font-size="20px" stroke="none" fill="black" > </text>
<line x1="3.69" y1="-4.9" x2="2.56" y2="-4.9" stroke-width="0.0099679" />
<polygon points="2.66,-4.925 2.56,-4.9 2.66,-4.875 " stroke-width="0.0099679" fill="black" />
<text transform="translate(2.5772,-4.8637) scale(1,-1) scale(0.0073548) " font-family="Helvetica,sans-serif" font-size="20px" stroke="none" fill="black" >close connection</text>
<text transform="translate(3.1046,-5.0402) scale(1,-1) scale(0.0073548) " font-family="Helvetica,sans-serif" font-size="20px" stroke="none" fill="black" > </text>
<line x1="2.45" y1="-3.9" x2="2.45" y2="-4.9" stroke-width="0.0099679" />
<line x1="2.55" y1="-3.9" x2="2.55" y2="-4.9" stroke-width="0.0099679" />
<line x1="2.45" y1="-4.9" x2="2.55" y2="-4.9" stroke-width="0.0099679" />
<line x1="3.69" y1="-5.4" x2="0.06" y2="-5.4" stroke-width="0.0099679" />
<polygon points="0.16,-5.425 0.06,-5.4 0.16,-5.375 " stroke-width="0.0099679" fill="black" />
<text transform="translate(1.6174,-5.3637) scale(1,-1) scale(0.0073548) " font-family="Helvetica,sans-serif" font-size="20px" stroke="none" fill="black" >connect</text>
<text transform="translate(1.8546,-5.5402) scale(1,-1) scale(0.0073548) " font-family="Helvetica,sans-serif" font-size="20px" stroke="none" fill="black" > </text>
<line x1="0.06" y1="-5.65" x2="3.69" y2="-5.65" stroke-width="0.0099679" />
<polygon points="3.59,-5.625 3.69,-5.65 3.59,-5.675 " stroke-width="0.0099679" fill="black" />
<text transform="translate(1.0863,-5.6137) scale(1,-1) scale(0.0073548) " font-family="Helvetica,sans-serif" font-size="20px" stroke="none" fill="black" >RTCP_TAPEERR_REQ</text>
<text transform="translate(1.8546,-5.7902) scale(1,-1) scale(0.0073548) " font-family="Helvetica,sans-serif" font-size="20px" stroke="none" fill="black" > </text>
<line x1="3.69" y1="-5.9" x2="0.06" y2="-5.9" stroke-width="0.0099679" />
<polygon points="0.16,-5.925 0.06,-5.9 0.16,-5.875 " stroke-width="0.0099679" fill="black" />
<text transform="translate(0.9024,-5.8637) scale(1,-1) scale(0.0073548) " font-family="Helvetica,sans-serif" font-size="20px" stroke="none" fill="black" >RTCP_TAPEERR_REQ (ack)</text>
<text transform="translate(1.8546,-6.0402) scale(1,-1) scale(0.0073548) " font-family="Helvetica,sans-serif" font-size="20px" stroke="none" fill="black" > </text>
<line x1="0.06" y1="-6.4" x2="3.69" y2="-6.4" stroke-width="0.0099679" />
<polygon points="3.59,-6.375 3.69,-6.4 3.59,-6.425 " stroke-width="0.0099679" fill="black" />
<text transform="translate(1.025,-6.3637) scale(1,-1) scale(0.0073548) " font-family="Helvetica,sans-serif" font-size="20px" stroke="none" fill="black" >RTCP_DUMPTAPE_REQ</text>
<text transform="translate(1.8546,-6.5402) scale(1,-1) scale(0.0073548) " font-family="Helvetica,sans-serif" font-size="20px" stroke="none" fill="black" > </text>
<line x1="3.69" y1="-6.65" x2="0.06" y2="-6.65" stroke-width="0.0099679" />
<polygon points="0.16,-6.675 0.06,-6.65 0.16,-6.625 " stroke-width="0.0099679" fill="black" />
<text transform="translate(0.84114,-6.6137) scale(1,-1) scale(0.0073548) " font-family="Helvetica,sans-serif" font-size="20px" stroke="none" fill="black" >RTCP_DUMPTAPE_REQ (ack)</text>
<text transform="translate(1.8546,-6.7902) scale(1,-1) scale(0.0073548) " font-family="Helvetica,sans-serif" font-size="20px" stroke="none" fill="black" > </text>
<line x1="0.06" y1="-6.9" x2="3.69" y2="-6.9" stroke-width="0.0099679" />
<polygon points="3.59,-6.875 3.69,-6.9 3.59,-6.925 " stroke-width="0.0099679" fill="black" />
<text transform="translate(1.1027,-6.8637) scale(1,-1) scale(0.0073548) " font-family="Helvetica,sans-serif" font-size="20px" stroke="none" fill="black" >RTCP_NOMORE_REQ</text>
<text transform="translate(1.8546,-7.0402) scale(1,-1) scale(0.0073548) " font-family="Helvetica,sans-serif" font-size="20px" stroke="none" fill="black" > </text>
<line x1="3.69" y1="-7.15" x2="0.06" y2="-7.15" stroke-width="0.0099679" />
<polygon points="0.16,-7.175 0.06,-7.15 0.16,-7.125 " stroke-width="0.0099679" fill="black" />
<text transform="translate(0.9188,-7.1137) scale(1,-1) scale(0.0073548) " font-family="Helvetica,sans-serif" font-size="20px" stroke="none" fill="black" >RTCP_NOMORE_REQ (ack)</text>
<text transform="translate(1.8546,-7.2902) scale(1,-1) scale(0.0073548) " font-family="Helvetica,sans-serif" font-size="20px" stroke="none" fill="black" > </text>
<line x1="3.69" y1="-7.65" x2="0.06" y2="-7.65" stroke-width="0.0099679" />
<polygon points="0.16,-7.675 0.06,-7.65 0.16,-7.625 " stroke-width="0.0099679" fill="black" />
<text transform="translate(1.6174,-7.6137) scale(1,-1) scale(0.0073548) " font-family="Helvetica,sans-serif" font-size="20px" stroke="none" fill="black" >connect</text>
<text transform="translate(1.8546,-7.7902) scale(1,-1) scale(0.0073548) " font-family="Helvetica,sans-serif" font-size="20px" stroke="none" fill="black" > </text>
<line x1="3.69" y1="-7.9" x2="0.06" y2="-7.9" stroke-width="0.0099679" />
<polygon points="0.16,-7.925 0.06,-7.9 0.16,-7.875 " stroke-width="0.0099679" fill="black" />
<text transform="translate(1.454,-7.8637) scale(1,-1) scale(0.0073548) " font-family="Helvetica,sans-serif" font-size="20px" stroke="none" fill="black" >GIVE_OUTP</text>
<text transform="translate(1.8546,-8.0402) scale(1,-1) scale(0.0073548) " font-family="Helvetica,sans-serif" font-size="20px" stroke="none" fill="black" > </text>
<line x1="3.69" y1="-8.15" x2="0.06" y2="-8.15" stroke-width="0.0099679" />
<polygon points="0.16,-8.175 0.06,-8.15 0.16,-8.125 " stroke-width="0.0099679" fill="black" />
<text transform="translate(1.8137,-8.1137) scale(1,-1) scale(0.0073548) " font-family="Helvetica,sans-serif" font-size="20px" stroke="none" fill="black" >...</text>
<text transform="translate(1.8546,-8.2902) scale(1,-1) scale(0.0073548) " font-family="Helvetica,sans-serif" font-size="20px" stroke="none" fill="black" > </text>
<line x1="3.69" y1="-8.4" x2="0.06" y2="-8.4" stroke-width="0.0099679" />
<polygon points="0.16,-8.425 0.06,-8.4 0.16,-8.375 " stroke-width="0.0099679" fill="black" />
<text transform="translate(1.454,-8.3637) scale(1,-1) scale(0.0073548) " font-family="Helvetica,sans-serif" font-size="20px" stroke="none" fill="black" >GIVE_OUTP</text>
<text transform="translate(1.8546,-8.5402) scale(1,-1) scale(0.0073548) " font-family="Helvetica,sans-serif" font-size="20px" stroke="none" fill="black" > </text>
<line x1="3.69" y1="-8.9" x2="0.06" y2="-8.9" stroke-width="0.0099679" />
<polygon points="0.16,-8.925 0.06,-8.9 0.16,-8.875 " stroke-width="0.0099679" fill="black" />
<text transform="translate(1.123,-8.8637) scale(1,-1) scale(0.0073548) " font-family="Helvetica,sans-serif" font-size="20px" stroke="none" fill="black" >RTCP_FILEERR_REQ</text>
<text transform="translate(1.8546,-9.0402) scale(1,-1) scale(0.0073548) " font-family="Helvetica,sans-serif" font-size="20px" stroke="none" fill="black" > </text>
<line x1="0.06" y1="-9.15" x2="3.69" y2="-9.15" stroke-width="0.0099679" />
<polygon points="3.59,-9.125 3.69,-9.15 3.59,-9.175 " stroke-width="0.0099679" fill="black" />
<text transform="translate(0.93918,-9.1137) scale(1,-1) scale(0.0073548) " font-family="Helvetica,sans-serif" font-size="20px" stroke="none" fill="black" >RTCP_FILEERR_REQ (ack)</text>
<text transform="translate(1.8546,-9.2902) scale(1,-1) scale(0.0073548) " font-family="Helvetica,sans-serif" font-size="20px" stroke="none" fill="black" > </text>
<line x1="0.06" y1="-9.65" x2="3.69" y2="-9.65" stroke-width="0.0099679" />
<polygon points="3.59,-9.625 3.69,-9.65 3.59,-9.675 " stroke-width="0.0099679" fill="black" />
<text transform="translate(1.1762,-9.6137) scale(1,-1) scale(0.0073548) " font-family="Helvetica,sans-serif" font-size="20px" stroke="none" fill="black" >RTCP_ENDOF_REQ</text>
<text transform="translate(1.8546,-9.7902) scale(1,-1) scale(0.0073548) " font-family="Helvetica,sans-serif" font-size="20px" stroke="none" fill="black" > </text>
<line x1="3.69" y1="-9.9" x2="0.06" y2="-9.9" stroke-width="0.0099679" />
<polygon points="0.16,-9.925 0.06,-9.9 0.16,-9.875 " stroke-width="0.0099679" fill="black" />
<text transform="translate(0.99235,-9.8637) scale(1,-1) scale(0.0073548) " font-family="Helvetica,sans-serif" font-size="20px" stroke="none" fill="black" >RTCP_ENDOF_REQ (ack)</text>
<text transform="translate(1.8546,-10.04) scale(1,-1) scale(0.0073548) " font-family="Helvetica,sans-serif" font-size="20px" stroke="none" fill="black" > </text>
<line x1="0.06" y1="-10.15" x2="3.69" y2="-10.15" stroke-width="0.0099679" />
<polygon points="3.59,-10.125 3.69,-10.15 3.59,-10.175 " stroke-width="0.0099679" fill="black" />
<text transform="translate(1.3272,-10.114) scale(1,-1) scale(0.0073548) " font-family="Helvetica,sans-serif" font-size="20px" stroke="none" fill="black" >close connection</text>
<text transform="translate(1.8546,-10.29) scale(1,-1) scale(0.0073548) " font-family="Helvetica,sans-serif" font-size="20px" stroke="none" fill="black" > </text>
<line x1="3.7" y1="-4.15" x2="3.7" y2="-10.15" stroke-width="0.0099679" />
<line x1="3.8" y1="-4.15" x2="3.8" y2="-10.15" stroke-width="0.0099679" />
<line x1="3.7" y1="-10.15" x2="3.8" y2="-10.15" stroke-width="0.0099679" />
<line x1="0.06" y1="-10.65" x2="2.44" y2="-10.65" stroke-width="0.0099679" />
<polygon points="2.34,-10.625 2.44,-10.65 2.34,-10.675 " stroke-width="0.0099679" fill="black" />
<text transform="translate(0.99243,-10.614) scale(1,-1) scale(0.0073548) " font-family="Helvetica,sans-serif" font-size="20px" stroke="none" fill="black" >connect</text>
<text transform="translate(1.2296,-10.79) scale(1,-1) scale(0.0073548) " font-family="Helvetica,sans-serif" font-size="20px" stroke="none" fill="black" > </text>
<line x1="2.5" y1="-4.9" x2="2.5" y2="-10.65" stroke-width="0.0099679" stroke-dasharray="0.05, 0.05"/>
<line x1="2.45" y1="-10.65" x2="2.55" y2="-10.65" stroke-width="0.0099679" />
<line x1="0.06" y1="-10.9" x2="2.44" y2="-10.9" stroke-width="0.0099679" />
<polygon points="2.34,-10.875 2.44,-10.9 2.34,-10.925 " stroke-width="0.0099679" fill="black" />
<text transform="translate(0.49797,-10.864) scale(1,-1) scale(0.0073548) " font-family="Helvetica,sans-serif" font-size="20px" stroke="none" fill="black" >VDQM_DEL_VOLREQ</text>
<text transform="translate(1.2296,-11.04) scale(1,-1) scale(0.0073548) " font-family="Helvetica,sans-serif" font-size="20px" stroke="none" fill="black" > </text>
<line x1="2.44" y1="-11.15" x2="0.06" y2="-11.15" stroke-width="0.0099679" />
<polygon points="0.16,-11.175 0.06,-11.15 0.16,-11.125 " stroke-width="0.0099679" fill="black" />
<text transform="translate(0.78812,-11.114) scale(1,-1) scale(0.0073548) " font-family="Helvetica,sans-serif" font-size="20px" stroke="none" fill="black" >EVQREQASS</text>
<text transform="translate(1.2296,-11.29) scale(1,-1) scale(0.0073548) " font-family="Helvetica,sans-serif" font-size="20px" stroke="none" fill="black" > </text>
<line x1="0.06" y1="-11.4" x2="2.44" y2="-11.4" stroke-width="0.0099679" />
<polygon points="2.34,-11.375 2.44,-11.4 2.34,-11.425 " stroke-width="0.0099679" fill="black" />
<text transform="translate(0.70221,-11.364) scale(1,-1) scale(0.0073548) " font-family="Helvetica,sans-serif" font-size="20px" stroke="none" fill="black" >close connection</text>
<text transform="translate(1.2296,-11.54) scale(1,-1) scale(0.0073548) " font-family="Helvetica,sans-serif" font-size="20px" stroke="none" fill="black" > </text>
<line x1="2.45" y1="-10.65" x2="2.45" y2="-11.4" stroke-width="0.0099679" />
<line x1="2.55" y1="-10.65" x2="2.55" y2="-11.4" stroke-width="0.0099679" />
<line x1="2.45" y1="-11.4" x2="2.55" y2="-11.4" stroke-width="0.0099679" />
<line x1="-0.05" y1="-0.65" x2="-0.05" y2="-11.4" stroke-width="0.0099679" />
<line x1="0.05" y1="-0.65" x2="0.05" y2="-11.4" stroke-width="0.0099679" />
<line x1="-0.05" y1="-11.4" x2="0.05" y2="-11.4" stroke-width="0.0099679" />
<line x1="0" y1="-11.4" x2="0" y2="-11.4" stroke-width="0.0099679" stroke-dasharray="0.05, 0.05"/>
<line x1="1.25" y1="-1.9" x2="1.25" y2="-11.4" stroke-width="0.0099679" stroke-dasharray="0.05, 0.05"/>
<line x1="2.5" y1="-11.4" x2="2.5" y2="-11.4" stroke-width="0.0099679" stroke-dasharray="0.05, 0.05"/>
<line x1="3.75" y1="-10.15" x2="3.75" y2="-11.4" stroke-width="0.0099679" stroke-dasharray="0.05, 0.05"/>
</g>
</svg>
