<?xml version="1.0" encoding="ISO-8859-1" standalone="no"?>
<!DOCTYPE svg PUBLIC "-//W3C//DTD SVG 1.1//EN" "http://www.w3.org/Graphics/SVG/1.1/DTD/svg11.dtd">
<svg version="1.1" baseProfile="full" id="body" width="8in" height="8in" viewBox="0 0 1 1" preserveAspectRatio="none" xmlns="http://www.w3.org/2000/svg" xmlns:xlink="http://www.w3.org/1999/xlink" xmlns:ev="http://www.w3.org/2001/xml-events">
<title>SVG drawing</title>
<desc>This was produced by version 4.4 of GNU libplot, a free library for exporting 2-D vector graphics.</desc>
<rect id="background" x="0" y="0" width="1" height="1" stroke="none" fill="white"/>
<g id="content" transform="translate(0.15625,0.003125) scale(1,-1) scale(0.125) " xml:space="preserve" stroke="black" stroke-linecap="butt" stroke-linejoin="miter" stroke-miterlimit="10.433" stroke-dasharray="none" stroke-dashoffset="0" stroke-opacity="1" fill="none" fill-rule="evenodd" fill-opacity="1" font-style="normal" font-variant="normal" font-weight="normal" font-stretch="normal" font-size-adjust="none" letter-spacing="normal" word-spacing="normal" text-anchor="start">
<rect x="-0.375" y="-0.8" width="0.75" height="0.3" stroke-width="0.0094118" />
<text transform="translate(-0.20451,-0.69903) scale(1,-1) scale(0.0069444) " font-family="Helvetica,sans-serif" font-size="20px" stroke="none" fill="black" >rtcpcld</text>
<line x1="-0.275" y1="-0.72" x2="0.275" y2="-0.72" stroke-width="0.0094118" />
<rect x="2.125" y="-0.8" width="0.75" height="0.3" stroke-width="0.0094118" />
<text transform="translate(2.3302,-0.69903) scale(1,-1) scale(0.0069444) " font-family="Helvetica,sans-serif" font-size="20px" stroke="none" fill="black" >vdqm</text>
<line x1="2.225" y1="-0.72" x2="2.775" y2="-0.72" stroke-width="0.0094118" />
<rect x="3.375" y="-0.8" width="0.75" height="0.3" stroke-width="0.0094118" />
<text transform="translate(3.5956,-0.69903) scale(1,-1) scale(0.0069444) " font-family="Helvetica,sans-serif" font-size="20px" stroke="none" fill="black" >rtcpd</text>
<line x1="3.475" y1="-0.72" x2="4.025" y2="-0.72" stroke-width="0.0094118" />
<line x1="0" y1="-0.8" x2="0" y2="-0.9" stroke-width="0.0094118" stroke-dasharray="0.05, 0.05"/>
<line x1="-0.05" y1="-0.9" x2="0.05" y2="-0.9" stroke-width="0.0094118" />
<line x1="0.06" y1="-1.15" x2="2.44" y2="-1.15" stroke-width="0.0094118" />
<polygon points="2.34,-1.125 2.44,-1.15 2.34,-1.175 " stroke-width="0.0094118" fill="black" />
<text transform="translate(1.0068,-1.1157) scale(1,-1) scale(0.0069444) " font-family="Helvetica,sans-serif" font-size="20px" stroke="none" fill="black" >connect</text>
<text transform="translate(1.2307,-1.2824) scale(1,-1) scale(0.0069444) " font-family="Helvetica,sans-serif" font-size="20px" stroke="none" fill="black" > </text>
<line x1="2.5" y1="-0.8" x2="2.5" y2="-1.15" stroke-width="0.0094118" stroke-dasharray="0.05, 0.05"/>
<line x1="2.45" y1="-1.15" x2="2.55" y2="-1.15" stroke-width="0.0094118" />
<line x1="0.06" y1="-1.4" x2="2.44" y2="-1.4" stroke-width="0.0094118" />
<polygon points="2.34,-1.375 2.44,-1.4 2.34,-1.425 " stroke-width="0.0094118" fill="black" />
<text transform="translate(0.59382,-1.3657) scale(1,-1) scale(0.0069444) " font-family="Helvetica,sans-serif" font-size="20px" stroke="none" fill="black" >request drive for tape</text>
<text transform="translate(1.2307,-1.5324) scale(1,-1) scale(0.0069444) " font-family="Helvetica,sans-serif" font-size="20px" stroke="none" fill="black" > </text>
<line x1="2.44" y1="-1.65" x2="0.06" y2="-1.65" stroke-width="0.0094118" />
<polygon points="0.16,-1.675 0.06,-1.65 0.16,-1.625 " stroke-width="0.0094118" fill="black" />
<text transform="translate(1.1419,-1.6157) scale(1,-1) scale(0.0069444) " font-family="Helvetica,sans-serif" font-size="20px" stroke="none" fill="black" >ack</text>
<text transform="translate(1.2307,-1.7824) scale(1,-1) scale(0.0069444) " font-family="Helvetica,sans-serif" font-size="20px" stroke="none" fill="black" > </text>
<line x1="2.44" y1="-2.15" x2="0.06" y2="-2.15" stroke-width="0.0094118" />
<polygon points="0.16,-2.175 0.06,-2.15 0.16,-2.125 " stroke-width="0.0094118" fill="black" />
<text transform="translate(0.92965,-2.1157) scale(1,-1) scale(0.0069444) " font-family="Helvetica,sans-serif" font-size="20px" stroke="none" fill="black" >request ID</text>
<text transform="translate(1.2307,-2.2824) scale(1,-1) scale(0.0069444) " font-family="Helvetica,sans-serif" font-size="20px" stroke="none" fill="black" > </text>
<line x1="0.06" y1="-2.4" x2="2.44" y2="-2.4" stroke-width="0.0094118" />
<polygon points="2.34,-2.375 2.44,-2.4 2.34,-2.425 " stroke-width="0.0094118" fill="black" />
<text transform="translate(1.1419,-2.3657) scale(1,-1) scale(0.0069444) " font-family="Helvetica,sans-serif" font-size="20px" stroke="none" fill="black" >ack</text>
<text transform="translate(1.2307,-2.5324) scale(1,-1) scale(0.0069444) " font-family="Helvetica,sans-serif" font-size="20px" stroke="none" fill="black" > </text>
<line x1="0.06" y1="-2.65" x2="2.44" y2="-2.65" stroke-width="0.0094118" />
<polygon points="2.34,-2.625 2.44,-2.65 2.34,-2.675 " stroke-width="0.0094118" fill="black" />
<text transform="translate(0.73278,-2.6157) scale(1,-1) scale(0.0069444) " font-family="Helvetica,sans-serif" font-size="20px" stroke="none" fill="black" >close connection</text>
<text transform="translate(1.2307,-2.7824) scale(1,-1) scale(0.0069444) " font-family="Helvetica,sans-serif" font-size="20px" stroke="none" fill="black" > </text>
<line x1="2.45" y1="-1.15" x2="2.45" y2="-2.65" stroke-width="0.0094118" />
<line x1="2.55" y1="-1.15" x2="2.55" y2="-2.65" stroke-width="0.0094118" />
<line x1="2.45" y1="-2.65" x2="2.55" y2="-2.65" stroke-width="0.0094118" />
<line x1="-0.05" y1="-0.9" x2="-0.05" y2="-2.65" stroke-width="0.0094118" />
<line x1="0.05" y1="-0.9" x2="0.05" y2="-2.65" stroke-width="0.0094118" />
<line x1="-0.05" y1="-2.65" x2="0.05" y2="-2.65" stroke-width="0.0094118" />
<line x1="2.5" y1="-2.65" x2="2.5" y2="-2.9" stroke-width="0.0094118" stroke-dasharray="0.05, 0.05"/>
<line x1="2.45" y1="-2.9" x2="2.55" y2="-2.9" stroke-width="0.0094118" />
<line x1="2.56" y1="-3.15" x2="3.69" y2="-3.15" stroke-width="0.0094118" />
<polygon points="3.59,-3.125 3.69,-3.15 3.59,-3.175 " stroke-width="0.0094118" fill="black" />
<text transform="translate(2.8818,-3.1157) scale(1,-1) scale(0.0069444) " font-family="Helvetica,sans-serif" font-size="20px" stroke="none" fill="black" >connect</text>
<text transform="translate(3.1057,-3.2824) scale(1,-1) scale(0.0069444) " font-family="Helvetica,sans-serif" font-size="20px" stroke="none" fill="black" > </text>
<line x1="3.75" y1="-0.8" x2="3.75" y2="-3.15" stroke-width="0.0094118" stroke-dasharray="0.05, 0.05"/>
<line x1="3.7" y1="-3.15" x2="3.8" y2="-3.15" stroke-width="0.0094118" />
<line x1="3.81" y1="-3.4" x2="4.6175" y2="-3.4" stroke-width="0.0094118" />
<polygon points="4.5175,-3.375 4.6175,-3.4 4.5175,-3.425 " stroke-width="0.0094118" fill="black" />
<text transform="translate(3.9435,-3.3657) scale(1,-1) scale(0.0069444) " font-family="Helvetica,sans-serif" font-size="20px" stroke="none" fill="black" >«create»</text>
<text transform="translate(4.1944,-3.5324) scale(1,-1) scale(0.0069444) " font-family="Helvetica,sans-serif" font-size="20px" stroke="none" fill="black" > </text>
<rect x="4.6175" y="-3.55" width="0.75" height="0.3" stroke-width="0.0094118" />
<text transform="translate(4.676,-3.449) scale(1,-1) scale(0.0069444) " font-family="Helvetica,sans-serif" font-size="20px" stroke="none" fill="black" >rtcpd child</text>
<line x1="4.7175" y1="-3.47" x2="5.2675" y2="-3.47" stroke-width="0.0094118" />
<line x1="5" y1="-3.55" x2="5" y2="-3.675" stroke-width="0.0094118" stroke-dasharray="0.05, 0.05"/>
<line x1="4.95" y1="-3.675" x2="5.05" y2="-3.675" stroke-width="0.0094118" />
<line x1="3.7" y1="-3.15" x2="3.7" y2="-3.675" stroke-width="0.0094118" />
<line x1="3.8" y1="-3.15" x2="3.8" y2="-3.675" stroke-width="0.0094118" />
<line x1="3.7" y1="-3.675" x2="3.8" y2="-3.675" stroke-width="0.0094118" />
<line x1="2.56" y1="-3.925" x2="4.94" y2="-3.925" stroke-width="0.0094118" />
<polygon points="4.84,-3.9 4.94,-3.925 4.84,-3.95 " stroke-width="0.0094118" fill="black" />
<text transform="translate(3.2096,-3.8907) scale(1,-1) scale(0.0069444) " font-family="Helvetica,sans-serif" font-size="20px" stroke="none" fill="black" >client and job info</text>
<text transform="translate(3.7307,-4.0574) scale(1,-1) scale(0.0069444) " font-family="Helvetica,sans-serif" font-size="20px" stroke="none" fill="black" > </text>
<line x1="4.94" y1="-4.175" x2="2.56" y2="-4.175" stroke-width="0.0094118" />
<polygon points="2.66,-4.2 2.56,-4.175 2.66,-4.15 " stroke-width="0.0094118" fill="black" />
<text transform="translate(3.4992,-4.1407) scale(1,-1) scale(0.0069444) " font-family="Helvetica,sans-serif" font-size="20px" stroke="none" fill="black" >success</text>
<text transform="translate(3.7307,-4.3074) scale(1,-1) scale(0.0069444) " font-family="Helvetica,sans-serif" font-size="20px" stroke="none" fill="black" > </text>
<line x1="4.94" y1="-4.425" x2="2.56" y2="-4.425" stroke-width="0.0094118" />
<polygon points="2.66,-4.45 2.56,-4.425 2.66,-4.4 " stroke-width="0.0094118" fill="black" />
<text transform="translate(3.2328,-4.3907) scale(1,-1) scale(0.0069444) " font-family="Helvetica,sans-serif" font-size="20px" stroke="none" fill="black" >close connection</text>
<text transform="translate(3.7307,-4.5574) scale(1,-1) scale(0.0069444) " font-family="Helvetica,sans-serif" font-size="20px" stroke="none" fill="black" > </text>
<line x1="2.45" y1="-2.9" x2="2.45" y2="-4.425" stroke-width="0.0094118" />
<line x1="2.55" y1="-2.9" x2="2.55" y2="-4.425" stroke-width="0.0094118" />
<line x1="2.45" y1="-4.425" x2="2.55" y2="-4.425" stroke-width="0.0094118" />
<line x1="4.94" y1="-4.925" x2="0.06" y2="-4.925" stroke-width="0.0094118" />
<polygon points="0.16,-4.95 0.06,-4.925 0.16,-4.9 " stroke-width="0.0094118" fill="black" />
<text transform="translate(2.2568,-4.8907) scale(1,-1) scale(0.0069444) " font-family="Helvetica,sans-serif" font-size="20px" stroke="none" fill="black" >connect</text>
<text transform="translate(2.4807,-5.0574) scale(1,-1) scale(0.0069444) " font-family="Helvetica,sans-serif" font-size="20px" stroke="none" fill="black" > </text>
<line x1="0" y1="-2.65" x2="0" y2="-4.925" stroke-width="0.0094118" stroke-dasharray="0.05, 0.05"/>
<line x1="-0.05" y1="-4.925" x2="0.05" y2="-4.925" stroke-width="0.0094118" />
<line x1="0.06" y1="-5.175" x2="4.94" y2="-5.175" stroke-width="0.0094118" />
<polygon points="4.84,-5.15 4.94,-5.175 4.84,-5.2 " stroke-width="0.0094118" fill="black" />
<text transform="translate(2.0252,-5.1407) scale(1,-1) scale(0.0069444) " font-family="Helvetica,sans-serif" font-size="20px" stroke="none" fill="black" >request job info</text>
<text transform="translate(2.4807,-5.3074) scale(1,-1) scale(0.0069444) " font-family="Helvetica,sans-serif" font-size="20px" stroke="none" fill="black" > </text>
<line x1="4.94" y1="-5.425" x2="0.06" y2="-5.425" stroke-width="0.0094118" />
<polygon points="0.16,-5.45 0.06,-5.425 0.16,-5.4 " stroke-width="0.0094118" fill="black" />
<text transform="translate(2.3919,-5.3907) scale(1,-1) scale(0.0069444) " font-family="Helvetica,sans-serif" font-size="20px" stroke="none" fill="black" >ack</text>
<text transform="translate(2.4807,-5.5574) scale(1,-1) scale(0.0069444) " font-family="Helvetica,sans-serif" font-size="20px" stroke="none" fill="black" > </text>
<line x1="4.94" y1="-5.925" x2="0.06" y2="-5.925" stroke-width="0.0094118" />
<polygon points="0.16,-5.95 0.06,-5.925 0.16,-5.9 " stroke-width="0.0094118" fill="black" />
<text transform="translate(2.2761,-5.8907) scale(1,-1) scale(0.0069444) " font-family="Helvetica,sans-serif" font-size="20px" stroke="none" fill="black" >job info</text>
<text transform="translate(2.4807,-6.0574) scale(1,-1) scale(0.0069444) " font-family="Helvetica,sans-serif" font-size="20px" stroke="none" fill="black" > </text>
<line x1="0.06" y1="-6.175" x2="4.94" y2="-6.175" stroke-width="0.0094118" />
<polygon points="4.84,-6.15 4.94,-6.175 4.84,-6.2 " stroke-width="0.0094118" fill="black" />
<text transform="translate(2.3919,-6.1407) scale(1,-1) scale(0.0069444) " font-family="Helvetica,sans-serif" font-size="20px" stroke="none" fill="black" >ack</text>
<text transform="translate(2.4807,-6.3074) scale(1,-1) scale(0.0069444) " font-family="Helvetica,sans-serif" font-size="20px" stroke="none" fill="black" > </text>
<line x1="0.06" y1="-6.675" x2="0.8675" y2="-6.675" stroke-width="0.0094118" />
<polygon points="0.7675,-6.65 0.8675,-6.675 0.7675,-6.7 " stroke-width="0.0094118" fill="black" />
<text transform="translate(0.19354,-6.6407) scale(1,-1) scale(0.0069444) " font-family="Helvetica,sans-serif" font-size="20px" stroke="none" fill="black" >«create»</text>
<text transform="translate(0.44444,-6.8074) scale(1,-1) scale(0.0069444) " font-family="Helvetica,sans-serif" font-size="20px" stroke="none" fill="black" > </text>
<rect x="0.8675" y="-6.825" width="0.75" height="0.3" stroke-width="0.0094118" />
<text transform="translate(1.0342,-6.724) scale(1,-1) scale(0.0069444) " font-family="Helvetica,sans-serif" font-size="20px" stroke="none" fill="black" >worker</text>
<line x1="0.9675" y1="-6.745" x2="1.5175" y2="-6.745" stroke-width="0.0094118" />
<line x1="1.25" y1="-6.825" x2="1.25" y2="-6.95" stroke-width="0.0094118" stroke-dasharray="0.05, 0.05"/>
<line x1="1.2" y1="-6.95" x2="1.3" y2="-6.95" stroke-width="0.0094118" />
<line x1="-0.05" y1="-4.925" x2="-0.05" y2="-6.95" stroke-width="0.0094118" />
<line x1="0.05" y1="-4.925" x2="0.05" y2="-6.95" stroke-width="0.0094118" />
<line x1="-0.05" y1="-6.95" x2="0.05" y2="-6.95" stroke-width="0.0094118" />
<line x1="1.31" y1="-7.2" x2="4.94" y2="-7.2" stroke-width="0.0094118" />
<polygon points="4.84,-7.175 4.94,-7.2 4.84,-7.225 " stroke-width="0.0094118" fill="black" />
<text transform="translate(2.685,-7.1657) scale(1,-1) scale(0.0069444) " font-family="Helvetica,sans-serif" font-size="20px" stroke="none" fill="black" >new client info</text>
<text transform="translate(3.1057,-7.3324) scale(1,-1) scale(0.0069444) " font-family="Helvetica,sans-serif" font-size="20px" stroke="none" fill="black" > </text>
<line x1="4.94" y1="-7.45" x2="1.31" y2="-7.45" stroke-width="0.0094118" />
<polygon points="1.41,-7.475 1.31,-7.45 1.41,-7.425 " stroke-width="0.0094118" fill="black" />
<text transform="translate(3.0169,-7.4157) scale(1,-1) scale(0.0069444) " font-family="Helvetica,sans-serif" font-size="20px" stroke="none" fill="black" >ack</text>
<text transform="translate(3.1057,-7.5824) scale(1,-1) scale(0.0069444) " font-family="Helvetica,sans-serif" font-size="20px" stroke="none" fill="black" > </text>
<line x1="1.31" y1="-7.7" x2="4.94" y2="-7.7" stroke-width="0.0094118" />
<polygon points="4.84,-7.675 4.94,-7.7 4.84,-7.725 " stroke-width="0.0094118" fill="black" />
<text transform="translate(2.6078,-7.6657) scale(1,-1) scale(0.0069444) " font-family="Helvetica,sans-serif" font-size="20px" stroke="none" fill="black" >close connection</text>
<text transform="translate(3.1057,-7.8324) scale(1,-1) scale(0.0069444) " font-family="Helvetica,sans-serif" font-size="20px" stroke="none" fill="black" > </text>
<line x1="0" y1="-6.95" x2="0" y2="-7.95" stroke-width="0.0094118" stroke-dasharray="0.05, 0.05"/>
<line x1="1.2" y1="-6.95" x2="1.2" y2="-7.95" stroke-width="0.0094118" />
<line x1="1.3" y1="-6.95" x2="1.3" y2="-7.95" stroke-width="0.0094118" />
<line x1="1.2" y1="-7.95" x2="1.3" y2="-7.95" stroke-width="0.0094118" />
<line x1="2.5" y1="-4.425" x2="2.5" y2="-7.95" stroke-width="0.0094118" stroke-dasharray="0.05, 0.05"/>
<line x1="3.75" y1="-3.675" x2="3.75" y2="-7.95" stroke-width="0.0094118" stroke-dasharray="0.05, 0.05"/>
<line x1="4.95" y1="-3.675" x2="4.95" y2="-7.95" stroke-width="0.0094118" />
<line x1="5.05" y1="-3.675" x2="5.05" y2="-7.95" stroke-width="0.0094118" />
<line x1="4.95" y1="-7.95" x2="5.05" y2="-7.95" stroke-width="0.0094118" />
</g>
</svg>
