<?xml version="1.0" encoding="UTF-8" standalone="no"?>
<!DOCTYPE svg PUBLIC "-//W3C//DTD SVG 1.0//EN" "http://www.w3.org/TR/2001/PR-SVG-20010719/DTD/svg10.dtd">
<svg width="87cm" height="49cm" viewBox="-499 -49 1721 977" xmlns="http://www.w3.org/2000/svg" xmlns:xlink="http://www.w3.org/1999/xlink">
  <g>
    <rect style="fill: #e5e5e5" x="-257.586" y="376.862" width="1480.08" height="550.728"/>
    <rect style="fill: none; fill-opacity:0; stroke-width: 0.02; stroke-dasharray: 20; stroke: #000000" x="-257.586" y="376.862" width="1480.08" height="550.728"/>
  </g>
  <g>
    <rect style="fill: #ffffff" x="-469.31" y="312.822" width="171.7" height="28"/>
    <rect style="fill: none; fill-opacity:0; stroke-width: 4; stroke: #000000" x="-469.31" y="312.822" width="171.7" height="28"/>
    <text font-size="16" style="fill: #000000;text-anchor:middle;font-family:sans-serif;font-style:normal;font-weight:700" x="-383.46" y="331.822">Stmt</text>
    <rect style="fill: #ffffff" x="-469.31" y="340.822" width="171.7" height="8"/>
    <rect style="fill: none; fill-opacity:0; stroke-width: 4; stroke: #000000" x="-469.31" y="340.822" width="171.7" height="8"/>
    <rect style="fill: #ffffff" x="-469.31" y="348.822" width="171.7" height="164"/>
    <rect style="fill: none; fill-opacity:0; stroke-width: 4; stroke: #000000" x="-469.31" y="348.822" width="171.7" height="164"/>
    <text font-size="12.8" style="fill: #000000;text-anchor:start;font-family:monospace;font-style:normal;font-weight:normal" x="-465.31" y="362.822">+bindBlob()</text>
    <text font-size="12.8" style="fill: #000000;text-anchor:start;font-family:monospace;font-style:normal;font-weight:normal" x="-465.31" y="378.822">+bindBool()</text>
    <text font-size="12.8" style="fill: #000000;text-anchor:start;font-family:monospace;font-style:normal;font-weight:normal" x="-465.31" y="394.822">+bindDouble()</text>
    <text font-size="12.8" style="fill: #000000;text-anchor:start;font-family:monospace;font-style:normal;font-weight:normal" x="-465.31" y="410.822">+bindString()</text>
    <text font-size="12.8" style="fill: #000000;text-anchor:start;font-family:monospace;font-style:normal;font-weight:normal" x="-465.31" y="426.822">+bindUint8()</text>
    <text font-size="12.8" style="fill: #000000;text-anchor:start;font-family:monospace;font-style:normal;font-weight:normal" x="-465.31" y="442.822">+bindUint16()</text>
    <text font-size="12.8" style="fill: #000000;text-anchor:start;font-family:monospace;font-style:normal;font-weight:normal" x="-465.31" y="458.822">+bindUint32()</text>
    <text font-size="12.8" style="fill: #000000;text-anchor:start;font-family:monospace;font-style:normal;font-weight:normal" x="-465.31" y="474.822">+binUint64()</text>
    <text font-size="12.8" style="fill: #000000;text-anchor:start;font-family:monospace;font-style:normal;font-weight:normal" x="-465.31" y="490.822">+executeQuery(): Rset</text>
    <text font-size="12.8" style="fill: #000000;text-anchor:start;font-family:monospace;font-style:normal;font-weight:normal" x="-465.31" y="506.822">+executeNonQuery()</text>
  </g>
  <g>
    <rect style="fill: #ffffff" x="-476.878" y="583.202" width="187.1" height="28"/>
    <rect style="fill: none; fill-opacity:0; stroke-width: 4; stroke: #000000" x="-476.878" y="583.202" width="187.1" height="28"/>
    <text font-size="16" style="fill: #000000;text-anchor:middle;font-family:sans-serif;font-style:normal;font-weight:700" x="-383.328" y="602.202">Rset</text>
    <rect style="fill: #ffffff" x="-476.878" y="611.202" width="187.1" height="8"/>
    <rect style="fill: none; fill-opacity:0; stroke-width: 4; stroke: #000000" x="-476.878" y="611.202" width="187.1" height="8"/>
    <rect style="fill: #ffffff" x="-476.878" y="619.202" width="187.1" height="276"/>
    <rect style="fill: none; fill-opacity:0; stroke-width: 4; stroke: #000000" x="-476.878" y="619.202" width="187.1" height="276"/>
    <text font-size="12.8" style="fill: #000000;text-anchor:start;font-family:monospace;font-style:normal;font-weight:normal" x="-472.878" y="633.202">+columnBlob()</text>
    <text font-size="12.8" style="fill: #000000;text-anchor:start;font-family:monospace;font-style:normal;font-weight:normal" x="-472.878" y="649.202">+columnBool()</text>
    <text font-size="12.8" style="fill: #000000;text-anchor:start;font-family:monospace;font-style:normal;font-weight:normal" x="-472.878" y="665.202">+columnDouble()</text>
    <text font-size="12.8" style="fill: #000000;text-anchor:start;font-family:monospace;font-style:normal;font-weight:normal" x="-472.878" y="681.202">+columnString()</text>
    <text font-size="12.8" style="fill: #000000;text-anchor:start;font-family:monospace;font-style:normal;font-weight:normal" x="-472.878" y="697.202">+columnOptionalBool()</text>
    <text font-size="12.8" style="fill: #000000;text-anchor:start;font-family:monospace;font-style:normal;font-weight:normal" x="-472.878" y="713.202">+columnOptionalDouble()</text>
    <text font-size="12.8" style="fill: #000000;text-anchor:start;font-family:monospace;font-style:normal;font-weight:normal" x="-472.878" y="729.202">+columnOptionalString()</text>
    <text font-size="12.8" style="fill: #000000;text-anchor:start;font-family:monospace;font-style:normal;font-weight:normal" x="-472.878" y="745.202">+columnOptionalUint8()</text>
    <text font-size="12.8" style="fill: #000000;text-anchor:start;font-family:monospace;font-style:normal;font-weight:normal" x="-472.878" y="761.202">+columnOptionalUint16()</text>
    <text font-size="12.8" style="fill: #000000;text-anchor:start;font-family:monospace;font-style:normal;font-weight:normal" x="-472.878" y="777.202">+columnOptionalUint32()</text>
    <text font-size="12.8" style="fill: #000000;text-anchor:start;font-family:monospace;font-style:normal;font-weight:normal" x="-472.878" y="793.202">+columnOptionalUint64()</text>
    <text font-size="12.8" style="fill: #000000;text-anchor:start;font-family:monospace;font-style:normal;font-weight:normal" x="-472.878" y="809.202">+columnUint8()</text>
    <text font-size="12.8" style="fill: #000000;text-anchor:start;font-family:monospace;font-style:normal;font-weight:normal" x="-472.878" y="825.202">+columnUint16()</text>
    <text font-size="12.8" style="fill: #000000;text-anchor:start;font-family:monospace;font-style:normal;font-weight:normal" x="-472.878" y="841.202">+columnUint32()</text>
    <text font-size="12.8" style="fill: #000000;text-anchor:start;font-family:monospace;font-style:normal;font-weight:normal" x="-472.878" y="857.202">+columnUint64()</text>
    <text font-size="12.8" style="fill: #000000;text-anchor:start;font-family:monospace;font-style:normal;font-weight:normal" x="-472.878" y="873.202">+isEmpty()</text>
    <text font-size="12.8" style="fill: #000000;text-anchor:start;font-family:monospace;font-style:normal;font-weight:normal" x="-472.878" y="889.202">+next()</text>
  </g>
  <g>
    <polyline style="fill: none; fill-opacity:0; stroke-width: 2; stroke: #000000" points="-383.46,512.822 -383.46,548.012 -383.328,548.012 -383.328,583.202 "/>
    <text font-size="12.7998" style="fill: #000000;text-anchor:middle;font-family:monospace;font-style:normal;font-weight:normal" x="-383.394" y="544.012">Creates</text>
    <polygon style="fill: #000000" points="-354.444,544.012 -354.444,536.012 -346.444,540.012 "/>
    <text font-size="12.7998" style="fill: #000000;text-anchor:start;font-family:monospace;font-style:normal;font-weight:normal" x="-379.46" y="524.822">1</text>
    <text font-size="12.7998" style="fill: #000000;text-anchor:start;font-family:monospace;font-style:normal;font-weight:normal" x="-379.328" y="579.202">0..*</text>
  </g>
  <g>
    <rect style="fill: #ffffff" x="-496.276" y="60.6658" width="225.6" height="28"/>
    <rect style="fill: none; fill-opacity:0; stroke-width: 4; stroke: #000000" x="-496.276" y="60.6658" width="225.6" height="28"/>
    <text font-size="16" style="fill: #000000;text-anchor:middle;font-family:sans-serif;font-style:normal;font-weight:700" x="-383.476" y="79.6658">Conn</text>
    <rect style="fill: #ffffff" x="-496.276" y="88.6658" width="225.6" height="8"/>
    <rect style="fill: none; fill-opacity:0; stroke-width: 4; stroke: #000000" x="-496.276" y="88.6658" width="225.6" height="8"/>
    <rect style="fill: #ffffff" x="-496.276" y="96.6658" width="225.6" height="132"/>
    <rect style="fill: none; fill-opacity:0; stroke-width: 4; stroke: #000000" x="-496.276" y="96.6658" width="225.6" height="132"/>
    <text font-size="12.8" style="fill: #000000;text-anchor:start;font-family:monospace;font-style:normal;font-weight:normal" x="-492.276" y="110.666">+isOpen()</text>
    <text font-size="12.8" style="fill: #000000;text-anchor:start;font-family:monospace;font-style:normal;font-weight:normal" x="-492.276" y="126.666">+close()</text>
    <text font-size="12.8" style="fill: #000000;text-anchor:start;font-family:monospace;font-style:normal;font-weight:normal" x="-492.276" y="142.666">+setAutocommitMode()</text>
    <text font-size="12.8" style="fill: #000000;text-anchor:start;font-family:monospace;font-style:normal;font-weight:normal" x="-492.276" y="158.666">+getAutocommitMode()</text>
    <text font-size="12.8" style="fill: #000000;text-anchor:start;font-family:monospace;font-style:normal;font-weight:normal" x="-492.276" y="174.666">+executeNonQuery(sql:string)</text>
    <text font-size="12.8" style="fill: #000000;text-anchor:start;font-family:monospace;font-style:normal;font-weight:normal" x="-492.276" y="190.666">+createStmt(sql:string)</text>
    <text font-size="12.8" style="fill: #000000;text-anchor:start;font-family:monospace;font-style:normal;font-weight:normal" x="-492.276" y="206.666">+commit()</text>
    <text font-size="12.8" style="fill: #000000;text-anchor:start;font-family:monospace;font-style:normal;font-weight:normal" x="-492.276" y="222.666">+rollback()</text>
  </g>
  <g>
    <rect style="fill: #ffffff" x="437.812" y="156.71" width="143.75" height="28"/>
    <rect style="fill: none; fill-opacity:0; stroke-width: 4; stroke: #000000" x="437.812" y="156.71" width="143.75" height="28"/>
    <text font-size="16" style="fill: #000000;text-anchor:middle;font-family:sans-serif;font-style:normal;font-weight:700" x="509.687" y="175.71">ConnAndStmts</text>
    <rect style="fill: #ffffff" x="437.812" y="184.71" width="143.75" height="8"/>
    <rect style="fill: none; fill-opacity:0; stroke-width: 4; stroke: #000000" x="437.812" y="184.71" width="143.75" height="8"/>
    <rect style="fill: #ffffff" x="437.812" y="192.71" width="143.75" height="8"/>
    <rect style="fill: none; fill-opacity:0; stroke-width: 4; stroke: #000000" x="437.812" y="192.71" width="143.75" height="8"/>
  </g>
  <g>
    <rect style="fill: #ffffff" x="274.491" y="250.74" width="92.7" height="28"/>
    <rect style="fill: none; fill-opacity:0; stroke-width: 4; stroke: #000000" x="274.491" y="250.74" width="92.7" height="28"/>
    <text font-size="16" style="fill: #000000;text-anchor:middle;font-family:sans-serif;font-style:normal;font-weight:700" x="320.841" y="269.74">StmtPool</text>
    <rect style="fill: #ffffff" x="274.491" y="278.74" width="92.7" height="8"/>
    <rect style="fill: none; fill-opacity:0; stroke-width: 4; stroke: #000000" x="274.491" y="278.74" width="92.7" height="8"/>
    <rect style="fill: #ffffff" x="274.491" y="286.74" width="92.7" height="20"/>
    <rect style="fill: none; fill-opacity:0; stroke-width: 4; stroke: #000000" x="274.491" y="286.74" width="92.7" height="20"/>
    <text font-size="12.8" style="fill: #000000;text-anchor:start;font-family:monospace;font-style:normal;font-weight:normal" x="278.491" y="300.74">+getStmt()</text>
  </g>
  <g>
    <rect style="fill: #ffffff" x="211.183" y="407.958" width="219.1" height="28"/>
    <rect style="fill: none; fill-opacity:0; stroke-width: 4; stroke: #000000" x="211.183" y="407.958" width="219.1" height="28"/>
    <text font-size="16" style="fill: #000000;text-anchor:middle;font-family:sans-serif;font-style:normal;font-weight:700" x="320.733" y="426.958">wrapper::StmtWrapper</text>
    <rect style="fill: #ffffff" x="211.183" y="435.958" width="219.1" height="8"/>
    <rect style="fill: none; fill-opacity:0; stroke-width: 4; stroke: #000000" x="211.183" y="435.958" width="219.1" height="8"/>
    <rect style="fill: #ffffff" x="211.183" y="443.958" width="219.1" height="8"/>
    <rect style="fill: none; fill-opacity:0; stroke-width: 4; stroke: #000000" x="211.183" y="443.958" width="219.1" height="8"/>
  </g>
  <g>
    <rect style="fill: #ffffff" x="668.09" y="427.726" width="225.6" height="28"/>
    <rect style="fill: none; fill-opacity:0; stroke-width: 4; stroke: #000000" x="668.09" y="427.726" width="225.6" height="28"/>
    <text font-size="16" style="fill: #000000;text-anchor:middle;font-family:sans-serif;font-style:normal;font-weight:700" x="780.89" y="446.726">wrapper::ConnWrapper</text>
    <rect style="fill: #ffffff" x="668.09" y="455.726" width="225.6" height="8"/>
    <rect style="fill: none; fill-opacity:0; stroke-width: 4; stroke: #000000" x="668.09" y="455.726" width="225.6" height="8"/>
    <rect style="fill: #ffffff" x="668.09" y="463.726" width="225.6" height="132"/>
    <rect style="fill: none; fill-opacity:0; stroke-width: 4; stroke: #000000" x="668.09" y="463.726" width="225.6" height="132"/>
    <text font-size="12.8" style="fill: #000000;text-anchor:start;font-family:monospace;font-style:normal;font-weight:normal" x="672.09" y="477.726">+isOpen()</text>
    <text font-size="12.8" style="fill: #000000;text-anchor:start;font-family:monospace;font-style:normal;font-weight:normal" x="672.09" y="493.726">+close()</text>
    <text font-size="12.8" style="fill: #000000;text-anchor:start;font-family:monospace;font-style:normal;font-weight:normal" x="672.09" y="509.726">+setAutocommitMode()</text>
    <text font-size="12.8" style="fill: #000000;text-anchor:start;font-family:monospace;font-style:normal;font-weight:normal" x="672.09" y="525.726">+getAutocommitMode()</text>
    <text font-size="12.8" style="fill: #000000;text-anchor:start;font-family:monospace;font-style:normal;font-weight:normal" x="672.09" y="541.726">+executeNonQuery(sql:string)</text>
    <text font-size="12.8" style="fill: #000000;text-anchor:start;font-family:monospace;font-style:normal;font-weight:normal" x="672.09" y="557.726">+createStmt(sql:string)</text>
    <text font-size="12.8" style="fill: #000000;text-anchor:start;font-family:monospace;font-style:normal;font-weight:normal" x="672.09" y="573.726">+commit()</text>
    <text font-size="12.8" style="fill: #000000;text-anchor:start;font-family:monospace;font-style:normal;font-weight:normal" x="672.09" y="589.726">+rollback()</text>
  </g>
  <g>
    <polyline style="fill: none; fill-opacity:0; stroke-width: 2; stroke: #000000" points="581.562,225.882 581.562,232.296 780.89,232.296 780.89,427.726 "/>
    <polygon style="fill: #000000" points="581.562,200.71 586.362,214.71 581.562,228.71 576.762,214.71 "/>
    <polygon style="fill: none; fill-opacity:0; stroke-width: 2; stroke: #000000" points="581.562,200.71 586.362,214.71 581.562,228.71 576.762,214.71 "/>
    <text font-size="12.7998" style="fill: #000000;text-anchor:middle;font-family:monospace;font-style:normal;font-weight:normal" x="681.226" y="228.296"/>
    <text font-size="12.7998" style="fill: #000000;text-anchor:start;font-family:monospace;font-style:normal;font-weight:normal" x="592.562" y="212.71">1</text>
    <text font-size="12.7998" style="fill: #000000;text-anchor:start;font-family:monospace;font-style:normal;font-weight:normal" x="784.89" y="423.726">0..1</text>
  </g>
  <g>
    <rect style="fill: #ffffff" x="76.039" y="775.108" width="215.95" height="28"/>
    <rect style="fill: none; fill-opacity:0; stroke-width: 4; stroke: #000000" x="76.039" y="775.108" width="215.95" height="28"/>
    <text font-size="16" style="fill: #000000;text-anchor:middle;font-family:sans-serif;font-style:normal;font-weight:700" x="184.014" y="794.108">wrapper::RsetWrapper</text>
    <rect style="fill: #ffffff" x="76.039" y="803.108" width="215.95" height="8"/>
    <rect style="fill: none; fill-opacity:0; stroke-width: 4; stroke: #000000" x="76.039" y="803.108" width="215.95" height="8"/>
    <rect style="fill: #ffffff" x="76.039" y="811.108" width="215.95" height="8"/>
    <rect style="fill: none; fill-opacity:0; stroke-width: 4; stroke: #000000" x="76.039" y="811.108" width="215.95" height="8"/>
  </g>
  <g>
    <rect style="fill: #ffffff" x="-237.96" y="859.108" width="191.05" height="28"/>
    <rect style="fill: none; fill-opacity:0; stroke-width: 4; stroke: #000000" x="-237.96" y="859.108" width="191.05" height="28"/>
    <text font-size="16" style="fill: #000000;text-anchor:middle;font-family:sans-serif;font-style:normal;font-weight:700" x="-142.435" y="878.108">wrapper::MysqlRset</text>
    <rect style="fill: #ffffff" x="-237.96" y="887.108" width="191.05" height="8"/>
    <rect style="fill: none; fill-opacity:0; stroke-width: 4; stroke: #000000" x="-237.96" y="887.108" width="191.05" height="8"/>
    <rect style="fill: #ffffff" x="-237.96" y="895.108" width="191.05" height="8"/>
    <rect style="fill: none; fill-opacity:0; stroke-width: 4; stroke: #000000" x="-237.96" y="895.108" width="191.05" height="8"/>
  </g>
  <g>
    <rect style="fill: #ffffff" x="-34.961" y="860.108" width="176.35" height="28"/>
    <rect style="fill: none; fill-opacity:0; stroke-width: 4; stroke: #000000" x="-34.961" y="860.108" width="176.35" height="28"/>
    <text font-size="16" style="fill: #000000;text-anchor:middle;font-family:sans-serif;font-style:normal;font-weight:700" x="53.214" y="879.108">wrapper::OcciRset</text>
    <rect style="fill: #ffffff" x="-34.961" y="888.108" width="176.35" height="8"/>
    <rect style="fill: none; fill-opacity:0; stroke-width: 4; stroke: #000000" x="-34.961" y="888.108" width="176.35" height="8"/>
    <rect style="fill: #ffffff" x="-34.961" y="896.108" width="176.35" height="8"/>
    <rect style="fill: none; fill-opacity:0; stroke-width: 4; stroke: #000000" x="-34.961" y="896.108" width="176.35" height="8"/>
  </g>
  <g>
    <rect style="fill: #ffffff" x="152.039" y="860.108" width="217.85" height="28"/>
    <rect style="fill: none; fill-opacity:0; stroke-width: 4; stroke: #000000" x="152.039" y="860.108" width="217.85" height="28"/>
    <text font-size="16" style="fill: #000000;text-anchor:middle;font-family:sans-serif;font-style:normal;font-weight:700" x="260.964" y="879.108">wrapper::PostgresRset</text>
    <rect style="fill: #ffffff" x="152.039" y="888.108" width="217.85" height="8"/>
    <rect style="fill: none; fill-opacity:0; stroke-width: 4; stroke: #000000" x="152.039" y="888.108" width="217.85" height="8"/>
    <rect style="fill: #ffffff" x="152.039" y="896.108" width="217.85" height="8"/>
    <rect style="fill: none; fill-opacity:0; stroke-width: 4; stroke: #000000" x="152.039" y="896.108" width="217.85" height="8"/>
  </g>
  <g>
    <rect style="fill: #ffffff" x="381.04" y="860.108" width="190.7" height="28"/>
    <rect style="fill: none; fill-opacity:0; stroke-width: 4; stroke: #000000" x="381.04" y="860.108" width="190.7" height="28"/>
    <text font-size="16" style="fill: #000000;text-anchor:middle;font-family:sans-serif;font-style:normal;font-weight:700" x="476.39" y="879.108">wrapper::SqliteRset</text>
    <rect style="fill: #ffffff" x="381.04" y="888.108" width="190.7" height="8"/>
    <rect style="fill: none; fill-opacity:0; stroke-width: 4; stroke: #000000" x="381.04" y="888.108" width="190.7" height="8"/>
    <rect style="fill: #ffffff" x="381.04" y="896.108" width="190.7" height="8"/>
    <rect style="fill: none; fill-opacity:0; stroke-width: 4; stroke: #000000" x="381.04" y="896.108" width="190.7" height="8"/>
  </g>
  <g>
    <polyline style="fill: none; fill-opacity:0; stroke-width: 2; stroke: #000000" points="184.014,837.344 184.014,847.108 -142.435,847.108 -142.435,859.108 "/>
    <polygon style="fill: #ffffff" points="192.014,837.344 184.014,821.344 176.014,837.344 "/>
    <polygon style="fill: none; fill-opacity:0; stroke-width: 2; stroke: #000000" points="192.014,837.344 184.014,821.344 176.014,837.344 "/>
  </g>
  <g>
    <polyline style="fill: none; fill-opacity:0; stroke-width: 2; stroke: #000000" points="184.014,837.344 184.014,847.608 260.964,847.608 260.964,860.108 "/>
    <polygon style="fill: #ffffff" points="192.014,837.344 184.014,821.344 176.014,837.344 "/>
    <polygon style="fill: none; fill-opacity:0; stroke-width: 2; stroke: #000000" points="192.014,837.344 184.014,821.344 176.014,837.344 "/>
  </g>
  <g>
    <polyline style="fill: none; fill-opacity:0; stroke-width: 2; stroke: #000000" points="184.014,837.344 184.014,847.608 53.214,847.608 53.214,860.108 "/>
    <polygon style="fill: #ffffff" points="192.014,837.344 184.014,821.344 176.014,837.344 "/>
    <polygon style="fill: none; fill-opacity:0; stroke-width: 2; stroke: #000000" points="192.014,837.344 184.014,821.344 176.014,837.344 "/>
  </g>
  <g>
    <polyline style="fill: none; fill-opacity:0; stroke-width: 2; stroke: #000000" points="184.014,837.344 184.014,847.608 476.39,847.608 476.39,860.108 "/>
    <polygon style="fill: #ffffff" points="192.014,837.344 184.014,821.344 176.014,837.344 "/>
    <polygon style="fill: none; fill-opacity:0; stroke-width: 2; stroke: #000000" points="192.014,837.344 184.014,821.344 176.014,837.344 "/>
  </g>
  <g>
    <rect style="fill: #ffffff" x="408.952" y="-46.4782" width="202.5" height="28"/>
    <rect style="fill: none; fill-opacity:0; stroke-width: 4; stroke: #000000" x="408.952" y="-46.4782" width="202.5" height="28"/>
    <text font-size="16" style="fill: #000000;text-anchor:middle;font-family:sans-serif;font-style:normal;font-weight:700" x="510.202" y="-27.4782">ConnPool</text>
    <rect style="fill: #ffffff" x="408.952" y="-18.4782" width="202.5" height="36"/>
    <rect style="fill: none; fill-opacity:0; stroke-width: 4; stroke: #000000" x="408.952" y="-18.4782" width="202.5" height="36"/>
    <text font-size="12.8" style="fill: #000000;text-anchor:start;font-family:monospace;font-style:normal;font-weight:normal" x="412.952" y="-4.4782">-m_maxNbConns: uint64_t</text>
    <text font-size="12.8" style="fill: #000000;text-anchor:start;font-family:monospace;font-style:normal;font-weight:normal" x="412.952" y="11.5218">-m_nbConnOnLoan: uint64_t</text>
    <rect style="fill: #ffffff" x="408.952" y="17.5218" width="202.5" height="8"/>
    <rect style="fill: none; fill-opacity:0; stroke-width: 4; stroke: #000000" x="408.952" y="17.5218" width="202.5" height="8"/>
  </g>
  <g>
    <polyline style="fill: none; fill-opacity:0; stroke-width: 2; stroke: #000000" points="510.202,50.6934 510.202,98.1159 509.687,98.1159 509.687,156.71 "/>
    <polygon style="fill: #ffffff" points="510.202,25.5218 515.002,39.5218 510.202,53.5218 505.402,39.5218 "/>
    <polygon style="fill: none; fill-opacity:0; stroke-width: 2; stroke: #000000" points="510.202,25.5218 515.002,39.5218 510.202,53.5218 505.402,39.5218 "/>
    <text font-size="12.7998" style="fill: #000000;text-anchor:middle;font-family:monospace;font-style:normal;font-weight:normal" x="509.945" y="94.1159"/>
    <text font-size="12.7998" style="fill: #000000;text-anchor:start;font-family:monospace;font-style:normal;font-weight:normal" x="521.202" y="37.5218">0..1</text>
    <text font-size="12.7998" style="fill: #000000;text-anchor:start;font-family:monospace;font-style:normal;font-weight:normal" x="513.687" y="152.71">0..*</text>
  </g>
  <g>
    <rect style="fill: #ffffff" x="-242.304" y="504.79" width="194.2" height="28"/>
    <rect style="fill: none; fill-opacity:0; stroke-width: 4; stroke: #000000" x="-242.304" y="504.79" width="194.2" height="28"/>
    <text font-size="16" style="fill: #000000;text-anchor:middle;font-family:sans-serif;font-style:normal;font-weight:700" x="-145.204" y="523.79">wrapper::MysqlStmt</text>
    <rect style="fill: #ffffff" x="-242.304" y="532.79" width="194.2" height="8"/>
    <rect style="fill: none; fill-opacity:0; stroke-width: 4; stroke: #000000" x="-242.304" y="532.79" width="194.2" height="8"/>
    <rect style="fill: #ffffff" x="-242.304" y="540.79" width="194.2" height="8"/>
    <rect style="fill: none; fill-opacity:0; stroke-width: 4; stroke: #000000" x="-242.304" y="540.79" width="194.2" height="8"/>
  </g>
  <g>
    <rect style="fill: #ffffff" x="168.696" y="504.79" width="221" height="28"/>
    <rect style="fill: none; fill-opacity:0; stroke-width: 4; stroke: #000000" x="168.696" y="504.79" width="221" height="28"/>
    <text font-size="16" style="fill: #000000;text-anchor:middle;font-family:sans-serif;font-style:normal;font-weight:700" x="279.196" y="523.79">wrapper::PostgresStmt</text>
    <rect style="fill: #ffffff" x="168.696" y="532.79" width="221" height="8"/>
    <rect style="fill: none; fill-opacity:0; stroke-width: 4; stroke: #000000" x="168.696" y="532.79" width="221" height="8"/>
    <rect style="fill: #ffffff" x="168.696" y="540.79" width="221" height="8"/>
    <rect style="fill: none; fill-opacity:0; stroke-width: 4; stroke: #000000" x="168.696" y="540.79" width="221" height="8"/>
  </g>
  <g>
    <rect style="fill: #ffffff" x="-30.3036" y="504.79" width="179.5" height="28"/>
    <rect style="fill: none; fill-opacity:0; stroke-width: 4; stroke: #000000" x="-30.3036" y="504.79" width="179.5" height="28"/>
    <text font-size="16" style="fill: #000000;text-anchor:middle;font-family:sans-serif;font-style:normal;font-weight:700" x="59.4464" y="523.79">wrapper::OcciStmt</text>
    <rect style="fill: #ffffff" x="-30.3036" y="532.79" width="179.5" height="8"/>
    <rect style="fill: none; fill-opacity:0; stroke-width: 4; stroke: #000000" x="-30.3036" y="532.79" width="179.5" height="8"/>
    <rect style="fill: #ffffff" x="-30.3036" y="540.79" width="179.5" height="8"/>
    <rect style="fill: none; fill-opacity:0; stroke-width: 4; stroke: #000000" x="-30.3036" y="540.79" width="179.5" height="8"/>
  </g>
  <g>
    <rect style="fill: #ffffff" x="407.696" y="504.79" width="187.45" height="28"/>
    <rect style="fill: none; fill-opacity:0; stroke-width: 4; stroke: #000000" x="407.696" y="504.79" width="187.45" height="28"/>
    <text font-size="16" style="fill: #000000;text-anchor:middle;font-family:sans-serif;font-style:normal;font-weight:700" x="501.421" y="523.79">wrapper:SqliteStmt</text>
    <rect style="fill: #ffffff" x="407.696" y="532.79" width="187.45" height="8"/>
    <rect style="fill: none; fill-opacity:0; stroke-width: 4; stroke: #000000" x="407.696" y="532.79" width="187.45" height="8"/>
    <rect style="fill: #ffffff" x="407.696" y="540.79" width="187.45" height="8"/>
    <rect style="fill: none; fill-opacity:0; stroke-width: 4; stroke: #000000" x="407.696" y="540.79" width="187.45" height="8"/>
  </g>
  <g>
    <polyline style="fill: none; fill-opacity:0; stroke-width: 2; stroke: #000000" points="320.733,470.194 320.733,486.374 -145.204,486.374 -145.204,504.79 "/>
    <polygon style="fill: #ffffff" points="328.733,470.194 320.733,454.194 312.733,470.194 "/>
    <polygon style="fill: none; fill-opacity:0; stroke-width: 2; stroke: #000000" points="328.733,470.194 320.733,454.194 312.733,470.194 "/>
  </g>
  <g>
    <polyline style="fill: none; fill-opacity:0; stroke-width: 2; stroke: #000000" points="320.733,470.194 320.733,486.374 59.4464,486.374 59.4464,504.79 "/>
    <polygon style="fill: #ffffff" points="328.733,470.194 320.733,454.194 312.733,470.194 "/>
    <polygon style="fill: none; fill-opacity:0; stroke-width: 2; stroke: #000000" points="328.733,470.194 320.733,454.194 312.733,470.194 "/>
  </g>
  <g>
    <polyline style="fill: none; fill-opacity:0; stroke-width: 2; stroke: #000000" points="320.733,470.194 320.733,486.374 279.196,486.374 279.196,504.79 "/>
    <polygon style="fill: #ffffff" points="328.733,470.194 320.733,454.194 312.733,470.194 "/>
    <polygon style="fill: none; fill-opacity:0; stroke-width: 2; stroke: #000000" points="328.733,470.194 320.733,454.194 312.733,470.194 "/>
  </g>
  <g>
    <polyline style="fill: none; fill-opacity:0; stroke-width: 2; stroke: #000000" points="320.733,470.194 320.733,486.374 501.421,486.374 501.421,504.79 "/>
    <polygon style="fill: #ffffff" points="328.733,470.194 320.733,454.194 312.733,470.194 "/>
    <polygon style="fill: none; fill-opacity:0; stroke-width: 2; stroke: #000000" points="328.733,470.194 320.733,454.194 312.733,470.194 "/>
  </g>
  <g>
    <rect style="fill: #ffffff" x="360.82" y="676.638" width="198.3" height="28"/>
    <rect style="fill: none; fill-opacity:0; stroke-width: 4; stroke: #000000" x="360.82" y="676.638" width="198.3" height="28"/>
    <text font-size="16" style="fill: #000000;text-anchor:middle;font-family:sans-serif;font-style:normal;font-weight:700" x="459.97" y="695.638">wrapper::MySqlConn</text>
    <rect style="fill: #ffffff" x="360.82" y="704.638" width="198.3" height="8"/>
    <rect style="fill: none; fill-opacity:0; stroke-width: 4; stroke: #000000" x="360.82" y="704.638" width="198.3" height="8"/>
    <rect style="fill: #ffffff" x="360.82" y="712.638" width="198.3" height="8"/>
    <rect style="fill: none; fill-opacity:0; stroke-width: 4; stroke: #000000" x="360.82" y="712.638" width="198.3" height="8"/>
  </g>
  <g>
    <rect style="fill: #ffffff" x="573.788" y="676.638" width="181.6" height="28"/>
    <rect style="fill: none; fill-opacity:0; stroke-width: 4; stroke: #000000" x="573.788" y="676.638" width="181.6" height="28"/>
    <text font-size="16" style="fill: #000000;text-anchor:middle;font-family:sans-serif;font-style:normal;font-weight:700" x="664.588" y="695.638">wrapper::OcciConn</text>
    <rect style="fill: #ffffff" x="573.788" y="704.638" width="181.6" height="8"/>
    <rect style="fill: none; fill-opacity:0; stroke-width: 4; stroke: #000000" x="573.788" y="704.638" width="181.6" height="8"/>
    <rect style="fill: #ffffff" x="573.788" y="712.638" width="181.6" height="8"/>
    <rect style="fill: none; fill-opacity:0; stroke-width: 4; stroke: #000000" x="573.788" y="712.638" width="181.6" height="8"/>
  </g>
  <g>
    <rect style="fill: #ffffff" x="770.054" y="676.638" width="223.1" height="28"/>
    <rect style="fill: none; fill-opacity:0; stroke-width: 4; stroke: #000000" x="770.054" y="676.638" width="223.1" height="28"/>
    <text font-size="16" style="fill: #000000;text-anchor:middle;font-family:sans-serif;font-style:normal;font-weight:700" x="881.604" y="695.638">wrapper::PostgresConn</text>
    <rect style="fill: #ffffff" x="770.054" y="704.638" width="223.1" height="8"/>
    <rect style="fill: none; fill-opacity:0; stroke-width: 4; stroke: #000000" x="770.054" y="704.638" width="223.1" height="8"/>
    <rect style="fill: #ffffff" x="770.054" y="712.638" width="223.1" height="8"/>
    <rect style="fill: none; fill-opacity:0; stroke-width: 4; stroke: #000000" x="770.054" y="712.638" width="223.1" height="8"/>
  </g>
  <g>
    <rect style="fill: #ffffff" x="1007.82" y="676.638" width="195.95" height="28"/>
    <rect style="fill: none; fill-opacity:0; stroke-width: 4; stroke: #000000" x="1007.82" y="676.638" width="195.95" height="28"/>
    <text font-size="16" style="fill: #000000;text-anchor:middle;font-family:sans-serif;font-style:normal;font-weight:700" x="1105.8" y="695.638">wrapper::SqliteConn</text>
    <rect style="fill: #ffffff" x="1007.82" y="704.638" width="195.95" height="8"/>
    <rect style="fill: none; fill-opacity:0; stroke-width: 4; stroke: #000000" x="1007.82" y="704.638" width="195.95" height="8"/>
    <rect style="fill: #ffffff" x="1007.82" y="712.638" width="195.95" height="8"/>
    <rect style="fill: none; fill-opacity:0; stroke-width: 4; stroke: #000000" x="1007.82" y="712.638" width="195.95" height="8"/>
  </g>
  <g>
    <polyline style="fill: none; fill-opacity:0; stroke-width: 2; stroke: #000000" points="780.89,613.962 780.89,644.182 459.97,644.182 459.97,676.638 "/>
    <polygon style="fill: #ffffff" points="788.89,613.962 780.89,597.962 772.89,613.962 "/>
    <polygon style="fill: none; fill-opacity:0; stroke-width: 2; stroke: #000000" points="788.89,613.962 780.89,597.962 772.89,613.962 "/>
  </g>
  <g>
    <polyline style="fill: none; fill-opacity:0; stroke-width: 2; stroke: #000000" points="780.89,613.962 780.89,644.182 664.588,644.182 664.588,676.638 "/>
    <polygon style="fill: #ffffff" points="788.89,613.962 780.89,597.962 772.89,613.962 "/>
    <polygon style="fill: none; fill-opacity:0; stroke-width: 2; stroke: #000000" points="788.89,613.962 780.89,597.962 772.89,613.962 "/>
  </g>
  <g>
    <polyline style="fill: none; fill-opacity:0; stroke-width: 2; stroke: #000000" points="780.89,613.962 780.89,644.182 881.604,644.182 881.604,676.638 "/>
    <polygon style="fill: #ffffff" points="788.89,613.962 780.89,597.962 772.89,613.962 "/>
    <polygon style="fill: none; fill-opacity:0; stroke-width: 2; stroke: #000000" points="788.89,613.962 780.89,597.962 772.89,613.962 "/>
  </g>
  <g>
    <polyline style="fill: none; fill-opacity:0; stroke-width: 2; stroke: #000000" points="780.89,613.962 780.89,644.182 1105.8,644.182 1105.8,676.638 "/>
    <polygon style="fill: #ffffff" points="788.89,613.962 780.89,597.962 772.89,613.962 "/>
    <polygon style="fill: none; fill-opacity:0; stroke-width: 2; stroke: #000000" points="788.89,613.962 780.89,597.962 772.89,613.962 "/>
  </g>
  <g>
    <polyline style="fill: none; fill-opacity:0; stroke-width: 2; stroke: #000000" points="-383.476,228.666 -383.476,270.744 -383.46,270.744 -383.46,312.822 "/>
    <text font-size="12.7998" style="fill: #000000;text-anchor:middle;font-family:monospace;font-style:normal;font-weight:normal" x="-383.468" y="266.744">creates</text>
    <polygon style="fill: #000000" points="-354.518,266.744 -354.518,258.744 -346.518,262.744 "/>
    <text font-size="12.7998" style="fill: #000000;text-anchor:start;font-family:monospace;font-style:normal;font-weight:normal" x="-379.476" y="240.666">1</text>
    <text font-size="12.7998" style="fill: #000000;text-anchor:start;font-family:monospace;font-style:normal;font-weight:normal" x="-379.46" y="308.822">0..1</text>
  </g>
  <g>
    <polyline style="fill: none; fill-opacity:0; stroke-width: 2; stroke: #000000" points="-245.504,170.666 90.568,170.666 90.568,170.71 437.812,170.71 "/>
    <polygon style="fill: #ffffff" points="-270.676,170.666 -256.676,165.866 -242.676,170.666 -256.676,175.466 "/>
    <polygon style="fill: none; fill-opacity:0; stroke-width: 2; stroke: #000000" points="-270.676,170.666 -256.676,165.866 -242.676,170.666 -256.676,175.466 "/>
    <text font-size="12.7998" style="fill: #000000;text-anchor:start;font-family:monospace;font-style:normal;font-weight:normal" x="92.568" y="166.688"/>
    <text font-size="12.7998" style="fill: #000000;text-anchor:start;font-family:monospace;font-style:normal;font-weight:normal" x="-238.676" y="166.666">0..1</text>
    <text font-size="12.7998" style="fill: #000000;text-anchor:end;font-family:monospace;font-style:normal;font-weight:normal" x="433.812" y="166.71">0..1</text>
  </g>
  <g>
    <polyline style="fill: none; fill-opacity:0; stroke-width: 2; stroke: #000000" points="408.952,-8.4782 -383.476,-8.4782 -383.476,60.6658 "/>
    <text font-size="12.7998" style="fill: #000000;text-anchor:middle;font-family:monospace;font-style:normal;font-weight:normal" x="12.738" y="-12.4782">creates</text>
    <polygon style="fill: #000000" points="-18.212,-12.4782 -18.212,-20.4782 -26.212,-16.4782 "/>
    <text font-size="12.7998" style="fill: #000000;text-anchor:end;font-family:monospace;font-style:normal;font-weight:normal" x="404.952" y="-12.4782">1</text>
    <text font-size="12.7998" style="fill: #000000;text-anchor:start;font-family:monospace;font-style:normal;font-weight:normal" x="-379.476" y="56.6658">0..1</text>
  </g>
  <g>
    <polygon style="fill: #ffffff" points="31.1026,52.6814 414.403,52.6814 426.403,64.6814 426.403,118.681 31.1026,118.681 "/>
    <polygon style="fill: none; fill-opacity:0; stroke-width: 2.35099e-37; stroke: #000000" points="31.1026,52.6814 414.403,52.6814 426.403,64.6814 426.403,118.681 31.1026,118.681 "/>
    <polyline style="fill: none; fill-opacity:0; stroke-width: 1.17549e-37; stroke: #000000" points="414.403,52.6814 414.403,64.6814 426.403,64.6814 "/>
    <text font-size="12.8" style="fill: #000000;text-anchor:start;font-family:monospace;font-style:normal;font-weight:normal" x="37.1026" y="76.5814">
      <tspan x="37.1026" y="76.5814">At any single point in time a ConnAndStmt is</tspan>
      <tspan x="37.1026" y="92.5814">exclusively owned by either a ConnPool or a Conn.</tspan>
      <tspan x="37.1026" y="108.581">In other words a ConnAndStmt is loaned to a Conn.</tspan>
    </text>
  </g>
  <line style="fill: none; fill-opacity:0; stroke-width: 2.35099e-37; stroke-dasharray: 4; stroke: #000000" x1="437.224" y1="154.715" x2="328.376" y2="118.671"/>
  <g>
    <polyline style="fill: none; fill-opacity:0; stroke-width: 2; stroke: #000000" points="-264.606,789.202 -99.8695,789.202 -99.8695,789.108 76.039,789.108 "/>
    <polygon style="fill: #ffffff" points="-289.778,789.202 -275.778,784.402 -261.778,789.202 -275.778,794.002 "/>
    <polygon style="fill: none; fill-opacity:0; stroke-width: 2; stroke: #000000" points="-289.778,789.202 -275.778,784.402 -261.778,789.202 -275.778,794.002 "/>
    <text font-size="12.7998" style="fill: #000000;text-anchor:start;font-family:monospace;font-style:normal;font-weight:normal" x="-97.8695" y="785.155"/>
    <text font-size="12.7998" style="fill: #000000;text-anchor:start;font-family:monospace;font-style:normal;font-weight:normal" x="-257.778" y="785.202"/>
    <text font-size="12.7998" style="fill: #000000;text-anchor:end;font-family:monospace;font-style:normal;font-weight:normal" x="72.039" y="785.108"/>
  </g>
  <g>
    <polyline style="fill: none; fill-opacity:0; stroke-width: 2; stroke: #000000" points="320.841,331.912 320.841,364.349 320.733,364.349 320.733,407.958 "/>
    <polygon style="fill: #ffffff" points="320.841,306.74 325.641,320.74 320.841,334.74 316.041,320.74 "/>
    <polygon style="fill: none; fill-opacity:0; stroke-width: 2; stroke: #000000" points="320.841,306.74 325.641,320.74 320.841,334.74 316.041,320.74 "/>
    <text font-size="12.7998" style="fill: #000000;text-anchor:middle;font-family:monospace;font-style:normal;font-weight:normal" x="320.787" y="360.349"/>
    <text font-size="12.7998" style="fill: #000000;text-anchor:start;font-family:monospace;font-style:normal;font-weight:normal" x="331.841" y="318.74">1</text>
    <text font-size="12.7998" style="fill: #000000;text-anchor:start;font-family:monospace;font-style:normal;font-weight:normal" x="324.733" y="403.958">0..1</text>
  </g>
  <g>
    <polygon style="fill: #ffffff" points="-38.088,214.962 237.412,214.962 249.412,226.962 249.412,328.962 -38.088,328.962 "/>
    <polygon style="fill: none; fill-opacity:0; stroke-width: 2.35099e-37; stroke: #000000" points="-38.088,214.962 237.412,214.962 249.412,226.962 249.412,328.962 -38.088,328.962 "/>
    <polyline style="fill: none; fill-opacity:0; stroke-width: 1.17549e-37; stroke: #000000" points="237.412,214.962 237.412,226.962 249.412,226.962 "/>
    <text font-size="12.8" style="fill: #000000;text-anchor:start;font-family:monospace;font-style:normal;font-weight:normal" x="-32.088" y="238.862">
      <tspan x="-32.088" y="238.862">At any single point in time a</tspan>
      <tspan x="-32.088" y="254.862">wrapper::StmtWrapper is exclusively</tspan>
      <tspan x="-32.088" y="270.862">owned by either a StmtPool or a</tspan>
      <tspan x="-32.088" y="286.862">Stmt. In other words a</tspan>
      <tspan x="-32.088" y="302.862">wrapper::StmtWrapper is loaned to a</tspan>
      <tspan x="-32.088" y="318.862">Stmt.</tspan>
    </text>
  </g>
  <g>
    <polyline style="fill: none; fill-opacity:0; stroke-width: 2; stroke: #000000" points="-272.438,422.822 -36.2133,422.822 -36.2133,421.958 211.183,421.958 "/>
    <polygon style="fill: #ffffff" points="-297.61,422.822 -283.61,418.022 -269.61,422.822 -283.61,427.622 "/>
    <polygon style="fill: none; fill-opacity:0; stroke-width: 2; stroke: #000000" points="-297.61,422.822 -283.61,418.022 -269.61,422.822 -283.61,427.622 "/>
    <text font-size="12.7998" style="fill: #000000;text-anchor:start;font-family:monospace;font-style:normal;font-weight:normal" x="-34.2133" y="418.39"/>
    <text font-size="12.7998" style="fill: #000000;text-anchor:start;font-family:monospace;font-style:normal;font-weight:normal" x="-265.61" y="418.822">1</text>
    <text font-size="12.7998" style="fill: #000000;text-anchor:end;font-family:monospace;font-style:normal;font-weight:normal" x="207.183" y="417.958">0..1</text>
  </g>
  <g>
    <polyline style="fill: none; fill-opacity:0; stroke-width: 2; stroke: #000000" points="437.812,225.882 437.812,232.725 320.841,232.725 320.841,250.74 "/>
    <polygon style="fill: #000000" points="437.812,200.71 442.612,214.71 437.812,228.71 433.012,214.71 "/>
    <polygon style="fill: none; fill-opacity:0; stroke-width: 2; stroke: #000000" points="437.812,200.71 442.612,214.71 437.812,228.71 433.012,214.71 "/>
    <text font-size="12.7998" style="fill: #000000;text-anchor:middle;font-family:monospace;font-style:normal;font-weight:normal" x="379.326" y="228.725"/>
    <text font-size="12.7998" style="fill: #000000;text-anchor:start;font-family:monospace;font-style:normal;font-weight:normal" x="448.812" y="212.71">1</text>
    <text font-size="12.7998" style="fill: #000000;text-anchor:start;font-family:monospace;font-style:normal;font-weight:normal" x="324.841" y="246.74">0..1</text>
  </g>
  <line style="fill: none; fill-opacity:0; stroke-width: 0.02; stroke-dasharray: 4; stroke: #000000" x1="183.216" y1="328.935" x2="288.061" y2="405.956"/>
  <g>
    <polygon style="fill: #ffffff" points="663.506,-48.5764 954.406,-48.5764 966.406,-36.5764 966.406,17.4236 663.506,17.4236 "/>
    <polygon style="fill: none; fill-opacity:0; stroke-width: 0.02; stroke: #000000" points="663.506,-48.5764 954.406,-48.5764 966.406,-36.5764 966.406,17.4236 663.506,17.4236 "/>
    <polyline style="fill: none; fill-opacity:0; stroke-width: 0.02; stroke: #000000" points="954.406,-48.5764 954.406,-36.5764 966.406,-36.5764 "/>
    <text font-size="12.8" style="fill: #000000;text-anchor:start;font-family:monospace;font-style:normal;font-weight:normal" x="669.506" y="-24.6764">
      <tspan x="669.506" y="-24.6764">The rdbms layer provides support for</tspan>
      <tspan x="669.506" y="-8.6764">connection pools independently of the</tspan>
      <tspan x="669.506" y="7.3236">underlying database client library.</tspan>
    </text>
  </g>
  <line style="fill: none; fill-opacity:0; stroke-width: 0.02; stroke-dasharray: 4; stroke: #000000" x1="663.5" y1="-13.0427" x2="613.445" y2="-12.2053"/>
  <g>
    <polygon style="fill: #ffffff" points="436.374,267.86 627.174,267.86 639.174,279.86 639.174,333.86 436.374,333.86 "/>
    <polygon style="fill: none; fill-opacity:0; stroke-width: 0.02; stroke: #000000" points="436.374,267.86 627.174,267.86 639.174,279.86 639.174,333.86 436.374,333.86 "/>
    <polyline style="fill: none; fill-opacity:0; stroke-width: 0.02; stroke: #000000" points="627.174,267.86 627.174,279.86 639.174,279.86 "/>
    <text font-size="12.8" style="fill: #000000;text-anchor:start;font-family:monospace;font-style:normal;font-weight:normal" x="442.374" y="291.76">
      <tspan x="442.374" y="291.76">The rdbms layer supports</tspan>
      <tspan x="442.374" y="307.76">pools/caches of prepared</tspan>
      <tspan x="442.374" y="323.76">statements.</tspan>
    </text>
  </g>
  <line style="fill: none; fill-opacity:0; stroke-width: 0.02; stroke-dasharray: 4; stroke: #000000" x1="369.169" y1="283.668" x2="436.371" y2="290.52"/>
  <g>
    <polygon style="fill: #ffffff" points="929.234,453.964 1150.83,453.964 1162.83,465.964 1162.83,519.964 929.234,519.964 "/>
    <polygon style="fill: none; fill-opacity:0; stroke-width: 0.02; stroke: #000000" points="929.234,453.964 1150.83,453.964 1162.83,465.964 1162.83,519.964 929.234,519.964 "/>
    <polyline style="fill: none; fill-opacity:0; stroke-width: 0.02; stroke: #000000" points="1150.83,453.964 1150.83,465.964 1162.83,465.964 "/>
    <text font-size="12.8" style="fill: #000000;text-anchor:start;font-family:monospace;font-style:normal;font-weight:normal" x="935.234" y="477.864">
      <tspan x="935.234" y="477.864">Auto commit is on by default</tspan>
      <tspan x="935.234" y="493.864">no matter the underlying</tspan>
      <tspan x="935.234" y="509.864">type of database.</tspan>
    </text>
  </g>
  <line style="fill: none; fill-opacity:0; stroke-width: 0.02; stroke-dasharray: 4; stroke: #000000" x1="895.677" y1="501.006" x2="929.241" y2="497.871"/>
  <text font-size="12.8" style="fill: #000000;text-anchor:start;font-family:sans-serif;font-style:normal;font-weight:normal" x="-121.281" y="646.718">
    <tspan x="-121.281" y="646.718">The classes within the rdbms::wrapper namespace hide the</tspan>
    <tspan x="-121.281" y="662.718">implementation details of the underlying database client APIs</tspan>
    <tspan x="-121.281" y="678.718">from the classes directly within the rdbms namespace.</tspan>
  </text>
  <text font-size="12.8" style="fill: #000000;text-anchor:start;font-family:sans-serif;font-style:normal;font-weight:normal" x="-252.08" y="398.89">
    <tspan x="-252.08" y="398.89">The rdbms::wrapper namespace</tspan>
  </text>
  <text font-size="12.8" style="fill: #000000;text-anchor:start;font-family:sans-serif;font-style:normal;font-weight:normal" x="841.824" y="292.924">
    <tspan x="841.824" y="292.924">All of the classes on the outside of the grey rectangle are</tspan>
    <tspan x="841.824" y="308.924">direct members of the rdbms namespace and all those</tspan>
    <tspan x="841.824" y="324.924">on the inside are members of the rdbms::wrapper</tspan>
    <tspan x="841.824" y="340.924">namespace.  The namespace name rdbms is implicit in</tspan>
    <tspan x="841.824" y="356.924">order not to clutter this diagram.</tspan>
  </text>
  <g>
    <polygon style="fill: #ffffff" points="-276.276,261.424 -100.876,261.424 -88.876,273.424 -88.876,327.424 -276.276,327.424 "/>
    <polygon style="fill: none; fill-opacity:0; stroke-width: 0.02; stroke: #000000" points="-276.276,261.424 -100.876,261.424 -88.876,273.424 -88.876,327.424 -276.276,327.424 "/>
    <polyline style="fill: none; fill-opacity:0; stroke-width: 0.02; stroke: #000000" points="-100.876,261.424 -100.876,273.424 -88.876,273.424 "/>
    <text font-size="12.7998" style="fill: #000000;text-anchor:start;font-family:monospace;font-style:normal;font-weight:normal" x="-270.276" y="285.324">
      <tspan x="-270.276" y="285.324">Destructor returns the</tspan>
      <tspan x="-270.276" y="301.324">wrapper::StmtWrapper</tspan>
      <tspan x="-270.276" y="317.324">back to its StmtPool.</tspan>
    </text>
  </g>
  <g>
    <polygon style="fill: #ffffff" points="-214.276,16.4236 -38.876,16.4236 -26.876,28.4236 -26.876,82.4236 -214.276,82.4236 "/>
    <polygon style="fill: none; fill-opacity:0; stroke-width: 0.02; stroke: #000000" points="-214.276,16.4236 -38.876,16.4236 -26.876,28.4236 -26.876,82.4236 -214.276,82.4236 "/>
    <polyline style="fill: none; fill-opacity:0; stroke-width: 0.02; stroke: #000000" points="-38.876,16.4236 -38.876,28.4236 -26.876,28.4236 "/>
    <text font-size="12.7998" style="fill: #000000;text-anchor:start;font-family:monospace;font-style:normal;font-weight:normal" x="-208.276" y="40.3236">
      <tspan x="-208.276" y="40.3236">Destructor returns the</tspan>
      <tspan x="-208.276" y="56.3236">wrapper::ConnWrapper</tspan>
      <tspan x="-208.276" y="72.3236">back to its ConnPool.</tspan>
    </text>
  </g>
  <line style="fill: none; fill-opacity:0; stroke-width: 0.02; stroke-dasharray: 4; stroke: #000000" x1="-211.59" y1="82.3956" x2="-268.674" y2="103.076"/>
  <line style="fill: none; fill-opacity:0; stroke-width: 0.02; stroke-dasharray: 4; stroke: #000000" x1="-238.535" y1="327.405" x2="-295.61" y2="361.044"/>
</svg>
