<?xml version="1.0" encoding="ISO-8859-1" standalone="no"?>
<!DOCTYPE svg PUBLIC "-//W3C//DTD SVG 1.1//EN" "http://www.w3.org/Graphics/SVG/1.1/DTD/svg11.dtd">
<svg version="1.1" baseProfile="full" id="body" width="8in" height="8in" viewBox="0 0 1 1" preserveAspectRatio="none" xmlns="http://www.w3.org/2000/svg" xmlns:xlink="http://www.w3.org/1999/xlink" xmlns:ev="http://www.w3.org/2001/xml-events">
<title>SVG drawing</title>
<desc>This was produced by version 4.4 of GNU libplot, a free library for exporting 2-D vector graphics.</desc>
<rect id="background" x="0" y="0" width="1" height="1" stroke="none" fill="white"/>
<g id="content" transform="translate(0.096538,-0.17782) scale(1,-1) scale(0.064554) " xml:space="preserve" stroke="black" stroke-linecap="butt" stroke-linejoin="miter" stroke-miterlimit="10.433" stroke-dasharray="none" stroke-dashoffset="0" stroke-opacity="1" fill="none" fill-rule="evenodd" fill-opacity="1" font-style="normal" font-variant="normal" font-weight="normal" font-stretch="normal" font-size-adjust="none" letter-spacing="normal" word-spacing="normal" text-anchor="start">
<rect x="0" y="-0.15" width="0.75" height="0.3" stroke-width="0.018225" />
<text transform="translate(-0.12577,-0.094936) scale(1,-1) scale(0.013447) " font-family="Helvetica,sans-serif" font-size="20px" stroke="none" fill="black" >gateway</text>
<line x1="0.1" y1="-0.07" x2="0.65" y2="-0.07" stroke-width="0.018225" />
<rect x="1.25" y="-0.15" width="0.75" height="0.3" stroke-width="0.018225" />
<text transform="translate(0.9747,-0.094936) scale(1,-1) scale(0.013447) " font-family="Helvetica,sans-serif" font-size="20px" stroke="none" fill="black" >aggregator</text>
<line x1="1.35" y1="-0.07" x2="1.9" y2="-0.07" stroke-width="0.018225" />
<rect x="2.5" y="-0.15" width="0.75" height="0.3" stroke-width="0.018225" />
<text transform="translate(2.5462,-0.094936) scale(1,-1) scale(0.013447) " font-family="Helvetica,sans-serif" font-size="20px" stroke="none" fill="black" >vdqm</text>
<line x1="2.6" y1="-0.07" x2="3.15" y2="-0.07" stroke-width="0.018225" />
<rect x="3.75" y="-0.15" width="0.75" height="0.3" stroke-width="0.018225" />
<text transform="translate(3.8261,-0.094936) scale(1,-1) scale(0.013447) " font-family="Helvetica,sans-serif" font-size="20px" stroke="none" fill="black" >rtcpd</text>
<line x1="3.85" y1="-0.07" x2="4.4" y2="-0.07" stroke-width="0.018225" />
<line x1="0.375" y1="-0.15" x2="0.375" y2="-0.25" stroke-width="0.018225" stroke-dasharray="0.05, 0.05"/>
<line x1="0.325" y1="-0.25" x2="0.425" y2="-0.25" stroke-width="0.018225" />
<line x1="0.435" y1="-0.5" x2="2.815" y2="-0.5" stroke-width="0.018225" />
<polygon points="2.715,-0.475 2.815,-0.5 2.715,-0.525 " stroke-width="0.018225" fill="black" />
<text transform="translate(1.1541,-0.43357) scale(1,-1) scale(0.013447) " font-family="Helvetica,sans-serif" font-size="20px" stroke="none" fill="black" >connect</text>
<text transform="translate(1.5876,-0.7563) scale(1,-1) scale(0.013447) " font-family="Helvetica,sans-serif" font-size="20px" stroke="none" fill="black" > </text>
<line x1="2.875" y1="-0.15" x2="2.875" y2="-0.5" stroke-width="0.018225" stroke-dasharray="0.05, 0.05"/>
<line x1="2.825" y1="-0.5" x2="2.925" y2="-0.5" stroke-width="0.018225" />
<line x1="0.435" y1="-0.75" x2="2.815" y2="-0.75" stroke-width="0.018225" />
<polygon points="2.715,-0.725 2.815,-0.75 2.715,-0.775 " stroke-width="0.018225" fill="black" />
<text transform="translate(0.70577,-0.68357) scale(1,-1) scale(0.013447) " font-family="Helvetica,sans-serif" font-size="20px" stroke="none" fill="black" >volume request</text>
<text transform="translate(1.5876,-1.0063) scale(1,-1) scale(0.013447) " font-family="Helvetica,sans-serif" font-size="20px" stroke="none" fill="black" > </text>
<line x1="2.815" y1="-1" x2="0.435" y2="-1" stroke-width="0.018225" />
<polygon points="0.535,-1.025 0.435,-1 0.535,-0.975 " stroke-width="0.018225" fill="black" />
<text transform="translate(1.4158,-0.93357) scale(1,-1) scale(0.013447) " font-family="Helvetica,sans-serif" font-size="20px" stroke="none" fill="black" >ack</text>
<text transform="translate(1.5876,-1.2563) scale(1,-1) scale(0.013447) " font-family="Helvetica,sans-serif" font-size="20px" stroke="none" fill="black" > </text>
<line x1="2.815" y1="-1.25" x2="0.435" y2="-1.25" stroke-width="0.018225" />
<polygon points="0.535,-1.275 0.435,-1.25 0.535,-1.225 " stroke-width="0.018225" fill="black" />
<text transform="translate(1.0721,-1.1836) scale(1,-1) scale(0.013447) " font-family="Helvetica,sans-serif" font-size="20px" stroke="none" fill="black" >volReqID</text>
<text transform="translate(1.5876,-1.5063) scale(1,-1) scale(0.013447) " font-family="Helvetica,sans-serif" font-size="20px" stroke="none" fill="black" > </text>
<line x1="0.435" y1="-1.5" x2="2.815" y2="-1.5" stroke-width="0.018225" />
<polygon points="2.715,-1.475 2.815,-1.5 2.715,-1.525 " stroke-width="0.018225" fill="black" />
<text transform="translate(1.4158,-1.4336) scale(1,-1) scale(0.013447) " font-family="Helvetica,sans-serif" font-size="20px" stroke="none" fill="black" >ack</text>
<text transform="translate(1.5876,-1.7563) scale(1,-1) scale(0.013447) " font-family="Helvetica,sans-serif" font-size="20px" stroke="none" fill="black" > </text>
<line x1="0.435" y1="-1.75" x2="2.815" y2="-1.75" stroke-width="0.018225" />
<polygon points="2.715,-1.725 2.815,-1.75 2.715,-1.775 " stroke-width="0.018225" fill="black" />
<text transform="translate(0.98223,-1.6836) scale(1,-1) scale(0.013447) " font-family="Helvetica,sans-serif" font-size="20px" stroke="none" fill="black" >disconnect</text>
<text transform="translate(1.5876,-2.0063) scale(1,-1) scale(0.013447) " font-family="Helvetica,sans-serif" font-size="20px" stroke="none" fill="black" > </text>
<line x1="2.825" y1="-0.5" x2="2.825" y2="-1.75" stroke-width="0.018225" />
<line x1="2.925" y1="-0.5" x2="2.925" y2="-1.75" stroke-width="0.018225" />
<line x1="2.825" y1="-1.75" x2="2.925" y2="-1.75" stroke-width="0.018225" />
<line x1="2.875" y1="-1.75" x2="2.875" y2="-2" stroke-width="0.018225" stroke-dasharray="0.05, 0.05"/>
<line x1="2.825" y1="-2" x2="2.925" y2="-2" stroke-width="0.018225" />
<line x1="2.935" y1="-2.25" x2="4.065" y2="-2.25" stroke-width="0.018225" />
<polygon points="3.965,-2.225 4.065,-2.25 3.965,-2.275 " stroke-width="0.018225" fill="black" />
<text transform="translate(3.0291,-2.1836) scale(1,-1) scale(0.013447) " font-family="Helvetica,sans-serif" font-size="20px" stroke="none" fill="black" >connect</text>
<text transform="translate(3.4626,-2.5063) scale(1,-1) scale(0.013447) " font-family="Helvetica,sans-serif" font-size="20px" stroke="none" fill="black" > </text>
<line x1="4.125" y1="-0.15" x2="4.125" y2="-2.25" stroke-width="0.018225" stroke-dasharray="0.05, 0.05"/>
<line x1="4.075" y1="-2.25" x2="4.175" y2="-2.25" stroke-width="0.018225" />
<line x1="4.185" y1="-2.5" x2="4.9925" y2="-2.5" stroke-width="0.018225" />
<polygon points="4.8925,-2.475 4.9925,-2.5 4.8925,-2.525 " stroke-width="0.018225" fill="black" />
<text transform="translate(4.0655,-2.4336) scale(1,-1) scale(0.013447) " font-family="Helvetica,sans-serif" font-size="20px" stroke="none" fill="black" >첽reate</text>
<text transform="translate(4.5514,-2.7563) scale(1,-1) scale(0.013447) " font-family="Helvetica,sans-serif" font-size="20px" stroke="none" fill="black" > </text>
<rect x="4.9925" y="-2.65" width="0.75" height="0.3" stroke-width="0.018225" />
<text transform="translate(4.8295,-2.5949) scale(1,-1) scale(0.013447) " font-family="Helvetica,sans-serif" font-size="20px" stroke="none" fill="black" >main cntl</text>
<line x1="5.0925" y1="-2.57" x2="5.6425" y2="-2.57" stroke-width="0.018225" />
<line x1="5.375" y1="-2.65" x2="5.375" y2="-2.775" stroke-width="0.018225" stroke-dasharray="0.05, 0.05"/>
<line x1="5.325" y1="-2.775" x2="5.425" y2="-2.775" stroke-width="0.018225" />
<line x1="4.075" y1="-2.25" x2="4.075" y2="-2.775" stroke-width="0.018225" />
<line x1="4.175" y1="-2.25" x2="4.175" y2="-2.775" stroke-width="0.018225" />
<line x1="4.075" y1="-2.775" x2="4.175" y2="-2.775" stroke-width="0.018225" />
<line x1="2.935" y1="-3.025" x2="5.315" y2="-3.025" stroke-width="0.018225" />
<polygon points="5.215,-3 5.315,-3.025 5.215,-3.05 " stroke-width="0.018225" fill="black" />
<text transform="translate(3.2243,-2.9586) scale(1,-1) scale(0.013447) " font-family="Helvetica,sans-serif" font-size="20px" stroke="none" fill="black" >ClientInfo - job</text>
<text transform="translate(4.0876,-3.2813) scale(1,-1) scale(0.013447) " font-family="Helvetica,sans-serif" font-size="20px" stroke="none" fill="black" > </text>
<line x1="5.315" y1="-3.275" x2="2.935" y2="-3.275" stroke-width="0.018225" />
<polygon points="3.035,-3.3 2.935,-3.275 3.035,-3.25 " stroke-width="0.018225" fill="black" />
<text transform="translate(3.3254,-3.2086) scale(1,-1) scale(0.013447) " font-family="Helvetica,sans-serif" font-size="20px" stroke="none" fill="black" >RcpJobReply</text>
<text transform="translate(4.0876,-3.5313) scale(1,-1) scale(0.013447) " font-family="Helvetica,sans-serif" font-size="20px" stroke="none" fill="black" > </text>
<line x1="5.315" y1="-3.525" x2="2.935" y2="-3.525" stroke-width="0.018225" />
<polygon points="3.035,-3.55 2.935,-3.525 3.035,-3.5 " stroke-width="0.018225" fill="black" />
<text transform="translate(3.4822,-3.4586) scale(1,-1) scale(0.013447) " font-family="Helvetica,sans-serif" font-size="20px" stroke="none" fill="black" >disconnect</text>
<text transform="translate(4.0876,-3.7813) scale(1,-1) scale(0.013447) " font-family="Helvetica,sans-serif" font-size="20px" stroke="none" fill="black" > </text>
<line x1="2.825" y1="-2" x2="2.825" y2="-3.525" stroke-width="0.018225" />
<line x1="2.925" y1="-2" x2="2.925" y2="-3.525" stroke-width="0.018225" />
<line x1="2.825" y1="-3.525" x2="2.925" y2="-3.525" stroke-width="0.018225" />
<line x1="1.625" y1="-0.15" x2="1.625" y2="-3.775" stroke-width="0.018225" stroke-dasharray="0.05, 0.05"/>
<line x1="1.575" y1="-3.775" x2="1.675" y2="-3.775" stroke-width="0.018225" />
<line x1="5.315" y1="-4.025" x2="1.685" y2="-4.025" stroke-width="0.018225" />
<polygon points="1.785,-4.05 1.685,-4.025 1.785,-4 " stroke-width="0.018225" fill="black" />
<text transform="translate(3.0291,-3.9586) scale(1,-1) scale(0.013447) " font-family="Helvetica,sans-serif" font-size="20px" stroke="none" fill="black" >connect</text>
<text transform="translate(3.4626,-4.2813) scale(1,-1) scale(0.013447) " font-family="Helvetica,sans-serif" font-size="20px" stroke="none" fill="black" > </text>
<line x1="1.685" y1="-4.275" x2="5.315" y2="-4.275" stroke-width="0.018225" />
<polygon points="5.215,-4.25 5.315,-4.275 5.215,-4.3 " stroke-width="0.018225" fill="black" />
<text transform="translate(2.5432,-4.2086) scale(1,-1) scale(0.013447) " font-family="Helvetica,sans-serif" font-size="20px" stroke="none" fill="black" >request ReqInfo</text>
<text transform="translate(3.4626,-4.5313) scale(1,-1) scale(0.013447) " font-family="Helvetica,sans-serif" font-size="20px" stroke="none" fill="black" > </text>
<line x1="5.315" y1="-4.525" x2="1.685" y2="-4.525" stroke-width="0.018225" />
<polygon points="1.785,-4.55 1.685,-4.525 1.785,-4.5 " stroke-width="0.018225" fill="black" />
<text transform="translate(3.2908,-4.4586) scale(1,-1) scale(0.013447) " font-family="Helvetica,sans-serif" font-size="20px" stroke="none" fill="black" >ack</text>
<text transform="translate(3.4626,-4.7813) scale(1,-1) scale(0.013447) " font-family="Helvetica,sans-serif" font-size="20px" stroke="none" fill="black" > </text>
<line x1="5.315" y1="-4.775" x2="1.685" y2="-4.775" stroke-width="0.018225" />
<polygon points="1.785,-4.8 1.685,-4.775 1.785,-4.75 " stroke-width="0.018225" fill="black" />
<text transform="translate(3.0291,-4.7086) scale(1,-1) scale(0.013447) " font-family="Helvetica,sans-serif" font-size="20px" stroke="none" fill="black" >ReqInfo</text>
<text transform="translate(3.4626,-5.0313) scale(1,-1) scale(0.013447) " font-family="Helvetica,sans-serif" font-size="20px" stroke="none" fill="black" > </text>
<line x1="1.685" y1="-5.025" x2="5.315" y2="-5.025" stroke-width="0.018225" />
<polygon points="5.215,-5 5.315,-5.025 5.215,-5.05 " stroke-width="0.018225" fill="black" />
<text transform="translate(3.2908,-4.9586) scale(1,-1) scale(0.013447) " font-family="Helvetica,sans-serif" font-size="20px" stroke="none" fill="black" >ack</text>
<text transform="translate(3.4626,-5.2813) scale(1,-1) scale(0.013447) " font-family="Helvetica,sans-serif" font-size="20px" stroke="none" fill="black" > </text>
<line x1="1.565" y1="-5.275" x2="0.435" y2="-5.275" stroke-width="0.018225" />
<polygon points="0.535,-5.3 0.435,-5.275 0.535,-5.25 " stroke-width="0.018225" fill="black" />
<text transform="translate(0.52909,-5.2086) scale(1,-1) scale(0.013447) " font-family="Helvetica,sans-serif" font-size="20px" stroke="none" fill="black" >connect</text>
<text transform="translate(0.96262,-5.5313) scale(1,-1) scale(0.013447) " font-family="Helvetica,sans-serif" font-size="20px" stroke="none" fill="black" > </text>
<line x1="1.565" y1="-5.525" x2="0.435" y2="-5.525" stroke-width="0.018225" />
<polygon points="0.535,-5.55 0.435,-5.525 0.535,-5.5 " stroke-width="0.018225" fill="black" />
<text transform="translate(0.065839,-5.4586) scale(1,-1) scale(0.013447) " font-family="Helvetica,sans-serif" font-size="20px" stroke="none" fill="black" >volumeRequest</text>
<text transform="translate(0.96262,-5.7813) scale(1,-1) scale(0.013447) " font-family="Helvetica,sans-serif" font-size="20px" stroke="none" fill="black" > </text>
<line x1="0.435" y1="-5.775" x2="1.565" y2="-5.775" stroke-width="0.018225" />
<polygon points="1.465,-5.75 1.565,-5.775 1.465,-5.8 " stroke-width="0.018225" fill="black" />
<text transform="translate(0.5666,-5.7086) scale(1,-1) scale(0.013447) " font-family="Helvetica,sans-serif" font-size="20px" stroke="none" fill="black" >volume</text>
<text transform="translate(0.96262,-6.0313) scale(1,-1) scale(0.013447) " font-family="Helvetica,sans-serif" font-size="20px" stroke="none" fill="black" > </text>
<line x1="1.685" y1="-6.025" x2="5.315" y2="-6.025" stroke-width="0.018225" />
<polygon points="5.215,-6 5.315,-6.025 5.215,-6.05 " stroke-width="0.018225" fill="black" />
<text transform="translate(2.8125,-5.9586) scale(1,-1) scale(0.013447) " font-family="Helvetica,sans-serif" font-size="20px" stroke="none" fill="black" >volume info</text>
<text transform="translate(3.4626,-6.2813) scale(1,-1) scale(0.013447) " font-family="Helvetica,sans-serif" font-size="20px" stroke="none" fill="black" > </text>
<line x1="5.315" y1="-6.275" x2="1.685" y2="-6.275" stroke-width="0.018225" />
<polygon points="1.785,-6.3 1.685,-6.275 1.785,-6.25 " stroke-width="0.018225" fill="black" />
<text transform="translate(3.2908,-6.2086) scale(1,-1) scale(0.013447) " font-family="Helvetica,sans-serif" font-size="20px" stroke="none" fill="black" >ack</text>
<text transform="translate(3.4626,-6.5313) scale(1,-1) scale(0.013447) " font-family="Helvetica,sans-serif" font-size="20px" stroke="none" fill="black" > </text>
<line x1="1.685" y1="-6.775" x2="5.315" y2="-6.775" stroke-width="0.018225" />
<polygon points="5.215,-6.75 5.315,-6.775 5.215,-6.8 " stroke-width="0.018225" fill="black" />
<text transform="translate(2.0242,-6.7086) scale(1,-1) scale(0.013447) " font-family="Helvetica,sans-serif" font-size="20px" stroke="none" fill="black" >Offer_MoreWork - Joker</text>
<text transform="translate(3.4626,-7.0313) scale(1,-1) scale(0.013447) " font-family="Helvetica,sans-serif" font-size="20px" stroke="none" fill="black" > </text>
<line x1="5.315" y1="-7.025" x2="1.685" y2="-7.025" stroke-width="0.018225" />
<polygon points="1.785,-7.05 1.685,-7.025 1.785,-7 " stroke-width="0.018225" fill="black" />
<text transform="translate(3.2908,-6.9586) scale(1,-1) scale(0.013447) " font-family="Helvetica,sans-serif" font-size="20px" stroke="none" fill="black" >ack</text>
<text transform="translate(3.4626,-7.2813) scale(1,-1) scale(0.013447) " font-family="Helvetica,sans-serif" font-size="20px" stroke="none" fill="black" > </text>
<line x1="1.685" y1="-7.275" x2="5.315" y2="-7.275" stroke-width="0.018225" />
<polygon points="5.215,-7.25 5.315,-7.275 5.215,-7.3 " stroke-width="0.018225" fill="black" />
<text transform="translate(2.7004,-7.2086) scale(1,-1) scale(0.013447) " font-family="Helvetica,sans-serif" font-size="20px" stroke="none" fill="black" >NoMore_Req</text>
<text transform="translate(3.4626,-7.5313) scale(1,-1) scale(0.013447) " font-family="Helvetica,sans-serif" font-size="20px" stroke="none" fill="black" > </text>
<line x1="5.315" y1="-7.525" x2="1.685" y2="-7.525" stroke-width="0.018225" />
<polygon points="1.785,-7.55 1.685,-7.525 1.785,-7.5 " stroke-width="0.018225" fill="black" />
<text transform="translate(3.2908,-7.4586) scale(1,-1) scale(0.013447) " font-family="Helvetica,sans-serif" font-size="20px" stroke="none" fill="black" >ack</text>
<text transform="translate(3.4626,-7.7813) scale(1,-1) scale(0.013447) " font-family="Helvetica,sans-serif" font-size="20px" stroke="none" fill="black" > </text>
<line x1="5.435" y1="-7.775" x2="6.2425" y2="-7.775" stroke-width="0.018225" />
<polygon points="6.1425,-7.75 6.2425,-7.775 6.1425,-7.8 " stroke-width="0.018225" fill="black" />
<text transform="translate(5.3155,-7.7086) scale(1,-1) scale(0.013447) " font-family="Helvetica,sans-serif" font-size="20px" stroke="none" fill="black" >첽reate</text>
<text transform="translate(5.8014,-8.0313) scale(1,-1) scale(0.013447) " font-family="Helvetica,sans-serif" font-size="20px" stroke="none" fill="black" > </text>
<rect x="6.2425" y="-7.925" width="0.75" height="0.3" stroke-width="0.018225" />
<text transform="translate(6.311,-7.8699) scale(1,-1) scale(0.013447) " font-family="Helvetica,sans-serif" font-size="20px" stroke="none" fill="black" >abort</text>
<line x1="6.3425" y1="-7.845" x2="6.8925" y2="-7.845" stroke-width="0.018225" />
<line x1="6.625" y1="-7.925" x2="6.625" y2="-8.05" stroke-width="0.018225" stroke-dasharray="0.05, 0.05"/>
<line x1="6.575" y1="-8.05" x2="6.675" y2="-8.05" stroke-width="0.018225" />
<line x1="5.315" y1="-8.3" x2="1.685" y2="-8.3" stroke-width="0.018225" />
<polygon points="1.785,-8.325 1.685,-8.3 1.785,-8.275 " stroke-width="0.018225" fill="black" />
<text transform="translate(2.3563,-8.2336) scale(1,-1) scale(0.013447) " font-family="Helvetica,sans-serif" font-size="20px" stroke="none" fill="black" >connect for tape IO</text>
<text transform="translate(3.4626,-8.5563) scale(1,-1) scale(0.013447) " font-family="Helvetica,sans-serif" font-size="20px" stroke="none" fill="black" > </text>
<line x1="5.435" y1="-8.55" x2="7.4925" y2="-8.55" stroke-width="0.018225" />
<polygon points="7.3925,-8.525 7.4925,-8.55 7.3925,-8.575 " stroke-width="0.018225" fill="black" />
<text transform="translate(5.9405,-8.4836) scale(1,-1) scale(0.013447) " font-family="Helvetica,sans-serif" font-size="20px" stroke="none" fill="black" >첽reate</text>
<text transform="translate(6.4264,-8.8063) scale(1,-1) scale(0.013447) " font-family="Helvetica,sans-serif" font-size="20px" stroke="none" fill="black" > </text>
<rect x="7.4925" y="-8.7" width="0.75" height="0.3" stroke-width="0.018225" />
<text transform="translate(7.4264,-8.6449) scale(1,-1) scale(0.013447) " font-family="Helvetica,sans-serif" font-size="20px" stroke="none" fill="black" >tape IO</text>
<line x1="7.5925" y1="-8.62" x2="8.1425" y2="-8.62" stroke-width="0.018225" />
<line x1="7.875" y1="-8.7" x2="7.875" y2="-8.825" stroke-width="0.018225" stroke-dasharray="0.05, 0.05"/>
<line x1="7.825" y1="-8.825" x2="7.925" y2="-8.825" stroke-width="0.018225" />
<line x1="5.315" y1="-9.075" x2="1.685" y2="-9.075" stroke-width="0.018225" />
<polygon points="1.785,-9.1 1.685,-9.075 1.785,-9.05 " stroke-width="0.018225" fill="black" />
<text transform="translate(2.3789,-9.0086) scale(1,-1) scale(0.013447) " font-family="Helvetica,sans-serif" font-size="20px" stroke="none" fill="black" >connect for disk IO</text>
<text transform="translate(3.4626,-9.3313) scale(1,-1) scale(0.013447) " font-family="Helvetica,sans-serif" font-size="20px" stroke="none" fill="black" > </text>
<line x1="5.315" y1="-9.325" x2="1.685" y2="-9.325" stroke-width="0.018225" />
<polygon points="1.785,-9.35 1.685,-9.325 1.785,-9.3 " stroke-width="0.018225" fill="black" />
<text transform="translate(2.3789,-9.2586) scale(1,-1) scale(0.013447) " font-family="Helvetica,sans-serif" font-size="20px" stroke="none" fill="black" >connect for disk IO</text>
<text transform="translate(3.4626,-9.5813) scale(1,-1) scale(0.013447) " font-family="Helvetica,sans-serif" font-size="20px" stroke="none" fill="black" > </text>
<line x1="5.315" y1="-9.575" x2="1.685" y2="-9.575" stroke-width="0.018225" />
<polygon points="1.785,-9.6 1.685,-9.575 1.785,-9.55 " stroke-width="0.018225" fill="black" />
<text transform="translate(2.3789,-9.5086) scale(1,-1) scale(0.013447) " font-family="Helvetica,sans-serif" font-size="20px" stroke="none" fill="black" >connect for disk IO</text>
<text transform="translate(3.4626,-9.8313) scale(1,-1) scale(0.013447) " font-family="Helvetica,sans-serif" font-size="20px" stroke="none" fill="black" > </text>
<line x1="5.435" y1="-9.825" x2="8.7425" y2="-9.825" stroke-width="0.018225" />
<polygon points="8.6425,-9.8 8.7425,-9.825 8.6425,-9.85 " stroke-width="0.018225" fill="black" />
<text transform="translate(6.5655,-9.7586) scale(1,-1) scale(0.013447) " font-family="Helvetica,sans-serif" font-size="20px" stroke="none" fill="black" >첽reate</text>
<text transform="translate(7.0514,-10.081) scale(1,-1) scale(0.013447) " font-family="Helvetica,sans-serif" font-size="20px" stroke="none" fill="black" > </text>
<rect x="8.7425" y="-9.975" width="0.75" height="0.3" stroke-width="0.018225" />
<text transform="translate(8.699,-9.9199) scale(1,-1) scale(0.013447) " font-family="Helvetica,sans-serif" font-size="20px" stroke="none" fill="black" >disk IO</text>
<line x1="8.8425" y1="-9.895" x2="9.3925" y2="-9.895" stroke-width="0.018225" />
<line x1="9.125" y1="-9.975" x2="9.125" y2="-10.1" stroke-width="0.018225" stroke-dasharray="0.05, 0.05"/>
<line x1="9.075" y1="-10.1" x2="9.175" y2="-10.1" stroke-width="0.018225" />
<line x1="5.435" y1="-10.35" x2="9.9925" y2="-10.35" stroke-width="0.018225" />
<polygon points="9.8925,-10.325 9.9925,-10.35 9.8925,-10.375 " stroke-width="0.018225" fill="black" />
<text transform="translate(7.1905,-10.284) scale(1,-1) scale(0.013447) " font-family="Helvetica,sans-serif" font-size="20px" stroke="none" fill="black" >첽reate</text>
<text transform="translate(7.6764,-10.606) scale(1,-1) scale(0.013447) " font-family="Helvetica,sans-serif" font-size="20px" stroke="none" fill="black" > </text>
<rect x="9.9925" y="-10.5" width="0.75" height="0.3" stroke-width="0.018225" />
<text transform="translate(9.949,-10.445) scale(1,-1) scale(0.013447) " font-family="Helvetica,sans-serif" font-size="20px" stroke="none" fill="black" >disk IO</text>
<line x1="10.092" y1="-10.42" x2="10.643" y2="-10.42" stroke-width="0.018225" />
<line x1="10.375" y1="-10.5" x2="10.375" y2="-10.625" stroke-width="0.018225" stroke-dasharray="0.05, 0.05"/>
<line x1="10.325" y1="-10.625" x2="10.425" y2="-10.625" stroke-width="0.018225" />
<line x1="5.435" y1="-10.875" x2="11.242" y2="-10.875" stroke-width="0.018225" />
<polygon points="11.143,-10.85 11.242,-10.875 11.143,-10.9 " stroke-width="0.018225" fill="black" />
<text transform="translate(7.8155,-10.809) scale(1,-1) scale(0.013447) " font-family="Helvetica,sans-serif" font-size="20px" stroke="none" fill="black" >첽reate</text>
<text transform="translate(8.3014,-11.131) scale(1,-1) scale(0.013447) " font-family="Helvetica,sans-serif" font-size="20px" stroke="none" fill="black" > </text>
<rect x="11.242" y="-11.025" width="0.75" height="0.3" stroke-width="0.018225" />
<text transform="translate(11.199,-10.97) scale(1,-1) scale(0.013447) " font-family="Helvetica,sans-serif" font-size="20px" stroke="none" fill="black" >disk IO</text>
<line x1="11.342" y1="-10.945" x2="11.893" y2="-10.945" stroke-width="0.018225" />
<line x1="11.625" y1="-11.025" x2="11.625" y2="-11.15" stroke-width="0.018225" stroke-dasharray="0.05, 0.05"/>
<line x1="11.575" y1="-11.15" x2="11.675" y2="-11.15" stroke-width="0.018225" />
<line x1="7.815" y1="-11.4" x2="1.685" y2="-11.4" stroke-width="0.018225" />
<polygon points="1.785,-11.425 1.685,-11.4 1.785,-11.375 " stroke-width="0.018225" fill="black" />
<text transform="translate(3.0724,-11.334) scale(1,-1) scale(0.013447) " font-family="Helvetica,sans-serif" font-size="20px" stroke="none" fill="black" >Request_MoreWork - Joker</text>
<text transform="translate(4.7126,-11.656) scale(1,-1) scale(0.013447) " font-family="Helvetica,sans-serif" font-size="20px" stroke="none" fill="black" > </text>
<line x1="1.685" y1="-11.65" x2="7.815" y2="-11.65" stroke-width="0.018225" />
<polygon points="7.715,-11.625 7.815,-11.65 7.715,-11.675 " stroke-width="0.018225" fill="black" />
<text transform="translate(4.466,-11.584) scale(1,-1) scale(0.013447) " font-family="Helvetica,sans-serif" font-size="20px" stroke="none" fill="black" >file 1</text>
<text transform="translate(4.7126,-11.906) scale(1,-1) scale(0.013447) " font-family="Helvetica,sans-serif" font-size="20px" stroke="none" fill="black" > </text>
<line x1="7.815" y1="-11.9" x2="1.685" y2="-11.9" stroke-width="0.018225" />
<polygon points="1.785,-11.925 1.685,-11.9 1.785,-11.875 " stroke-width="0.018225" fill="black" />
<text transform="translate(4.5408,-11.834) scale(1,-1) scale(0.013447) " font-family="Helvetica,sans-serif" font-size="20px" stroke="none" fill="black" >ack</text>
<text transform="translate(4.7126,-12.156) scale(1,-1) scale(0.013447) " font-family="Helvetica,sans-serif" font-size="20px" stroke="none" fill="black" > </text>
<line x1="1.685" y1="-12.15" x2="7.815" y2="-12.15" stroke-width="0.018225" />
<polygon points="7.715,-12.125 7.815,-12.15 7.715,-12.175 " stroke-width="0.018225" fill="black" />
<text transform="translate(3.2742,-12.084) scale(1,-1) scale(0.013447) " font-family="Helvetica,sans-serif" font-size="20px" stroke="none" fill="black" >Offer_MoreWork - Joker</text>
<text transform="translate(4.7126,-12.406) scale(1,-1) scale(0.013447) " font-family="Helvetica,sans-serif" font-size="20px" stroke="none" fill="black" > </text>
<line x1="7.815" y1="-12.4" x2="1.685" y2="-12.4" stroke-width="0.018225" />
<polygon points="1.785,-12.425 1.685,-12.4 1.785,-12.375 " stroke-width="0.018225" fill="black" />
<text transform="translate(4.5408,-12.334) scale(1,-1) scale(0.013447) " font-family="Helvetica,sans-serif" font-size="20px" stroke="none" fill="black" >ack</text>
<text transform="translate(4.7126,-12.656) scale(1,-1) scale(0.013447) " font-family="Helvetica,sans-serif" font-size="20px" stroke="none" fill="black" > </text>
<line x1="1.685" y1="-12.65" x2="7.815" y2="-12.65" stroke-width="0.018225" />
<polygon points="7.715,-12.625 7.815,-12.65 7.715,-12.675 " stroke-width="0.018225" fill="black" />
<text transform="translate(3.9504,-12.584) scale(1,-1) scale(0.013447) " font-family="Helvetica,sans-serif" font-size="20px" stroke="none" fill="black" >NoMore_Req</text>
<text transform="translate(4.7126,-12.906) scale(1,-1) scale(0.013447) " font-family="Helvetica,sans-serif" font-size="20px" stroke="none" fill="black" > </text>
<line x1="7.815" y1="-12.9" x2="1.685" y2="-12.9" stroke-width="0.018225" />
<polygon points="1.785,-12.925 1.685,-12.9 1.785,-12.875 " stroke-width="0.018225" fill="black" />
<text transform="translate(4.5408,-12.834) scale(1,-1) scale(0.013447) " font-family="Helvetica,sans-serif" font-size="20px" stroke="none" fill="black" >ack</text>
<text transform="translate(4.7126,-13.156) scale(1,-1) scale(0.013447) " font-family="Helvetica,sans-serif" font-size="20px" stroke="none" fill="black" > </text>
<line x1="1.685" y1="-13.15" x2="7.815" y2="-13.15" stroke-width="0.018225" />
<polygon points="7.715,-13.125 7.815,-13.15 7.715,-13.175 " stroke-width="0.018225" fill="black" />
<text transform="translate(3.1583,-13.084) scale(1,-1) scale(0.013447) " font-family="Helvetica,sans-serif" font-size="20px" stroke="none" fill="black" >ack of Request_MoreWork</text>
<text transform="translate(4.7126,-13.406) scale(1,-1) scale(0.013447) " font-family="Helvetica,sans-serif" font-size="20px" stroke="none" fill="black" > </text>
<line x1="7.815" y1="-13.65" x2="1.685" y2="-13.65" stroke-width="0.018225" />
<polygon points="1.785,-13.675 1.685,-13.65 1.785,-13.625 " stroke-width="0.018225" fill="black" />
<text transform="translate(3.0011,-13.584) scale(1,-1) scale(0.013447) " font-family="Helvetica,sans-serif" font-size="20px" stroke="none" fill="black" >positioned for file 1 (tape req)</text>
<text transform="translate(4.7126,-13.906) scale(1,-1) scale(0.013447) " font-family="Helvetica,sans-serif" font-size="20px" stroke="none" fill="black" > </text>
<line x1="1.685" y1="-13.9" x2="7.815" y2="-13.9" stroke-width="0.018225" />
<polygon points="7.715,-13.875 7.815,-13.9 7.715,-13.925 " stroke-width="0.018225" fill="black" />
<text transform="translate(4.5408,-13.834) scale(1,-1) scale(0.013447) " font-family="Helvetica,sans-serif" font-size="20px" stroke="none" fill="black" >ack</text>
<text transform="translate(4.7126,-14.156) scale(1,-1) scale(0.013447) " font-family="Helvetica,sans-serif" font-size="20px" stroke="none" fill="black" > </text>
<line x1="7.815" y1="-14.15" x2="1.685" y2="-14.15" stroke-width="0.018225" />
<polygon points="1.785,-14.175 1.685,-14.15 1.785,-14.125 " stroke-width="0.018225" fill="black" />
<text transform="translate(3.0909,-14.084) scale(1,-1) scale(0.013447) " font-family="Helvetica,sans-serif" font-size="20px" stroke="none" fill="black" >positioned for file 1 (file req)</text>
<text transform="translate(4.7126,-14.406) scale(1,-1) scale(0.013447) " font-family="Helvetica,sans-serif" font-size="20px" stroke="none" fill="black" > </text>
<line x1="1.685" y1="-14.4" x2="7.815" y2="-14.4" stroke-width="0.018225" />
<polygon points="7.715,-14.375 7.815,-14.4 7.715,-14.425 " stroke-width="0.018225" fill="black" />
<text transform="translate(4.5408,-14.334) scale(1,-1) scale(0.013447) " font-family="Helvetica,sans-serif" font-size="20px" stroke="none" fill="black" >ack</text>
<text transform="translate(4.7126,-14.656) scale(1,-1) scale(0.013447) " font-family="Helvetica,sans-serif" font-size="20px" stroke="none" fill="black" > </text>
<line x1="7.815" y1="-14.65" x2="1.685" y2="-14.65" stroke-width="0.018225" />
<polygon points="1.785,-14.675 1.685,-14.65 1.785,-14.625 " stroke-width="0.018225" fill="black" />
<text transform="translate(3.0724,-14.584) scale(1,-1) scale(0.013447) " font-family="Helvetica,sans-serif" font-size="20px" stroke="none" fill="black" >Request_MoreWork - Joker</text>
<text transform="translate(4.7126,-14.906) scale(1,-1) scale(0.013447) " font-family="Helvetica,sans-serif" font-size="20px" stroke="none" fill="black" > </text>
<line x1="1.685" y1="-14.9" x2="7.815" y2="-14.9" stroke-width="0.018225" />
<polygon points="7.715,-14.875 7.815,-14.9 7.715,-14.925 " stroke-width="0.018225" fill="black" />
<text transform="translate(4.5408,-14.834) scale(1,-1) scale(0.013447) " font-family="Helvetica,sans-serif" font-size="20px" stroke="none" fill="black" >ack</text>
<text transform="translate(4.7126,-15.156) scale(1,-1) scale(0.013447) " font-family="Helvetica,sans-serif" font-size="20px" stroke="none" fill="black" > </text>
<line x1="9.065" y1="-15.15" x2="1.685" y2="-15.15" stroke-width="0.018225" />
<polygon points="1.785,-15.175 1.685,-15.15 1.785,-15.125 " stroke-width="0.018225" fill="black" />
<text transform="translate(4.5455,-15.084) scale(1,-1) scale(0.013447) " font-family="Helvetica,sans-serif" font-size="20px" stroke="none" fill="black" >Finished file 1</text>
<text transform="translate(5.3376,-15.406) scale(1,-1) scale(0.013447) " font-family="Helvetica,sans-serif" font-size="20px" stroke="none" fill="black" > </text>
<line x1="1.685" y1="-15.4" x2="9.065" y2="-15.4" stroke-width="0.018225" />
<polygon points="8.965,-15.375 9.065,-15.4 8.965,-15.425 " stroke-width="0.018225" fill="black" />
<text transform="translate(5.1658,-15.334) scale(1,-1) scale(0.013447) " font-family="Helvetica,sans-serif" font-size="20px" stroke="none" fill="black" >ack</text>
<text transform="translate(5.3376,-15.656) scale(1,-1) scale(0.013447) " font-family="Helvetica,sans-serif" font-size="20px" stroke="none" fill="black" > </text>
<line x1="7.815" y1="-15.9" x2="1.685" y2="-15.9" stroke-width="0.018225" />
<polygon points="1.785,-15.925 1.685,-15.9 1.785,-15.875 " stroke-width="0.018225" fill="black" />
<text transform="translate(3.0724,-15.834) scale(1,-1) scale(0.013447) " font-family="Helvetica,sans-serif" font-size="20px" stroke="none" fill="black" >Request_MoreWork - Joker</text>
<text transform="translate(4.7126,-16.156) scale(1,-1) scale(0.013447) " font-family="Helvetica,sans-serif" font-size="20px" stroke="none" fill="black" > </text>
<line x1="1.685" y1="-16.15" x2="7.815" y2="-16.15" stroke-width="0.018225" />
<polygon points="7.715,-16.125 7.815,-16.15 7.715,-16.175 " stroke-width="0.018225" fill="black" />
<text transform="translate(4.466,-16.084) scale(1,-1) scale(0.013447) " font-family="Helvetica,sans-serif" font-size="20px" stroke="none" fill="black" >file 2</text>
<text transform="translate(4.7126,-16.406) scale(1,-1) scale(0.013447) " font-family="Helvetica,sans-serif" font-size="20px" stroke="none" fill="black" > </text>
<line x1="7.815" y1="-16.4" x2="1.685" y2="-16.4" stroke-width="0.018225" />
<polygon points="1.785,-16.425 1.685,-16.4 1.785,-16.375 " stroke-width="0.018225" fill="black" />
<text transform="translate(4.5408,-16.334) scale(1,-1) scale(0.013447) " font-family="Helvetica,sans-serif" font-size="20px" stroke="none" fill="black" >ack</text>
<text transform="translate(4.7126,-16.656) scale(1,-1) scale(0.013447) " font-family="Helvetica,sans-serif" font-size="20px" stroke="none" fill="black" > </text>
<line x1="1.685" y1="-16.65" x2="7.815" y2="-16.65" stroke-width="0.018225" />
<polygon points="7.715,-16.625 7.815,-16.65 7.715,-16.675 " stroke-width="0.018225" fill="black" />
<text transform="translate(3.2742,-16.584) scale(1,-1) scale(0.013447) " font-family="Helvetica,sans-serif" font-size="20px" stroke="none" fill="black" >Offer_MoreWork - Joker</text>
<text transform="translate(4.7126,-16.906) scale(1,-1) scale(0.013447) " font-family="Helvetica,sans-serif" font-size="20px" stroke="none" fill="black" > </text>
<line x1="7.815" y1="-16.9" x2="1.685" y2="-16.9" stroke-width="0.018225" />
<polygon points="1.785,-16.925 1.685,-16.9 1.785,-16.875 " stroke-width="0.018225" fill="black" />
<text transform="translate(4.5408,-16.834) scale(1,-1) scale(0.013447) " font-family="Helvetica,sans-serif" font-size="20px" stroke="none" fill="black" >ack</text>
<text transform="translate(4.7126,-17.156) scale(1,-1) scale(0.013447) " font-family="Helvetica,sans-serif" font-size="20px" stroke="none" fill="black" > </text>
<line x1="1.685" y1="-17.15" x2="7.815" y2="-17.15" stroke-width="0.018225" />
<polygon points="7.715,-17.125 7.815,-17.15 7.715,-17.175 " stroke-width="0.018225" fill="black" />
<text transform="translate(3.9504,-17.084) scale(1,-1) scale(0.013447) " font-family="Helvetica,sans-serif" font-size="20px" stroke="none" fill="black" >NoMore_Req</text>
<text transform="translate(4.7126,-17.406) scale(1,-1) scale(0.013447) " font-family="Helvetica,sans-serif" font-size="20px" stroke="none" fill="black" > </text>
<line x1="7.815" y1="-17.4" x2="1.685" y2="-17.4" stroke-width="0.018225" />
<polygon points="1.785,-17.425 1.685,-17.4 1.785,-17.375 " stroke-width="0.018225" fill="black" />
<text transform="translate(4.5408,-17.334) scale(1,-1) scale(0.013447) " font-family="Helvetica,sans-serif" font-size="20px" stroke="none" fill="black" >ack</text>
<text transform="translate(4.7126,-17.656) scale(1,-1) scale(0.013447) " font-family="Helvetica,sans-serif" font-size="20px" stroke="none" fill="black" > </text>
<line x1="1.685" y1="-17.65" x2="7.815" y2="-17.65" stroke-width="0.018225" />
<polygon points="7.715,-17.625 7.815,-17.65 7.715,-17.675 " stroke-width="0.018225" fill="black" />
<text transform="translate(3.1583,-17.584) scale(1,-1) scale(0.013447) " font-family="Helvetica,sans-serif" font-size="20px" stroke="none" fill="black" >ack of Request_MoreWork</text>
<text transform="translate(4.7126,-17.906) scale(1,-1) scale(0.013447) " font-family="Helvetica,sans-serif" font-size="20px" stroke="none" fill="black" > </text>
<line x1="7.815" y1="-18.15" x2="1.685" y2="-18.15" stroke-width="0.018225" />
<polygon points="1.785,-18.175 1.685,-18.15 1.785,-18.125 " stroke-width="0.018225" fill="black" />
<text transform="translate(3.0011,-18.084) scale(1,-1) scale(0.013447) " font-family="Helvetica,sans-serif" font-size="20px" stroke="none" fill="black" >positioned for file 2 (tape req)</text>
<text transform="translate(4.7126,-18.406) scale(1,-1) scale(0.013447) " font-family="Helvetica,sans-serif" font-size="20px" stroke="none" fill="black" > </text>
<line x1="1.685" y1="-18.4" x2="7.815" y2="-18.4" stroke-width="0.018225" />
<polygon points="7.715,-18.375 7.815,-18.4 7.715,-18.425 " stroke-width="0.018225" fill="black" />
<text transform="translate(4.5408,-18.334) scale(1,-1) scale(0.013447) " font-family="Helvetica,sans-serif" font-size="20px" stroke="none" fill="black" >ack</text>
<text transform="translate(4.7126,-18.656) scale(1,-1) scale(0.013447) " font-family="Helvetica,sans-serif" font-size="20px" stroke="none" fill="black" > </text>
<line x1="7.815" y1="-18.65" x2="1.685" y2="-18.65" stroke-width="0.018225" />
<polygon points="1.785,-18.675 1.685,-18.65 1.785,-18.625 " stroke-width="0.018225" fill="black" />
<text transform="translate(3.0909,-18.584) scale(1,-1) scale(0.013447) " font-family="Helvetica,sans-serif" font-size="20px" stroke="none" fill="black" >positioned for file 2 (file req)</text>
<text transform="translate(4.7126,-18.906) scale(1,-1) scale(0.013447) " font-family="Helvetica,sans-serif" font-size="20px" stroke="none" fill="black" > </text>
<line x1="1.685" y1="-18.9" x2="7.815" y2="-18.9" stroke-width="0.018225" />
<polygon points="7.715,-18.875 7.815,-18.9 7.715,-18.925 " stroke-width="0.018225" fill="black" />
<text transform="translate(4.5408,-18.834) scale(1,-1) scale(0.013447) " font-family="Helvetica,sans-serif" font-size="20px" stroke="none" fill="black" >ack</text>
<text transform="translate(4.7126,-19.156) scale(1,-1) scale(0.013447) " font-family="Helvetica,sans-serif" font-size="20px" stroke="none" fill="black" > </text>
<line x1="7.815" y1="-19.15" x2="1.685" y2="-19.15" stroke-width="0.018225" />
<polygon points="1.785,-19.175 1.685,-19.15 1.785,-19.125 " stroke-width="0.018225" fill="black" />
<text transform="translate(3.0724,-19.084) scale(1,-1) scale(0.013447) " font-family="Helvetica,sans-serif" font-size="20px" stroke="none" fill="black" >Request_MoreWork - Joker</text>
<text transform="translate(4.7126,-19.406) scale(1,-1) scale(0.013447) " font-family="Helvetica,sans-serif" font-size="20px" stroke="none" fill="black" > </text>
<line x1="1.685" y1="-19.4" x2="7.815" y2="-19.4" stroke-width="0.018225" />
<polygon points="7.715,-19.375 7.815,-19.4 7.715,-19.425 " stroke-width="0.018225" fill="black" />
<text transform="translate(4.5408,-19.334) scale(1,-1) scale(0.013447) " font-family="Helvetica,sans-serif" font-size="20px" stroke="none" fill="black" >ack</text>
<text transform="translate(4.7126,-19.656) scale(1,-1) scale(0.013447) " font-family="Helvetica,sans-serif" font-size="20px" stroke="none" fill="black" > </text>
<line x1="9.065" y1="-19.65" x2="1.685" y2="-19.65" stroke-width="0.018225" />
<polygon points="1.785,-19.675 1.685,-19.65 1.785,-19.625 " stroke-width="0.018225" fill="black" />
<text transform="translate(4.5455,-19.584) scale(1,-1) scale(0.013447) " font-family="Helvetica,sans-serif" font-size="20px" stroke="none" fill="black" >Finished file 2</text>
<text transform="translate(5.3376,-19.906) scale(1,-1) scale(0.013447) " font-family="Helvetica,sans-serif" font-size="20px" stroke="none" fill="black" > </text>
<line x1="1.685" y1="-19.9" x2="9.065" y2="-19.9" stroke-width="0.018225" />
<polygon points="8.965,-19.875 9.065,-19.9 8.965,-19.925 " stroke-width="0.018225" fill="black" />
<text transform="translate(5.1658,-19.834) scale(1,-1) scale(0.013447) " font-family="Helvetica,sans-serif" font-size="20px" stroke="none" fill="black" >ack</text>
<text transform="translate(5.3376,-20.156) scale(1,-1) scale(0.013447) " font-family="Helvetica,sans-serif" font-size="20px" stroke="none" fill="black" > </text>
<line x1="1.685" y1="-20.4" x2="7.815" y2="-20.4" stroke-width="0.018225" />
<polygon points="7.715,-20.375 7.815,-20.4 7.715,-20.425 " stroke-width="0.018225" fill="black" />
<text transform="translate(3.9504,-20.334) scale(1,-1) scale(0.013447) " font-family="Helvetica,sans-serif" font-size="20px" stroke="none" fill="black" >NoMore_Req</text>
<text transform="translate(4.7126,-20.656) scale(1,-1) scale(0.013447) " font-family="Helvetica,sans-serif" font-size="20px" stroke="none" fill="black" > </text>
<line x1="7.815" y1="-20.65" x2="1.685" y2="-20.65" stroke-width="0.018225" />
<polygon points="1.785,-20.675 1.685,-20.65 1.785,-20.625 " stroke-width="0.018225" fill="black" />
<text transform="translate(4.5408,-20.584) scale(1,-1) scale(0.013447) " font-family="Helvetica,sans-serif" font-size="20px" stroke="none" fill="black" >ack</text>
<text transform="translate(4.7126,-20.906) scale(1,-1) scale(0.013447) " font-family="Helvetica,sans-serif" font-size="20px" stroke="none" fill="black" > </text>
<line x1="7.815" y1="-20.9" x2="1.685" y2="-20.9" stroke-width="0.018225" />
<polygon points="1.785,-20.925 1.685,-20.9 1.785,-20.875 " stroke-width="0.018225" fill="black" />
<text transform="translate(4.0474,-20.834) scale(1,-1) scale(0.013447) " font-family="Helvetica,sans-serif" font-size="20px" stroke="none" fill="black" >EndOf_Req</text>
<text transform="translate(4.7126,-21.156) scale(1,-1) scale(0.013447) " font-family="Helvetica,sans-serif" font-size="20px" stroke="none" fill="black" > </text>
<line x1="1.685" y1="-21.15" x2="7.815" y2="-21.15" stroke-width="0.018225" />
<polygon points="7.715,-21.125 7.815,-21.15 7.715,-21.175 " stroke-width="0.018225" fill="black" />
<text transform="translate(4.5408,-21.084) scale(1,-1) scale(0.013447) " font-family="Helvetica,sans-serif" font-size="20px" stroke="none" fill="black" >ack</text>
<text transform="translate(4.7126,-21.406) scale(1,-1) scale(0.013447) " font-family="Helvetica,sans-serif" font-size="20px" stroke="none" fill="black" > </text>
<line x1="7.825" y1="-8.825" x2="7.825" y2="-21.15" stroke-width="0.018225" />
<line x1="7.925" y1="-8.825" x2="7.925" y2="-21.15" stroke-width="0.018225" />
<line x1="7.825" y1="-21.15" x2="7.925" y2="-21.15" stroke-width="0.018225" />
<line x1="6.575" y1="-8.05" x2="6.575" y2="-21.15" stroke-width="0.018225" />
<line x1="6.675" y1="-8.05" x2="6.675" y2="-21.15" stroke-width="0.018225" />
<line x1="6.575" y1="-21.15" x2="6.675" y2="-21.15" stroke-width="0.018225" />
<line x1="5.325" y1="-2.775" x2="5.325" y2="-21.15" stroke-width="0.018225" />
<line x1="5.425" y1="-2.775" x2="5.425" y2="-21.15" stroke-width="0.018225" />
<line x1="5.325" y1="-21.15" x2="5.425" y2="-21.15" stroke-width="0.018225" />
<line x1="1.575" y1="-3.775" x2="1.575" y2="-21.15" stroke-width="0.018225" />
<line x1="1.675" y1="-3.775" x2="1.675" y2="-21.15" stroke-width="0.018225" />
<line x1="1.575" y1="-21.15" x2="1.675" y2="-21.15" stroke-width="0.018225" />
<line x1="0.325" y1="-0.25" x2="0.325" y2="-21.15" stroke-width="0.018225" />
<line x1="0.425" y1="-0.25" x2="0.425" y2="-21.15" stroke-width="0.018225" />
<line x1="0.325" y1="-21.15" x2="0.425" y2="-21.15" stroke-width="0.018225" />
<line x1="0.375" y1="-21.15" x2="0.375" y2="-21.15" stroke-width="0.018225" stroke-dasharray="0.05, 0.05"/>
<line x1="1.625" y1="-21.15" x2="1.625" y2="-21.15" stroke-width="0.018225" stroke-dasharray="0.05, 0.05"/>
<line x1="2.875" y1="-3.525" x2="2.875" y2="-21.15" stroke-width="0.018225" stroke-dasharray="0.05, 0.05"/>
<line x1="4.125" y1="-2.775" x2="4.125" y2="-21.15" stroke-width="0.018225" stroke-dasharray="0.05, 0.05"/>
<line x1="5.375" y1="-21.15" x2="5.375" y2="-21.15" stroke-width="0.018225" stroke-dasharray="0.05, 0.05"/>
<line x1="7.875" y1="-21.15" x2="7.875" y2="-21.15" stroke-width="0.018225" stroke-dasharray="0.05, 0.05"/>
<line x1="6.625" y1="-21.15" x2="6.625" y2="-21.15" stroke-width="0.018225" stroke-dasharray="0.05, 0.05"/>
<line x1="9.075" y1="-10.1" x2="9.075" y2="-21.15" stroke-width="0.018225" />
<line x1="9.175" y1="-10.1" x2="9.175" y2="-21.15" stroke-width="0.018225" />
<line x1="9.075" y1="-21.15" x2="9.175" y2="-21.15" stroke-width="0.018225" />
<line x1="10.325" y1="-10.625" x2="10.325" y2="-21.15" stroke-width="0.018225" />
<line x1="10.425" y1="-10.625" x2="10.425" y2="-21.15" stroke-width="0.018225" />
<line x1="10.325" y1="-21.15" x2="10.425" y2="-21.15" stroke-width="0.018225" />
<line x1="11.575" y1="-11.15" x2="11.575" y2="-21.15" stroke-width="0.018225" />
<line x1="11.675" y1="-11.15" x2="11.675" y2="-21.15" stroke-width="0.018225" />
<line x1="11.575" y1="-21.15" x2="11.675" y2="-21.15" stroke-width="0.018225" />
</g>
</svg>
