<?xml version="1.0" encoding="ISO-8859-1" standalone="no"?>
<!DOCTYPE svg PUBLIC "-//W3C//DTD SVG 1.1//EN" "http://www.w3.org/Graphics/SVG/1.1/DTD/svg11.dtd">
<svg version="1.1" baseProfile="full" id="body" width="8in" height="8in" viewBox="0 0 1 1" preserveAspectRatio="none" xmlns="http://www.w3.org/2000/svg" xmlns:xlink="http://www.w3.org/1999/xlink" xmlns:ev="http://www.w3.org/2001/xml-events">
<title>SVG drawing</title>
<desc>This was produced by version 4.4 of GNU libplot, a free library for exporting 2-D vector graphics.</desc>
<rect id="background" x="0" y="0" width="1" height="1" stroke="none" fill="white"/>
<g id="content" transform="translate(0.15625,0.14687) scale(1,-1) scale(0.125) " xml:space="preserve" stroke="black" stroke-linecap="butt" stroke-linejoin="miter" stroke-miterlimit="10.433" stroke-dasharray="none" stroke-dashoffset="0" stroke-opacity="1" fill="none" fill-rule="evenodd" fill-opacity="1" font-style="normal" font-variant="normal" font-weight="normal" font-stretch="normal" font-size-adjust="none" letter-spacing="normal" word-spacing="normal" text-anchor="start">
<rect x="-0.375" y="-0.8" width="0.75" height="0.3" stroke-width="0.0094118" />
<text transform="translate(-0.25861,-0.69903) scale(1,-1) scale(0.0069444) " font-family="Helvetica,sans-serif" font-size="20px" stroke="none" fill="black" >gateway</text>
<line x1="-0.275" y1="-0.72" x2="0.275" y2="-0.72" stroke-width="0.0094118" />
<rect x="2.125" y="-0.8" width="0.75" height="0.3" stroke-width="0.0094118" />
<text transform="translate(2.307,-0.69903) scale(1,-1) scale(0.0069444) " font-family="Helvetica,sans-serif" font-size="20px" stroke="none" fill="black" >bridge</text>
<line x1="2.225" y1="-0.72" x2="2.775" y2="-0.72" stroke-width="0.0094118" />
<rect x="4.625" y="-0.8" width="0.75" height="0.3" stroke-width="0.0094118" />
<text transform="translate(4.6835,-0.69903) scale(1,-1) scale(0.0069444) " font-family="Helvetica,sans-serif" font-size="20px" stroke="none" fill="black" >rtcpd child</text>
<line x1="4.725" y1="-0.72" x2="5.275" y2="-0.72" stroke-width="0.0094118" />
<line x1="5" y1="-0.8" x2="5" y2="-0.9" stroke-width="0.0094118" stroke-dasharray="0.05, 0.05"/>
<line x1="4.95" y1="-0.9" x2="5.05" y2="-0.9" stroke-width="0.0094118" />
<line x1="2.5" y1="-0.8" x2="2.5" y2="-0.9" stroke-width="0.0094118" stroke-dasharray="0.05, 0.05"/>
<line x1="2.45" y1="-0.9" x2="2.55" y2="-0.9" stroke-width="0.0094118" />
<line x1="4.94" y1="-1.4" x2="2.56" y2="-1.4" stroke-width="0.0094118" />
<polygon points="2.66,-1.425 2.56,-1.4 2.66,-1.375 " stroke-width="0.0094118" fill="black" />
<text transform="translate(3.175,-1.3657) scale(1,-1) scale(0.0069444) " font-family="Helvetica,sans-serif" font-size="20px" stroke="none" fill="black" >request more work</text>
<text transform="translate(3.7307,-1.5324) scale(1,-1) scale(0.0069444) " font-family="Helvetica,sans-serif" font-size="20px" stroke="none" fill="black" > </text>
<line x1="2.44" y1="-1.9" x2="0.06" y2="-1.9" stroke-width="0.0094118" />
<polygon points="0.16,-1.925 0.06,-1.9 0.16,-1.875 " stroke-width="0.0094118" fill="black" />
<text transform="translate(1.0068,-1.8657) scale(1,-1) scale(0.0069444) " font-family="Helvetica,sans-serif" font-size="20px" stroke="none" fill="black" >connect</text>
<text transform="translate(1.2307,-2.0324) scale(1,-1) scale(0.0069444) " font-family="Helvetica,sans-serif" font-size="20px" stroke="none" fill="black" > </text>
<line x1="0" y1="-0.8" x2="0" y2="-1.9" stroke-width="0.0094118" stroke-dasharray="0.05, 0.05"/>
<line x1="-0.05" y1="-1.9" x2="0.05" y2="-1.9" stroke-width="0.0094118" />
<line x1="2.44" y1="-2.15" x2="0.06" y2="-2.15" stroke-width="0.0094118" />
<polygon points="0.16,-2.175 0.06,-2.15 0.16,-2.125 " stroke-width="0.0094118" fill="black" />
<text transform="translate(0.16694,-2.1157) scale(1,-1) scale(0.0069444) " font-family="Helvetica,sans-serif" font-size="20px" stroke="none" fill="black" >FilesTo(Migrate|Recall)ListRequest</text>
<text transform="translate(1.2307,-2.2824) scale(1,-1) scale(0.0069444) " font-family="Helvetica,sans-serif" font-size="20px" stroke="none" fill="black" > </text>
<line x1="0.06" y1="-2.4" x2="2.44" y2="-2.4" stroke-width="0.0094118" />
<polygon points="2.34,-2.375 2.44,-2.4 2.34,-2.425 " stroke-width="0.0094118" fill="black" />
<text transform="translate(0.46028,-2.3657) scale(1,-1) scale(0.0069444) " font-family="Helvetica,sans-serif" font-size="20px" stroke="none" fill="black" >FileTo(Migrate|Recall)List</text>
<text transform="translate(1.2307,-2.5324) scale(1,-1) scale(0.0069444) " font-family="Helvetica,sans-serif" font-size="20px" stroke="none" fill="black" > </text>
<line x1="2.44" y1="-2.65" x2="0.06" y2="-2.65" stroke-width="0.0094118" />
<polygon points="0.16,-2.675 0.06,-2.65 0.16,-2.625 " stroke-width="0.0094118" fill="black" />
<text transform="translate(0.73278,-2.6157) scale(1,-1) scale(0.0069444) " font-family="Helvetica,sans-serif" font-size="20px" stroke="none" fill="black" >close connection</text>
<text transform="translate(1.2307,-2.7824) scale(1,-1) scale(0.0069444) " font-family="Helvetica,sans-serif" font-size="20px" stroke="none" fill="black" > </text>
<line x1="-0.05" y1="-1.9" x2="-0.05" y2="-2.65" stroke-width="0.0094118" />
<line x1="0.05" y1="-1.9" x2="0.05" y2="-2.65" stroke-width="0.0094118" />
<line x1="-0.05" y1="-2.65" x2="0.05" y2="-2.65" stroke-width="0.0094118" />
<line x1="2.56" y1="-3.15" x2="4.94" y2="-3.15" stroke-width="0.0094118" />
<polygon points="4.84,-3.125 4.94,-3.15 4.84,-3.175 " stroke-width="0.0094118" fill="black" />
<text transform="translate(3.6612,-3.1157) scale(1,-1) scale(0.0069444) " font-family="Helvetica,sans-serif" font-size="20px" stroke="none" fill="black" >file</text>
<text transform="translate(3.7307,-3.2824) scale(1,-1) scale(0.0069444) " font-family="Helvetica,sans-serif" font-size="20px" stroke="none" fill="black" > </text>
<line x1="4.94" y1="-3.4" x2="2.56" y2="-3.4" stroke-width="0.0094118" />
<polygon points="2.66,-3.425 2.56,-3.4 2.66,-3.375 " stroke-width="0.0094118" fill="black" />
<text transform="translate(3.6419,-3.3657) scale(1,-1) scale(0.0069444) " font-family="Helvetica,sans-serif" font-size="20px" stroke="none" fill="black" >ack</text>
<text transform="translate(3.7307,-3.5324) scale(1,-1) scale(0.0069444) " font-family="Helvetica,sans-serif" font-size="20px" stroke="none" fill="black" > </text>
<line x1="2.56" y1="-3.9" x2="4.94" y2="-3.9" stroke-width="0.0094118" />
<polygon points="4.84,-3.875 4.94,-3.9 4.84,-3.925 " stroke-width="0.0094118" fill="black" />
<text transform="translate(3.0514,-3.8657) scale(1,-1) scale(0.0069444) " font-family="Helvetica,sans-serif" font-size="20px" stroke="none" fill="black" >request future callback</text>
<text transform="translate(3.7307,-4.0324) scale(1,-1) scale(0.0069444) " font-family="Helvetica,sans-serif" font-size="20px" stroke="none" fill="black" > </text>
<line x1="4.94" y1="-4.15" x2="2.56" y2="-4.15" stroke-width="0.0094118" />
<polygon points="2.66,-4.175 2.56,-4.15 2.66,-4.125 " stroke-width="0.0094118" fill="black" />
<text transform="translate(3.6419,-4.1157) scale(1,-1) scale(0.0069444) " font-family="Helvetica,sans-serif" font-size="20px" stroke="none" fill="black" >ack</text>
<text transform="translate(3.7307,-4.2824) scale(1,-1) scale(0.0069444) " font-family="Helvetica,sans-serif" font-size="20px" stroke="none" fill="black" > </text>
<line x1="2.56" y1="-4.65" x2="4.94" y2="-4.65" stroke-width="0.0094118" />
<polygon points="4.84,-4.625 4.94,-4.65 4.84,-4.675 " stroke-width="0.0094118" fill="black" />
<text transform="translate(3.2869,-4.6157) scale(1,-1) scale(0.0069444) " font-family="Helvetica,sans-serif" font-size="20px" stroke="none" fill="black" >end of work list</text>
<text transform="translate(3.7307,-4.7824) scale(1,-1) scale(0.0069444) " font-family="Helvetica,sans-serif" font-size="20px" stroke="none" fill="black" > </text>
<line x1="4.94" y1="-4.9" x2="2.56" y2="-4.9" stroke-width="0.0094118" />
<polygon points="2.66,-4.925 2.56,-4.9 2.66,-4.875 " stroke-width="0.0094118" fill="black" />
<text transform="translate(3.6419,-4.8657) scale(1,-1) scale(0.0069444) " font-family="Helvetica,sans-serif" font-size="20px" stroke="none" fill="black" >ack</text>
<text transform="translate(3.7307,-5.0324) scale(1,-1) scale(0.0069444) " font-family="Helvetica,sans-serif" font-size="20px" stroke="none" fill="black" > </text>
<line x1="2.56" y1="-5.4" x2="4.94" y2="-5.4" stroke-width="0.0094118" />
<polygon points="4.84,-5.375 4.94,-5.4 4.84,-5.425 " stroke-width="0.0094118" fill="black" />
<text transform="translate(2.8701,-5.3657) scale(1,-1) scale(0.0069444) " font-family="Helvetica,sans-serif" font-size="20px" stroke="none" fill="black" >ack of request for more work</text>
<text transform="translate(3.7307,-5.5324) scale(1,-1) scale(0.0069444) " font-family="Helvetica,sans-serif" font-size="20px" stroke="none" fill="black" > </text>
<line x1="2.45" y1="-0.9" x2="2.45" y2="-5.65" stroke-width="0.0094118" />
<line x1="2.55" y1="-0.9" x2="2.55" y2="-5.65" stroke-width="0.0094118" />
<line x1="2.45" y1="-5.65" x2="2.55" y2="-5.65" stroke-width="0.0094118" />
<line x1="4.95" y1="-0.9" x2="4.95" y2="-5.65" stroke-width="0.0094118" />
<line x1="5.05" y1="-0.9" x2="5.05" y2="-5.65" stroke-width="0.0094118" />
<line x1="4.95" y1="-5.65" x2="5.05" y2="-5.65" stroke-width="0.0094118" />
<line x1="0" y1="-2.65" x2="0" y2="-5.65" stroke-width="0.0094118" stroke-dasharray="0.05, 0.05"/>
</g>
</svg>
