<?xml version="1.0" encoding="ISO-8859-1" standalone="no"?>
<!DOCTYPE svg PUBLIC "-//W3C//DTD SVG 1.1//EN" "http://www.w3.org/Graphics/SVG/1.1/DTD/svg11.dtd">
<svg version="1.1" baseProfile="full" id="body" width="8in" height="8in" viewBox="0 0 1 1" preserveAspectRatio="none" xmlns="http://www.w3.org/2000/svg" xmlns:xlink="http://www.w3.org/1999/xlink" xmlns:ev="http://www.w3.org/2001/xml-events">
<title>SVG drawing</title>
<desc>This was produced by version 4.4 of GNU libplot, a free library for exporting 2-D vector graphics.</desc>
<rect id="background" x="0" y="0" width="1" height="1" stroke="none" fill="white"/>
<g id="content" transform="translate(0.39062,0.36562) scale(1,-1) scale(0.125) " xml:space="preserve" stroke="black" stroke-linecap="butt" stroke-linejoin="miter" stroke-miterlimit="10.433" stroke-dasharray="none" stroke-dashoffset="0" stroke-opacity="1" fill="none" fill-rule="evenodd" fill-opacity="1" font-style="normal" font-variant="normal" font-weight="normal" font-stretch="normal" font-size-adjust="none" letter-spacing="normal" word-spacing="normal" text-anchor="start">
<rect x="-0.375" y="-0.8" width="0.75" height="0.3" stroke-width="0.0094118" />
<text transform="translate(-0.25861,-0.69903) scale(1,-1) scale(0.0069444) " font-family="Helvetica,sans-serif" font-size="20px" stroke="none" fill="black" >gateway</text>
<line x1="-0.275" y1="-0.72" x2="0.275" y2="-0.72" stroke-width="0.0094118" />
<rect x="0.875" y="-0.8" width="0.75" height="0.3" stroke-width="0.0094118" />
<text transform="translate(1.057,-0.69903) scale(1,-1) scale(0.0069444) " font-family="Helvetica,sans-serif" font-size="20px" stroke="none" fill="black" >bridge</text>
<line x1="0.975" y1="-0.72" x2="1.525" y2="-0.72" stroke-width="0.0094118" />
<line x1="1.25" y1="-0.8" x2="1.25" y2="-0.9" stroke-width="0.0094118" stroke-dasharray="0.05, 0.05"/>
<line x1="1.2" y1="-0.9" x2="1.3" y2="-0.9" stroke-width="0.0094118" />
<line x1="1.19" y1="-1.15" x2="0.06" y2="-1.15" stroke-width="0.0094118" />
<polygon points="0.16,-1.175 0.06,-1.15 0.16,-1.125 " stroke-width="0.0094118" fill="black" />
<text transform="translate(0.38181,-1.1157) scale(1,-1) scale(0.0069444) " font-family="Helvetica,sans-serif" font-size="20px" stroke="none" fill="black" >connect</text>
<text transform="translate(0.60569,-1.2824) scale(1,-1) scale(0.0069444) " font-family="Helvetica,sans-serif" font-size="20px" stroke="none" fill="black" > </text>
<line x1="0" y1="-0.8" x2="0" y2="-1.15" stroke-width="0.0094118" stroke-dasharray="0.05, 0.05"/>
<line x1="-0.05" y1="-1.15" x2="0.05" y2="-1.15" stroke-width="0.0094118" />
<line x1="1.19" y1="-1.4" x2="0.06" y2="-1.4" stroke-width="0.0094118" />
<polygon points="0.16,-1.425 0.06,-1.4 0.16,-1.375 " stroke-width="0.0094118" fill="black" />
<text transform="translate(0.13097,-1.3657) scale(1,-1) scale(0.0069444) " font-family="Helvetica,sans-serif" font-size="20px" stroke="none" fill="black" >VolumeRequest</text>
<text transform="translate(0.60569,-1.5324) scale(1,-1) scale(0.0069444) " font-family="Helvetica,sans-serif" font-size="20px" stroke="none" fill="black" > </text>
<line x1="0.06" y1="-1.65" x2="1.19" y2="-1.65" stroke-width="0.0094118" />
<polygon points="1.09,-1.625 1.19,-1.65 1.09,-1.675 " stroke-width="0.0094118" fill="black" />
<text transform="translate(0.38958,-1.6157) scale(1,-1) scale(0.0069444) " font-family="Helvetica,sans-serif" font-size="20px" stroke="none" fill="black" >Volume</text>
<text transform="translate(0.60569,-1.7824) scale(1,-1) scale(0.0069444) " font-family="Helvetica,sans-serif" font-size="20px" stroke="none" fill="black" > </text>
<line x1="1.19" y1="-1.9" x2="0.06" y2="-1.9" stroke-width="0.0094118" />
<polygon points="0.16,-1.925 0.06,-1.9 0.16,-1.875 " stroke-width="0.0094118" fill="black" />
<text transform="translate(0.10778,-1.8657) scale(1,-1) scale(0.0069444) " font-family="Helvetica,sans-serif" font-size="20px" stroke="none" fill="black" >close connection</text>
<text transform="translate(0.60569,-2.0324) scale(1,-1) scale(0.0069444) " font-family="Helvetica,sans-serif" font-size="20px" stroke="none" fill="black" > </text>
<line x1="-0.05" y1="-1.15" x2="-0.05" y2="-1.9" stroke-width="0.0094118" />
<line x1="0.05" y1="-1.15" x2="0.05" y2="-1.9" stroke-width="0.0094118" />
<line x1="-0.05" y1="-1.9" x2="0.05" y2="-1.9" stroke-width="0.0094118" />
<line x1="1.2" y1="-0.9" x2="1.2" y2="-2.15" stroke-width="0.0094118" />
<line x1="1.3" y1="-0.9" x2="1.3" y2="-2.15" stroke-width="0.0094118" />
<line x1="1.2" y1="-2.15" x2="1.3" y2="-2.15" stroke-width="0.0094118" />
<line x1="1.25" y1="-2.15" x2="1.25" y2="-2.15" stroke-width="0.0094118" stroke-dasharray="0.05, 0.05"/>
<line x1="0" y1="-1.9" x2="0" y2="-2.15" stroke-width="0.0094118" stroke-dasharray="0.05, 0.05"/>
</g>
</svg>
