<?xml version="1.0" encoding="ISO-8859-1" standalone="no"?>
<!DOCTYPE svg PUBLIC "-//W3C//DTD SVG 1.1//EN" "http://www.w3.org/Graphics/SVG/1.1/DTD/svg11.dtd">
<svg version="1.1" baseProfile="full" id="body" width="8in" height="8in" viewBox="0 0 1 1" preserveAspectRatio="none" xmlns="http://www.w3.org/2000/svg" xmlns:xlink="http://www.w3.org/1999/xlink" xmlns:ev="http://www.w3.org/2001/xml-events">
<title>SVG drawing</title>
<desc>This was produced by version 4.4 of GNU libplot, a free library for exporting 2-D vector graphics.</desc>
<rect id="background" x="0" y="0" width="1" height="1" stroke="none" fill="white"/>
<g id="content" transform="translate(0.078125,0.24062) scale(1,-1) scale(0.125) " xml:space="preserve" stroke="black" stroke-linecap="butt" stroke-linejoin="miter" stroke-miterlimit="10.433" stroke-dasharray="none" stroke-dashoffset="0" stroke-opacity="1" fill="none" fill-rule="evenodd" fill-opacity="1" font-style="normal" font-variant="normal" font-weight="normal" font-stretch="normal" font-size-adjust="none" letter-spacing="normal" word-spacing="normal" text-anchor="start">
<rect x="-0.375" y="-0.8" width="0.75" height="0.3" stroke-width="0.0094118" />
<text transform="translate(-0.25861,-0.69903) scale(1,-1) scale(0.0069444) " font-family="Helvetica,sans-serif" font-size="20px" stroke="none" fill="black" >gateway</text>
<line x1="-0.275" y1="-0.72" x2="0.275" y2="-0.72" stroke-width="0.0094118" />
<rect x="2.125" y="-0.8" width="0.75" height="0.3" stroke-width="0.0094118" />
<text transform="translate(2.307,-0.69903) scale(1,-1) scale(0.0069444) " font-family="Helvetica,sans-serif" font-size="20px" stroke="none" fill="black" >bridge</text>
<line x1="2.225" y1="-0.72" x2="2.775" y2="-0.72" stroke-width="0.0094118" />
<rect x="5.875" y="-0.8" width="0.75" height="0.3" stroke-width="0.0094118" />
<text transform="translate(5.9335,-0.69903) scale(1,-1) scale(0.0069444) " font-family="Helvetica,sans-serif" font-size="20px" stroke="none" fill="black" >rtcpd child</text>
<line x1="5.975" y1="-0.72" x2="6.525" y2="-0.72" stroke-width="0.0094118" />
<line x1="6.25" y1="-0.8" x2="6.25" y2="-0.9" stroke-width="0.0094118" stroke-dasharray="0.05, 0.05"/>
<line x1="6.2" y1="-0.9" x2="6.3" y2="-0.9" stroke-width="0.0094118" />
<line x1="6.19" y1="-1.15" x2="2.56" y2="-1.15" stroke-width="0.0094118" />
<polygon points="2.66,-1.175 2.56,-1.15 2.66,-1.125 " stroke-width="0.0094118" fill="black" />
<text transform="translate(3.3985,-1.1157) scale(1,-1) scale(0.0069444) " font-family="Helvetica,sans-serif" font-size="20px" stroke="none" fill="black" >positioned for file (tape request)</text>
<text transform="translate(4.3557,-1.2824) scale(1,-1) scale(0.0069444) " font-family="Helvetica,sans-serif" font-size="20px" stroke="none" fill="black" > </text>
<line x1="2.5" y1="-0.8" x2="2.5" y2="-1.15" stroke-width="0.0094118" stroke-dasharray="0.05, 0.05"/>
<line x1="2.45" y1="-1.15" x2="2.55" y2="-1.15" stroke-width="0.0094118" />
<line x1="2.56" y1="-1.4" x2="6.19" y2="-1.4" stroke-width="0.0094118" />
<polygon points="6.09,-1.375 6.19,-1.4 6.09,-1.425 " stroke-width="0.0094118" fill="black" />
<text transform="translate(4.2669,-1.3657) scale(1,-1) scale(0.0069444) " font-family="Helvetica,sans-serif" font-size="20px" stroke="none" fill="black" >ack</text>
<text transform="translate(4.3557,-1.5324) scale(1,-1) scale(0.0069444) " font-family="Helvetica,sans-serif" font-size="20px" stroke="none" fill="black" > </text>
<line x1="2.45" y1="-1.15" x2="2.45" y2="-1.4" stroke-width="0.0094118" />
<line x1="2.55" y1="-1.15" x2="2.55" y2="-1.4" stroke-width="0.0094118" />
<line x1="2.45" y1="-1.4" x2="2.55" y2="-1.4" stroke-width="0.0094118" />
<line x1="6.19" y1="-1.9" x2="2.56" y2="-1.9" stroke-width="0.0094118" />
<polygon points="2.66,-1.925 2.56,-1.9 2.66,-1.875 " stroke-width="0.0094118" fill="black" />
<text transform="translate(3.4449,-1.8657) scale(1,-1) scale(0.0069444) " font-family="Helvetica,sans-serif" font-size="20px" stroke="none" fill="black" >positioned for file (file request)</text>
<text transform="translate(4.3557,-2.0324) scale(1,-1) scale(0.0069444) " font-family="Helvetica,sans-serif" font-size="20px" stroke="none" fill="black" > </text>
<line x1="2.5" y1="-1.4" x2="2.5" y2="-1.9" stroke-width="0.0094118" stroke-dasharray="0.05, 0.05"/>
<line x1="2.45" y1="-1.9" x2="2.55" y2="-1.9" stroke-width="0.0094118" />
<line x1="2.56" y1="-2.15" x2="6.19" y2="-2.15" stroke-width="0.0094118" />
<polygon points="6.09,-2.125 6.19,-2.15 6.09,-2.175 " stroke-width="0.0094118" fill="black" />
<text transform="translate(4.2669,-2.1157) scale(1,-1) scale(0.0069444) " font-family="Helvetica,sans-serif" font-size="20px" stroke="none" fill="black" >ack</text>
<text transform="translate(4.3557,-2.2824) scale(1,-1) scale(0.0069444) " font-family="Helvetica,sans-serif" font-size="20px" stroke="none" fill="black" > </text>
<line x1="2.45" y1="-1.9" x2="2.45" y2="-2.15" stroke-width="0.0094118" />
<line x1="2.55" y1="-1.9" x2="2.55" y2="-2.15" stroke-width="0.0094118" />
<line x1="2.45" y1="-2.15" x2="2.55" y2="-2.15" stroke-width="0.0094118" />
<line x1="6.19" y1="-2.65" x2="2.56" y2="-2.65" stroke-width="0.0094118" />
<polygon points="2.66,-2.675 2.56,-2.65 2.66,-2.625 " stroke-width="0.0094118" fill="black" />
<text transform="translate(4.0238,-2.6157) scale(1,-1) scale(0.0069444) " font-family="Helvetica,sans-serif" font-size="20px" stroke="none" fill="black" >file recalled</text>
<text transform="translate(4.3557,-2.7824) scale(1,-1) scale(0.0069444) " font-family="Helvetica,sans-serif" font-size="20px" stroke="none" fill="black" > </text>
<line x1="2.5" y1="-2.15" x2="2.5" y2="-2.65" stroke-width="0.0094118" stroke-dasharray="0.05, 0.05"/>
<line x1="2.45" y1="-2.65" x2="2.55" y2="-2.65" stroke-width="0.0094118" />
<line x1="2.56" y1="-2.9" x2="6.19" y2="-2.9" stroke-width="0.0094118" />
<polygon points="6.09,-2.875 6.19,-2.9 6.09,-2.925 " stroke-width="0.0094118" fill="black" />
<text transform="translate(4.2669,-2.8657) scale(1,-1) scale(0.0069444) " font-family="Helvetica,sans-serif" font-size="20px" stroke="none" fill="black" >ack</text>
<text transform="translate(4.3557,-3.0324) scale(1,-1) scale(0.0069444) " font-family="Helvetica,sans-serif" font-size="20px" stroke="none" fill="black" > </text>
<line x1="6.2" y1="-0.9" x2="6.2" y2="-2.9" stroke-width="0.0094118" />
<line x1="6.3" y1="-0.9" x2="6.3" y2="-2.9" stroke-width="0.0094118" />
<line x1="6.2" y1="-2.9" x2="6.3" y2="-2.9" stroke-width="0.0094118" />
<line x1="2.44" y1="-3.15" x2="0.06" y2="-3.15" stroke-width="0.0094118" />
<polygon points="0.16,-3.175 0.06,-3.15 0.16,-3.125 " stroke-width="0.0094118" fill="black" />
<text transform="translate(1.0068,-3.1157) scale(1,-1) scale(0.0069444) " font-family="Helvetica,sans-serif" font-size="20px" stroke="none" fill="black" >connect</text>
<text transform="translate(1.2307,-3.2824) scale(1,-1) scale(0.0069444) " font-family="Helvetica,sans-serif" font-size="20px" stroke="none" fill="black" > </text>
<line x1="0" y1="-0.8" x2="0" y2="-3.15" stroke-width="0.0094118" stroke-dasharray="0.05, 0.05"/>
<line x1="-0.05" y1="-3.15" x2="0.05" y2="-3.15" stroke-width="0.0094118" />
<line x1="2.44" y1="-3.4" x2="0.06" y2="-3.4" stroke-width="0.0094118" />
<polygon points="0.16,-3.425 0.06,-3.4 0.16,-3.375 " stroke-width="0.0094118" fill="black" />
<text transform="translate(0.52451,-3.3657) scale(1,-1) scale(0.0069444) " font-family="Helvetica,sans-serif" font-size="20px" stroke="none" fill="black" >FileRecalledNotification</text>
<text transform="translate(1.2307,-3.5324) scale(1,-1) scale(0.0069444) " font-family="Helvetica,sans-serif" font-size="20px" stroke="none" fill="black" > </text>
<line x1="0.06" y1="-3.65" x2="2.44" y2="-3.65" stroke-width="0.0094118" />
<polygon points="2.34,-3.625 2.44,-3.65 2.34,-3.675 " stroke-width="0.0094118" fill="black" />
<text transform="translate(0.49354,-3.6157) scale(1,-1) scale(0.0069444) " font-family="Helvetica,sans-serif" font-size="20px" stroke="none" fill="black" >NotificationAcknowledge</text>
<text transform="translate(1.2307,-3.7824) scale(1,-1) scale(0.0069444) " font-family="Helvetica,sans-serif" font-size="20px" stroke="none" fill="black" > </text>
<line x1="2.44" y1="-3.9" x2="0.06" y2="-3.9" stroke-width="0.0094118" />
<polygon points="0.16,-3.925 0.06,-3.9 0.16,-3.875 " stroke-width="0.0094118" fill="black" />
<text transform="translate(0.73278,-3.8657) scale(1,-1) scale(0.0069444) " font-family="Helvetica,sans-serif" font-size="20px" stroke="none" fill="black" >close connection</text>
<text transform="translate(1.2307,-4.0324) scale(1,-1) scale(0.0069444) " font-family="Helvetica,sans-serif" font-size="20px" stroke="none" fill="black" > </text>
<line x1="-0.05" y1="-3.15" x2="-0.05" y2="-3.9" stroke-width="0.0094118" />
<line x1="0.05" y1="-3.15" x2="0.05" y2="-3.9" stroke-width="0.0094118" />
<line x1="-0.05" y1="-3.9" x2="0.05" y2="-3.9" stroke-width="0.0094118" />
<line x1="2.45" y1="-2.65" x2="2.45" y2="-4.15" stroke-width="0.0094118" />
<line x1="2.55" y1="-2.65" x2="2.55" y2="-4.15" stroke-width="0.0094118" />
<line x1="2.45" y1="-4.15" x2="2.55" y2="-4.15" stroke-width="0.0094118" />
<line x1="6.25" y1="-2.9" x2="6.25" y2="-4.15" stroke-width="0.0094118" stroke-dasharray="0.05, 0.05"/>
<line x1="2.5" y1="-4.15" x2="2.5" y2="-4.15" stroke-width="0.0094118" stroke-dasharray="0.05, 0.05"/>
<line x1="0" y1="-3.9" x2="0" y2="-4.15" stroke-width="0.0094118" stroke-dasharray="0.05, 0.05"/>
</g>
</svg>
