<?xml version="1.0" encoding="ISO-8859-1" standalone="no"?>
<!DOCTYPE svg PUBLIC "-//W3C//DTD SVG 1.1//EN" "http://www.w3.org/Graphics/SVG/1.1/DTD/svg11.dtd">
<svg version="1.1" baseProfile="full" id="body" width="8in" height="8in" viewBox="0 0 1 1" preserveAspectRatio="none" xmlns="http://www.w3.org/2000/svg" xmlns:xlink="http://www.w3.org/1999/xlink" xmlns:ev="http://www.w3.org/2001/xml-events">
<title>SVG drawing</title>
<desc>This was produced by version 4.4 of GNU libplot, a free library for exporting 2-D vector graphics.</desc>
<rect id="background" x="0" y="0" width="1" height="1" stroke="none" fill="white"/>
<g id="content" transform="translate(0.15625,0.17812) scale(1,-1) scale(0.125) " xml:space="preserve" stroke="black" stroke-linecap="butt" stroke-linejoin="miter" stroke-miterlimit="10.433" stroke-dasharray="none" stroke-dashoffset="0" stroke-opacity="1" fill="none" fill-rule="evenodd" fill-opacity="1" font-style="normal" font-variant="normal" font-weight="normal" font-stretch="normal" font-size-adjust="none" letter-spacing="normal" word-spacing="normal" text-anchor="start">
<rect x="-0.375" y="-0.55" width="0.75" height="0.3" stroke-width="0.0094118" />
<text transform="translate(-0.25861,-0.44903) scale(1,-1) scale(0.0069444) " font-family="Helvetica,sans-serif" font-size="20px" stroke="none" fill="black" >gateway</text>
<line x1="-0.275" y1="-0.47" x2="0.275" y2="-0.47" stroke-width="0.0094118" />
<rect x="0.875" y="-0.55" width="0.75" height="0.3" stroke-width="0.0094118" />
<text transform="translate(0.89486,-0.44903) scale(1,-1) scale(0.0069444) " font-family="Helvetica,sans-serif" font-size="20px" stroke="none" fill="black" >gateway db</text>
<line x1="0.975" y1="-0.47" x2="1.525" y2="-0.47" stroke-width="0.0094118" />
<rect x="2.125" y="-0.55" width="0.75" height="0.3" stroke-width="0.0094118" />
<text transform="translate(2.3302,-0.44903) scale(1,-1) scale(0.0069444) " font-family="Helvetica,sans-serif" font-size="20px" stroke="none" fill="black" >vdqm</text>
<line x1="2.225" y1="-0.47" x2="2.775" y2="-0.47" stroke-width="0.0094118" />
<rect x="3.375" y="-0.55" width="0.75" height="0.3" stroke-width="0.0094118" />
<text transform="translate(3.4837,-0.44903) scale(1,-1) scale(0.0069444) " font-family="Helvetica,sans-serif" font-size="20px" stroke="none" fill="black" >vdqm db</text>
<line x1="3.475" y1="-0.47" x2="4.025" y2="-0.47" stroke-width="0.0094118" />
<rect x="4.625" y="-0.55" width="0.75" height="0.3" stroke-width="0.0094118" />
<text transform="translate(4.8456,-0.44903) scale(1,-1) scale(0.0069444) " font-family="Helvetica,sans-serif" font-size="20px" stroke="none" fill="black" >rtcpd</text>
<line x1="4.725" y1="-0.47" x2="5.275" y2="-0.47" stroke-width="0.0094118" />
<line x1="0" y1="-0.55" x2="0" y2="-0.65" stroke-width="0.0094118" stroke-dasharray="0.05, 0.05"/>
<line x1="-0.05" y1="-0.65" x2="0.05" y2="-0.65" stroke-width="0.0094118" />
<line x1="0.06" y1="-0.9" x2="2.44" y2="-0.9" stroke-width="0.0094118" />
<polygon points="2.34,-0.875 2.44,-0.9 2.34,-0.925 " stroke-width="0.0094118" fill="black" />
<text transform="translate(1.0068,-0.86569) scale(1,-1) scale(0.0069444) " font-family="Helvetica,sans-serif" font-size="20px" stroke="none" fill="black" >connect</text>
<text transform="translate(1.2307,-1.0324) scale(1,-1) scale(0.0069444) " font-family="Helvetica,sans-serif" font-size="20px" stroke="none" fill="black" > </text>
<line x1="2.5" y1="-0.55" x2="2.5" y2="-0.9" stroke-width="0.0094118" stroke-dasharray="0.05, 0.05"/>
<line x1="2.45" y1="-0.9" x2="2.55" y2="-0.9" stroke-width="0.0094118" />
<line x1="0.06" y1="-1.15" x2="2.44" y2="-1.15" stroke-width="0.0094118" />
<polygon points="2.34,-1.125 2.44,-1.15 2.34,-1.175 " stroke-width="0.0094118" fill="black" />
<text transform="translate(0.675,-1.1157) scale(1,-1) scale(0.0069444) " font-family="Helvetica,sans-serif" font-size="20px" stroke="none" fill="black" >VDQM_VOL_REQ</text>
<text transform="translate(1.2307,-1.2824) scale(1,-1) scale(0.0069444) " font-family="Helvetica,sans-serif" font-size="20px" stroke="none" fill="black" > </text>
<line x1="2.44" y1="-1.4" x2="0.06" y2="-1.4" stroke-width="0.0094118" />
<polygon points="0.16,-1.425 0.06,-1.4 0.16,-1.375 " stroke-width="0.0094118" fill="black" />
<text transform="translate(0.72146,-1.3657) scale(1,-1) scale(0.0069444) " font-family="Helvetica,sans-serif" font-size="20px" stroke="none" fill="black" >VDQM_COMMIT</text>
<text transform="translate(1.2307,-1.5324) scale(1,-1) scale(0.0069444) " font-family="Helvetica,sans-serif" font-size="20px" stroke="none" fill="black" > </text>
<line x1="2.56" y1="-1.65" x2="3.69" y2="-1.65" stroke-width="0.0094118" />
<polygon points="3.59,-1.625 3.69,-1.65 3.59,-1.675 " stroke-width="0.0094118" fill="black" />
<text transform="translate(2.631,-1.6157) scale(1,-1) scale(0.0069444) " font-family="Helvetica,sans-serif" font-size="20px" stroke="none" fill="black" >start transaction</text>
<text transform="translate(3.1057,-1.7824) scale(1,-1) scale(0.0069444) " font-family="Helvetica,sans-serif" font-size="20px" stroke="none" fill="black" > </text>
<line x1="3.75" y1="-0.55" x2="3.75" y2="-1.65" stroke-width="0.0094118" stroke-dasharray="0.05, 0.05"/>
<line x1="3.7" y1="-1.65" x2="3.8" y2="-1.65" stroke-width="0.0094118" />
<line x1="2.56" y1="-1.9" x2="3.69" y2="-1.9" stroke-width="0.0094118" />
<polygon points="3.59,-1.875 3.69,-1.9 3.59,-1.925 " stroke-width="0.0094118" fill="black" />
<text transform="translate(2.6619,-1.8657) scale(1,-1) scale(0.0069444) " font-family="Helvetica,sans-serif" font-size="20px" stroke="none" fill="black" >insert volReqId</text>
<text transform="translate(3.1057,-2.0324) scale(1,-1) scale(0.0069444) " font-family="Helvetica,sans-serif" font-size="20px" stroke="none" fill="black" > </text>
<line x1="2.44" y1="-2.15" x2="0.06" y2="-2.15" stroke-width="0.0094118" />
<polygon points="0.16,-2.175 0.06,-2.15 0.16,-2.125 " stroke-width="0.0094118" fill="black" />
<text transform="translate(0.675,-2.1157) scale(1,-1) scale(0.0069444) " font-family="Helvetica,sans-serif" font-size="20px" stroke="none" fill="black" >VDQM_VOL_REQ</text>
<text transform="translate(1.2307,-2.2824) scale(1,-1) scale(0.0069444) " font-family="Helvetica,sans-serif" font-size="20px" stroke="none" fill="black" > </text>
<line x1="0.06" y1="-2.4" x2="1.19" y2="-2.4" stroke-width="0.0094118" />
<polygon points="1.09,-2.375 1.19,-2.4 1.09,-2.425 " stroke-width="0.0094118" fill="black" />
<text transform="translate(0.13097,-2.3657) scale(1,-1) scale(0.0069444) " font-family="Helvetica,sans-serif" font-size="20px" stroke="none" fill="black" >start transaction</text>
<text transform="translate(0.60569,-2.5324) scale(1,-1) scale(0.0069444) " font-family="Helvetica,sans-serif" font-size="20px" stroke="none" fill="black" > </text>
<line x1="1.25" y1="-0.55" x2="1.25" y2="-2.4" stroke-width="0.0094118" stroke-dasharray="0.05, 0.05"/>
<line x1="1.2" y1="-2.4" x2="1.3" y2="-2.4" stroke-width="0.0094118" />
<line x1="0.06" y1="-2.65" x2="1.19" y2="-2.65" stroke-width="0.0094118" />
<polygon points="1.09,-2.625 1.19,-2.65 1.09,-2.675 " stroke-width="0.0094118" fill="black" />
<text transform="translate(0.16187,-2.6157) scale(1,-1) scale(0.0069444) " font-family="Helvetica,sans-serif" font-size="20px" stroke="none" fill="black" >insert volReqId</text>
<text transform="translate(0.60569,-2.7824) scale(1,-1) scale(0.0069444) " font-family="Helvetica,sans-serif" font-size="20px" stroke="none" fill="black" > </text>
<line x1="0.06" y1="-2.9" x2="1.19" y2="-2.9" stroke-width="0.0094118" />
<polygon points="1.09,-2.875 1.19,-2.9 1.09,-2.925 " stroke-width="0.0094118" fill="black" />
<text transform="translate(0.40125,-2.8657) scale(1,-1) scale(0.0069444) " font-family="Helvetica,sans-serif" font-size="20px" stroke="none" fill="black" >commit</text>
<text transform="translate(0.60569,-3.0324) scale(1,-1) scale(0.0069444) " font-family="Helvetica,sans-serif" font-size="20px" stroke="none" fill="black" > </text>
<line x1="1.2" y1="-2.4" x2="1.2" y2="-2.9" stroke-width="0.0094118" />
<line x1="1.3" y1="-2.4" x2="1.3" y2="-2.9" stroke-width="0.0094118" />
<line x1="1.2" y1="-2.9" x2="1.3" y2="-2.9" stroke-width="0.0094118" />
<line x1="0.06" y1="-3.15" x2="2.44" y2="-3.15" stroke-width="0.0094118" />
<polygon points="2.34,-3.125 2.44,-3.15 2.34,-3.175 " stroke-width="0.0094118" fill="black" />
<text transform="translate(0.72146,-3.1157) scale(1,-1) scale(0.0069444) " font-family="Helvetica,sans-serif" font-size="20px" stroke="none" fill="black" >VDQM_COMMIT</text>
<text transform="translate(1.2307,-3.2824) scale(1,-1) scale(0.0069444) " font-family="Helvetica,sans-serif" font-size="20px" stroke="none" fill="black" > </text>
<line x1="2.56" y1="-3.4" x2="3.69" y2="-3.4" stroke-width="0.0094118" />
<polygon points="3.59,-3.375 3.69,-3.4 3.59,-3.425 " stroke-width="0.0094118" fill="black" />
<text transform="translate(2.9013,-3.3657) scale(1,-1) scale(0.0069444) " font-family="Helvetica,sans-serif" font-size="20px" stroke="none" fill="black" >commit</text>
<text transform="translate(3.1057,-3.5324) scale(1,-1) scale(0.0069444) " font-family="Helvetica,sans-serif" font-size="20px" stroke="none" fill="black" > </text>
<line x1="3.7" y1="-1.65" x2="3.7" y2="-3.4" stroke-width="0.0094118" />
<line x1="3.8" y1="-1.65" x2="3.8" y2="-3.4" stroke-width="0.0094118" />
<line x1="3.7" y1="-3.4" x2="3.8" y2="-3.4" stroke-width="0.0094118" />
<line x1="0.06" y1="-3.65" x2="2.44" y2="-3.65" stroke-width="0.0094118" />
<polygon points="2.34,-3.625 2.44,-3.65 2.34,-3.675 " stroke-width="0.0094118" fill="black" />
<text transform="translate(0.73278,-3.6157) scale(1,-1) scale(0.0069444) " font-family="Helvetica,sans-serif" font-size="20px" stroke="none" fill="black" >close connection</text>
<text transform="translate(1.2307,-3.7824) scale(1,-1) scale(0.0069444) " font-family="Helvetica,sans-serif" font-size="20px" stroke="none" fill="black" > </text>
<line x1="2.45" y1="-0.9" x2="2.45" y2="-3.65" stroke-width="0.0094118" />
<line x1="2.55" y1="-0.9" x2="2.55" y2="-3.65" stroke-width="0.0094118" />
<line x1="2.45" y1="-3.65" x2="2.55" y2="-3.65" stroke-width="0.0094118" />
<line x1="-0.05" y1="-0.65" x2="-0.05" y2="-3.65" stroke-width="0.0094118" />
<line x1="0.05" y1="-0.65" x2="0.05" y2="-3.65" stroke-width="0.0094118" />
<line x1="-0.05" y1="-3.65" x2="0.05" y2="-3.65" stroke-width="0.0094118" />
<line x1="2.5" y1="-3.65" x2="2.5" y2="-3.9" stroke-width="0.0094118" stroke-dasharray="0.05, 0.05"/>
<line x1="2.45" y1="-3.9" x2="2.55" y2="-3.9" stroke-width="0.0094118" />
<polyline points="2.56,-4.15 3.06,-4.15 3.06,-4.4 2.56,-4.4 " stroke-width="0.0094118" />
<polygon points="2.66,-4.425 2.56,-4.4 2.66,-4.375 " stroke-width="0.0094118" fill="black" />
<text transform="translate(2.56,-4.074) scale(1,-1) scale(0.0069444) " font-family="Helvetica,sans-serif" font-size="20px" stroke="none" fill="black" >submitJob</text>
<text transform="translate(2.5407,-4.2407) scale(1,-1) scale(0.0069444) " font-family="Helvetica,sans-serif" font-size="20px" stroke="none" fill="black" > </text>
<text transform="translate(2.5407,-4.4074) scale(1,-1) scale(0.0069444) " font-family="Helvetica,sans-serif" font-size="20px" stroke="none" fill="black" > </text>
<text transform="translate(2.5407,-4.574) scale(1,-1) scale(0.0069444) " font-family="Helvetica,sans-serif" font-size="20px" stroke="none" fill="black" > </text>
<line x1="2.56" y1="-4.65" x2="4.94" y2="-4.65" stroke-width="0.0094118" />
<polygon points="4.84,-4.625 4.94,-4.65 4.84,-4.675 " stroke-width="0.0094118" fill="black" />
<text transform="translate(3.0902,-4.6157) scale(1,-1) scale(0.0069444) " font-family="Helvetica,sans-serif" font-size="20px" stroke="none" fill="black" >VDQM_CLIENTINFO</text>
<text transform="translate(3.7307,-4.7824) scale(1,-1) scale(0.0069444) " font-family="Helvetica,sans-serif" font-size="20px" stroke="none" fill="black" > </text>
<line x1="2.45" y1="-3.9" x2="2.45" y2="-4.65" stroke-width="0.0094118" />
<line x1="2.55" y1="-3.9" x2="2.55" y2="-4.65" stroke-width="0.0094118" />
<line x1="2.45" y1="-4.65" x2="2.55" y2="-4.65" stroke-width="0.0094118" />
<line x1="0" y1="-3.65" x2="0" y2="-4.9" stroke-width="0.0094118" stroke-dasharray="0.05, 0.05"/>
<line x1="1.25" y1="-2.9" x2="1.25" y2="-4.9" stroke-width="0.0094118" stroke-dasharray="0.05, 0.05"/>
<line x1="2.5" y1="-4.65" x2="2.5" y2="-4.9" stroke-width="0.0094118" stroke-dasharray="0.05, 0.05"/>
<line x1="3.75" y1="-3.4" x2="3.75" y2="-4.9" stroke-width="0.0094118" stroke-dasharray="0.05, 0.05"/>
</g>
</svg>
