<?xml version="1.0" encoding="ISO-8859-1" standalone="no"?>
<!DOCTYPE svg PUBLIC "-//W3C//DTD SVG 1.1//EN" "http://www.w3.org/Graphics/SVG/1.1/DTD/svg11.dtd">
<svg version="1.1" baseProfile="full" id="body" width="8in" height="8in" viewBox="0 0 1 1" preserveAspectRatio="none" xmlns="http://www.w3.org/2000/svg" xmlns:xlink="http://www.w3.org/1999/xlink" xmlns:ev="http://www.w3.org/2001/xml-events">
<title>SVG drawing</title>
<desc>This was produced by version 4.4 of GNU libplot, a free library for exporting 2-D vector graphics.</desc>
<rect id="background" x="0" y="0" width="1" height="1" stroke="none" fill="white"/>
<g id="content" transform="translate(0.26562,-0.06875) scale(1,-1) scale(0.125) " xml:space="preserve" stroke="black" stroke-linecap="butt" stroke-linejoin="miter" stroke-miterlimit="10.433" stroke-dasharray="none" stroke-dashoffset="0" stroke-opacity="1" fill="none" fill-rule="evenodd" fill-opacity="1" font-style="normal" font-variant="normal" font-weight="normal" font-stretch="normal" font-size-adjust="none" letter-spacing="normal" word-spacing="normal" text-anchor="start">
<rect x="0" y="-0.15" width="0.75" height="0.3" stroke-width="0.0094118" />
<text transform="translate(0.11639,-0.049028) scale(1,-1) scale(0.0069444) " font-family="Helvetica,sans-serif" font-size="20px" stroke="none" fill="black" >gateway</text>
<line x1="0.1" y1="-0.07" x2="0.65" y2="-0.07" stroke-width="0.0094118" />
<rect x="1.25" y="-0.15" width="0.75" height="0.3" stroke-width="0.0094118" />
<text transform="translate(1.4552,-0.049028) scale(1,-1) scale(0.0069444) " font-family="Helvetica,sans-serif" font-size="20px" stroke="none" fill="black" >vdqm</text>
<line x1="1.35" y1="-0.07" x2="1.9" y2="-0.07" stroke-width="0.0094118" />
<rect x="2.5" y="-0.15" width="0.75" height="0.3" stroke-width="0.0094118" />
<text transform="translate(2.5392,-0.049028) scale(1,-1) scale(0.0069444) " font-family="Helvetica,sans-serif" font-size="20px" stroke="none" fill="black" >aggregator</text>
<line x1="2.6" y1="-0.07" x2="3.15" y2="-0.07" stroke-width="0.0094118" />
<line x1="0.375" y1="-0.15" x2="0.375" y2="-0.25" stroke-width="0.0094118" stroke-dasharray="0.05, 0.05"/>
<line x1="0.325" y1="-0.25" x2="0.425" y2="-0.25" stroke-width="0.0094118" />
<line x1="0.435" y1="-0.5" x2="1.565" y2="-0.5" stroke-width="0.0094118" />
<polygon points="1.465,-0.475 1.565,-0.5 1.465,-0.525 " stroke-width="0.0094118" fill="black" />
<text transform="translate(0.75681,-0.46569) scale(1,-1) scale(0.0069444) " font-family="Helvetica,sans-serif" font-size="20px" stroke="none" fill="black" >connect</text>
<text transform="translate(0.98069,-0.63236) scale(1,-1) scale(0.0069444) " font-family="Helvetica,sans-serif" font-size="20px" stroke="none" fill="black" > </text>
<line x1="1.625" y1="-0.15" x2="1.625" y2="-0.5" stroke-width="0.0094118" stroke-dasharray="0.05, 0.05"/>
<line x1="1.575" y1="-0.5" x2="1.675" y2="-0.5" stroke-width="0.0094118" />
<line x1="0.435" y1="-0.75" x2="1.565" y2="-0.75" stroke-width="0.0094118" />
<polygon points="1.465,-0.725 1.565,-0.75 1.465,-0.775 " stroke-width="0.0094118" fill="black" />
<text transform="translate(0.52528,-0.71569) scale(1,-1) scale(0.0069444) " font-family="Helvetica,sans-serif" font-size="20px" stroke="none" fill="black" >volume request</text>
<text transform="translate(0.98069,-0.88236) scale(1,-1) scale(0.0069444) " font-family="Helvetica,sans-serif" font-size="20px" stroke="none" fill="black" > </text>
<line x1="1.565" y1="-1" x2="0.435" y2="-1" stroke-width="0.0094118" />
<polygon points="0.535,-1.025 0.435,-1 0.535,-0.975 " stroke-width="0.0094118" fill="black" />
<text transform="translate(0.89194,-0.96569) scale(1,-1) scale(0.0069444) " font-family="Helvetica,sans-serif" font-size="20px" stroke="none" fill="black" >ack</text>
<text transform="translate(0.98069,-1.1324) scale(1,-1) scale(0.0069444) " font-family="Helvetica,sans-serif" font-size="20px" stroke="none" fill="black" > </text>
<line x1="1.565" y1="-1.25" x2="0.435" y2="-1.25" stroke-width="0.0094118" />
<polygon points="0.535,-1.275 0.435,-1.25 0.535,-1.225 " stroke-width="0.0094118" fill="black" />
<text transform="translate(0.71444,-1.2157) scale(1,-1) scale(0.0069444) " font-family="Helvetica,sans-serif" font-size="20px" stroke="none" fill="black" >volReqID</text>
<text transform="translate(0.98069,-1.3824) scale(1,-1) scale(0.0069444) " font-family="Helvetica,sans-serif" font-size="20px" stroke="none" fill="black" > </text>
<line x1="0.435" y1="-1.5" x2="1.565" y2="-1.5" stroke-width="0.0094118" />
<polygon points="1.465,-1.475 1.565,-1.5 1.465,-1.525 " stroke-width="0.0094118" fill="black" />
<text transform="translate(0.89194,-1.4657) scale(1,-1) scale(0.0069444) " font-family="Helvetica,sans-serif" font-size="20px" stroke="none" fill="black" >ack</text>
<text transform="translate(0.98069,-1.6324) scale(1,-1) scale(0.0069444) " font-family="Helvetica,sans-serif" font-size="20px" stroke="none" fill="black" > </text>
<line x1="0.435" y1="-1.75" x2="1.565" y2="-1.75" stroke-width="0.0094118" />
<polygon points="1.465,-1.725 1.565,-1.75 1.465,-1.775 " stroke-width="0.0094118" fill="black" />
<text transform="translate(0.48278,-1.7157) scale(1,-1) scale(0.0069444) " font-family="Helvetica,sans-serif" font-size="20px" stroke="none" fill="black" >close connection</text>
<text transform="translate(0.98069,-1.8824) scale(1,-1) scale(0.0069444) " font-family="Helvetica,sans-serif" font-size="20px" stroke="none" fill="black" > </text>
<line x1="1.575" y1="-0.5" x2="1.575" y2="-1.75" stroke-width="0.0094118" />
<line x1="1.675" y1="-0.5" x2="1.675" y2="-1.75" stroke-width="0.0094118" />
<line x1="1.575" y1="-1.75" x2="1.675" y2="-1.75" stroke-width="0.0094118" />
<line x1="0.325" y1="-0.25" x2="0.325" y2="-1.75" stroke-width="0.0094118" />
<line x1="0.425" y1="-0.25" x2="0.425" y2="-1.75" stroke-width="0.0094118" />
<line x1="0.325" y1="-1.75" x2="0.425" y2="-1.75" stroke-width="0.0094118" />
<line x1="1.625" y1="-1.75" x2="1.625" y2="-2" stroke-width="0.0094118" stroke-dasharray="0.05, 0.05"/>
<line x1="1.575" y1="-2" x2="1.675" y2="-2" stroke-width="0.0094118" />
<line x1="1.685" y1="-2.25" x2="2.815" y2="-2.25" stroke-width="0.0094118" />
<polygon points="2.715,-2.225 2.815,-2.25 2.715,-2.275 " stroke-width="0.0094118" fill="black" />
<text transform="translate(2.0068,-2.2157) scale(1,-1) scale(0.0069444) " font-family="Helvetica,sans-serif" font-size="20px" stroke="none" fill="black" >connect</text>
<text transform="translate(2.2307,-2.3824) scale(1,-1) scale(0.0069444) " font-family="Helvetica,sans-serif" font-size="20px" stroke="none" fill="black" > </text>
<line x1="2.875" y1="-0.15" x2="2.875" y2="-2.25" stroke-width="0.0094118" stroke-dasharray="0.05, 0.05"/>
<line x1="2.825" y1="-2.25" x2="2.925" y2="-2.25" stroke-width="0.0094118" />
<line x1="1.685" y1="-2.5" x2="2.815" y2="-2.5" stroke-width="0.0094118" />
<polygon points="2.715,-2.475 2.815,-2.5 2.715,-2.525 " stroke-width="0.0094118" fill="black" />
<text transform="translate(1.7849,-2.4657) scale(1,-1) scale(0.0069444) " font-family="Helvetica,sans-serif" font-size="20px" stroke="none" fill="black" >ClientInfo - job</text>
<text transform="translate(2.2307,-2.6324) scale(1,-1) scale(0.0069444) " font-family="Helvetica,sans-serif" font-size="20px" stroke="none" fill="black" > </text>
<line x1="2.815" y1="-2.75" x2="1.685" y2="-2.75" stroke-width="0.0094118" />
<polygon points="1.785,-2.775 1.685,-2.75 1.785,-2.725 " stroke-width="0.0094118" fill="black" />
<text transform="translate(1.8371,-2.7157) scale(1,-1) scale(0.0069444) " font-family="Helvetica,sans-serif" font-size="20px" stroke="none" fill="black" >RcpJobReply</text>
<text transform="translate(2.2307,-2.8824) scale(1,-1) scale(0.0069444) " font-family="Helvetica,sans-serif" font-size="20px" stroke="none" fill="black" > </text>
<line x1="2.815" y1="-3" x2="1.685" y2="-3" stroke-width="0.0094118" />
<polygon points="1.785,-3.025 1.685,-3 1.785,-2.975 " stroke-width="0.0094118" fill="black" />
<text transform="translate(1.7328,-2.9657) scale(1,-1) scale(0.0069444) " font-family="Helvetica,sans-serif" font-size="20px" stroke="none" fill="black" >close connection</text>
<text transform="translate(2.2307,-3.1324) scale(1,-1) scale(0.0069444) " font-family="Helvetica,sans-serif" font-size="20px" stroke="none" fill="black" > </text>
<line x1="1.575" y1="-2" x2="1.575" y2="-3" stroke-width="0.0094118" />
<line x1="1.675" y1="-2" x2="1.675" y2="-3" stroke-width="0.0094118" />
<line x1="1.575" y1="-3" x2="1.675" y2="-3" stroke-width="0.0094118" />
<line x1="2.815" y1="-3.5" x2="0.435" y2="-3.5" stroke-width="0.0094118" />
<polygon points="0.535,-3.525 0.435,-3.5 0.535,-3.475 " stroke-width="0.0094118" fill="black" />
<text transform="translate(1.3818,-3.4657) scale(1,-1) scale(0.0069444) " font-family="Helvetica,sans-serif" font-size="20px" stroke="none" fill="black" >connect</text>
<text transform="translate(1.6057,-3.6324) scale(1,-1) scale(0.0069444) " font-family="Helvetica,sans-serif" font-size="20px" stroke="none" fill="black" > </text>
<line x1="0.375" y1="-1.75" x2="0.375" y2="-3.5" stroke-width="0.0094118" stroke-dasharray="0.05, 0.05"/>
<line x1="0.325" y1="-3.5" x2="0.425" y2="-3.5" stroke-width="0.0094118" />
<line x1="2.815" y1="-3.75" x2="0.435" y2="-3.75" stroke-width="0.0094118" />
<polygon points="0.535,-3.775 0.435,-3.75 0.535,-3.725 " stroke-width="0.0094118" fill="black" />
<text transform="translate(1.131,-3.7157) scale(1,-1) scale(0.0069444) " font-family="Helvetica,sans-serif" font-size="20px" stroke="none" fill="black" >VolumeRequest</text>
<text transform="translate(1.6057,-3.8824) scale(1,-1) scale(0.0069444) " font-family="Helvetica,sans-serif" font-size="20px" stroke="none" fill="black" > </text>
<line x1="0.435" y1="-4" x2="2.815" y2="-4" stroke-width="0.0094118" />
<polygon points="2.715,-3.975 2.815,-4 2.715,-4.025 " stroke-width="0.0094118" fill="black" />
<text transform="translate(1.3896,-3.9657) scale(1,-1) scale(0.0069444) " font-family="Helvetica,sans-serif" font-size="20px" stroke="none" fill="black" >Volume</text>
<text transform="translate(1.6057,-4.1324) scale(1,-1) scale(0.0069444) " font-family="Helvetica,sans-serif" font-size="20px" stroke="none" fill="black" > </text>
<line x1="2.815" y1="-4.25" x2="0.435" y2="-4.25" stroke-width="0.0094118" />
<polygon points="0.535,-4.275 0.435,-4.25 0.535,-4.225 " stroke-width="0.0094118" fill="black" />
<text transform="translate(1.1078,-4.2157) scale(1,-1) scale(0.0069444) " font-family="Helvetica,sans-serif" font-size="20px" stroke="none" fill="black" >close connection</text>
<text transform="translate(1.6057,-4.3824) scale(1,-1) scale(0.0069444) " font-family="Helvetica,sans-serif" font-size="20px" stroke="none" fill="black" > </text>
<line x1="0.325" y1="-3.5" x2="0.325" y2="-4.25" stroke-width="0.0094118" />
<line x1="0.425" y1="-3.5" x2="0.425" y2="-4.25" stroke-width="0.0094118" />
<line x1="0.325" y1="-4.25" x2="0.425" y2="-4.25" stroke-width="0.0094118" />
<line x1="2.815" y1="-4.75" x2="0.435" y2="-4.75" stroke-width="0.0094118" />
<polygon points="0.535,-4.775 0.435,-4.75 0.535,-4.725 " stroke-width="0.0094118" fill="black" />
<text transform="translate(1.3818,-4.7157) scale(1,-1) scale(0.0069444) " font-family="Helvetica,sans-serif" font-size="20px" stroke="none" fill="black" >connect</text>
<text transform="translate(1.6057,-4.8824) scale(1,-1) scale(0.0069444) " font-family="Helvetica,sans-serif" font-size="20px" stroke="none" fill="black" > </text>
<line x1="0.375" y1="-4.25" x2="0.375" y2="-4.75" stroke-width="0.0094118" stroke-dasharray="0.05, 0.05"/>
<line x1="0.325" y1="-4.75" x2="0.425" y2="-4.75" stroke-width="0.0094118" />
<line x1="2.815" y1="-5" x2="0.435" y2="-5" stroke-width="0.0094118" />
<polygon points="0.535,-5.025 0.435,-5 0.535,-4.975 " stroke-width="0.0094118" fill="black" />
<text transform="translate(0.98056,-4.9657) scale(1,-1) scale(0.0069444) " font-family="Helvetica,sans-serif" font-size="20px" stroke="none" fill="black" >FileToRecallRequest</text>
<text transform="translate(1.6057,-5.1324) scale(1,-1) scale(0.0069444) " font-family="Helvetica,sans-serif" font-size="20px" stroke="none" fill="black" > </text>
<line x1="0.435" y1="-5.25" x2="2.815" y2="-5.25" stroke-width="0.0094118" />
<polygon points="2.715,-5.225 2.815,-5.25 2.715,-5.275 " stroke-width="0.0094118" fill="black" />
<text transform="translate(1.2392,-5.2157) scale(1,-1) scale(0.0069444) " font-family="Helvetica,sans-serif" font-size="20px" stroke="none" fill="black" >FileToRecall</text>
<text transform="translate(1.6057,-5.3824) scale(1,-1) scale(0.0069444) " font-family="Helvetica,sans-serif" font-size="20px" stroke="none" fill="black" > </text>
<line x1="2.815" y1="-5.5" x2="0.435" y2="-5.5" stroke-width="0.0094118" />
<polygon points="0.535,-5.525 0.435,-5.5 0.535,-5.475 " stroke-width="0.0094118" fill="black" />
<text transform="translate(1.1078,-5.4657) scale(1,-1) scale(0.0069444) " font-family="Helvetica,sans-serif" font-size="20px" stroke="none" fill="black" >close connection</text>
<text transform="translate(1.6057,-5.6324) scale(1,-1) scale(0.0069444) " font-family="Helvetica,sans-serif" font-size="20px" stroke="none" fill="black" > </text>
<line x1="0.325" y1="-4.75" x2="0.325" y2="-5.5" stroke-width="0.0094118" />
<line x1="0.425" y1="-4.75" x2="0.425" y2="-5.5" stroke-width="0.0094118" />
<line x1="0.325" y1="-5.5" x2="0.425" y2="-5.5" stroke-width="0.0094118" />
<line x1="2.815" y1="-6" x2="0.435" y2="-6" stroke-width="0.0094118" />
<polygon points="0.535,-6.025 0.435,-6 0.535,-5.975 " stroke-width="0.0094118" fill="black" />
<text transform="translate(1.3818,-5.9657) scale(1,-1) scale(0.0069444) " font-family="Helvetica,sans-serif" font-size="20px" stroke="none" fill="black" >connect</text>
<text transform="translate(1.6057,-6.1324) scale(1,-1) scale(0.0069444) " font-family="Helvetica,sans-serif" font-size="20px" stroke="none" fill="black" > </text>
<line x1="0.375" y1="-5.5" x2="0.375" y2="-6" stroke-width="0.0094118" stroke-dasharray="0.05, 0.05"/>
<line x1="0.325" y1="-6" x2="0.425" y2="-6" stroke-width="0.0094118" />
<line x1="2.815" y1="-6.25" x2="0.435" y2="-6.25" stroke-width="0.0094118" />
<polygon points="0.535,-6.275 0.435,-6.25 0.535,-6.225 " stroke-width="0.0094118" fill="black" />
<text transform="translate(0.89951,-6.2157) scale(1,-1) scale(0.0069444) " font-family="Helvetica,sans-serif" font-size="20px" stroke="none" fill="black" >FileRecalledNotification</text>
<text transform="translate(1.6057,-6.3824) scale(1,-1) scale(0.0069444) " font-family="Helvetica,sans-serif" font-size="20px" stroke="none" fill="black" > </text>
<line x1="0.435" y1="-6.5" x2="2.815" y2="-6.5" stroke-width="0.0094118" />
<polygon points="2.715,-6.475 2.815,-6.5 2.715,-6.525 " stroke-width="0.0094118" fill="black" />
<text transform="translate(0.86854,-6.4657) scale(1,-1) scale(0.0069444) " font-family="Helvetica,sans-serif" font-size="20px" stroke="none" fill="black" >NotificationAcknowledge</text>
<text transform="translate(1.6057,-6.6324) scale(1,-1) scale(0.0069444) " font-family="Helvetica,sans-serif" font-size="20px" stroke="none" fill="black" > </text>
<line x1="2.815" y1="-6.75" x2="0.435" y2="-6.75" stroke-width="0.0094118" />
<polygon points="0.535,-6.775 0.435,-6.75 0.535,-6.725 " stroke-width="0.0094118" fill="black" />
<text transform="translate(1.1078,-6.7157) scale(1,-1) scale(0.0069444) " font-family="Helvetica,sans-serif" font-size="20px" stroke="none" fill="black" >close connection</text>
<text transform="translate(1.6057,-6.8824) scale(1,-1) scale(0.0069444) " font-family="Helvetica,sans-serif" font-size="20px" stroke="none" fill="black" > </text>
<line x1="0.325" y1="-6" x2="0.325" y2="-6.75" stroke-width="0.0094118" />
<line x1="0.425" y1="-6" x2="0.425" y2="-6.75" stroke-width="0.0094118" />
<line x1="0.325" y1="-6.75" x2="0.425" y2="-6.75" stroke-width="0.0094118" />
<line x1="2.815" y1="-7.25" x2="0.435" y2="-7.25" stroke-width="0.0094118" />
<polygon points="0.535,-7.275 0.435,-7.25 0.535,-7.225 " stroke-width="0.0094118" fill="black" />
<text transform="translate(1.3818,-7.2157) scale(1,-1) scale(0.0069444) " font-family="Helvetica,sans-serif" font-size="20px" stroke="none" fill="black" >connect</text>
<text transform="translate(1.6057,-7.3824) scale(1,-1) scale(0.0069444) " font-family="Helvetica,sans-serif" font-size="20px" stroke="none" fill="black" > </text>
<line x1="0.375" y1="-6.75" x2="0.375" y2="-7.25" stroke-width="0.0094118" stroke-dasharray="0.05, 0.05"/>
<line x1="0.325" y1="-7.25" x2="0.425" y2="-7.25" stroke-width="0.0094118" />
<line x1="2.815" y1="-7.5" x2="0.435" y2="-7.5" stroke-width="0.0094118" />
<polygon points="0.535,-7.525 0.435,-7.5 0.535,-7.475 " stroke-width="0.0094118" fill="black" />
<text transform="translate(0.98056,-7.4657) scale(1,-1) scale(0.0069444) " font-family="Helvetica,sans-serif" font-size="20px" stroke="none" fill="black" >FileToRecallRequest</text>
<text transform="translate(1.6057,-7.6324) scale(1,-1) scale(0.0069444) " font-family="Helvetica,sans-serif" font-size="20px" stroke="none" fill="black" > </text>
<line x1="0.435" y1="-7.75" x2="2.815" y2="-7.75" stroke-width="0.0094118" />
<polygon points="2.715,-7.725 2.815,-7.75 2.715,-7.775 " stroke-width="0.0094118" fill="black" />
<text transform="translate(1.2315,-7.7157) scale(1,-1) scale(0.0069444) " font-family="Helvetica,sans-serif" font-size="20px" stroke="none" fill="black" >NoMoreFiles</text>
<text transform="translate(1.6057,-7.8824) scale(1,-1) scale(0.0069444) " font-family="Helvetica,sans-serif" font-size="20px" stroke="none" fill="black" > </text>
<line x1="2.815" y1="-8" x2="0.435" y2="-8" stroke-width="0.0094118" />
<polygon points="0.535,-8.025 0.435,-8 0.535,-7.975 " stroke-width="0.0094118" fill="black" />
<text transform="translate(1.1078,-7.9657) scale(1,-1) scale(0.0069444) " font-family="Helvetica,sans-serif" font-size="20px" stroke="none" fill="black" >close connection</text>
<text transform="translate(1.6057,-8.1324) scale(1,-1) scale(0.0069444) " font-family="Helvetica,sans-serif" font-size="20px" stroke="none" fill="black" > </text>
<line x1="0.325" y1="-7.25" x2="0.325" y2="-8" stroke-width="0.0094118" />
<line x1="0.425" y1="-7.25" x2="0.425" y2="-8" stroke-width="0.0094118" />
<line x1="0.325" y1="-8" x2="0.425" y2="-8" stroke-width="0.0094118" />
<line x1="2.815" y1="-8.5" x2="0.435" y2="-8.5" stroke-width="0.0094118" />
<polygon points="0.535,-8.525 0.435,-8.5 0.535,-8.475 " stroke-width="0.0094118" fill="black" />
<text transform="translate(1.3818,-8.4657) scale(1,-1) scale(0.0069444) " font-family="Helvetica,sans-serif" font-size="20px" stroke="none" fill="black" >connect</text>
<text transform="translate(1.6057,-8.6324) scale(1,-1) scale(0.0069444) " font-family="Helvetica,sans-serif" font-size="20px" stroke="none" fill="black" > </text>
<line x1="0.375" y1="-8" x2="0.375" y2="-8.5" stroke-width="0.0094118" stroke-dasharray="0.05, 0.05"/>
<line x1="0.325" y1="-8.5" x2="0.425" y2="-8.5" stroke-width="0.0094118" />
<line x1="2.815" y1="-8.75" x2="0.435" y2="-8.75" stroke-width="0.0094118" />
<polygon points="0.535,-8.775 0.435,-8.75 0.535,-8.725 " stroke-width="0.0094118" fill="black" />
<text transform="translate(1.158,-8.7157) scale(1,-1) scale(0.0069444) " font-family="Helvetica,sans-serif" font-size="20px" stroke="none" fill="black" >EndNotification</text>
<text transform="translate(1.6057,-8.8824) scale(1,-1) scale(0.0069444) " font-family="Helvetica,sans-serif" font-size="20px" stroke="none" fill="black" > </text>
<line x1="0.435" y1="-9" x2="2.815" y2="-9" stroke-width="0.0094118" />
<polygon points="2.715,-8.975 2.815,-9 2.715,-9.025 " stroke-width="0.0094118" fill="black" />
<text transform="translate(0.86854,-8.9657) scale(1,-1) scale(0.0069444) " font-family="Helvetica,sans-serif" font-size="20px" stroke="none" fill="black" >NotificationAcknowledge</text>
<text transform="translate(1.6057,-9.1324) scale(1,-1) scale(0.0069444) " font-family="Helvetica,sans-serif" font-size="20px" stroke="none" fill="black" > </text>
<line x1="2.815" y1="-9.25" x2="0.435" y2="-9.25" stroke-width="0.0094118" />
<polygon points="0.535,-9.275 0.435,-9.25 0.535,-9.225 " stroke-width="0.0094118" fill="black" />
<text transform="translate(1.1078,-9.2157) scale(1,-1) scale(0.0069444) " font-family="Helvetica,sans-serif" font-size="20px" stroke="none" fill="black" >close connection</text>
<text transform="translate(1.6057,-9.3824) scale(1,-1) scale(0.0069444) " font-family="Helvetica,sans-serif" font-size="20px" stroke="none" fill="black" > </text>
<line x1="0.325" y1="-8.5" x2="0.325" y2="-9.25" stroke-width="0.0094118" />
<line x1="0.425" y1="-8.5" x2="0.425" y2="-9.25" stroke-width="0.0094118" />
<line x1="0.325" y1="-9.25" x2="0.425" y2="-9.25" stroke-width="0.0094118" />
<line x1="2.825" y1="-2.25" x2="2.825" y2="-9.25" stroke-width="0.0094118" />
<line x1="2.925" y1="-2.25" x2="2.925" y2="-9.25" stroke-width="0.0094118" />
<line x1="2.825" y1="-9.25" x2="2.925" y2="-9.25" stroke-width="0.0094118" />
<line x1="0.375" y1="-9.25" x2="0.375" y2="-9.25" stroke-width="0.0094118" stroke-dasharray="0.05, 0.05"/>
<line x1="1.625" y1="-3" x2="1.625" y2="-9.25" stroke-width="0.0094118" stroke-dasharray="0.05, 0.05"/>
<line x1="2.875" y1="-9.25" x2="2.875" y2="-9.25" stroke-width="0.0094118" stroke-dasharray="0.05, 0.05"/>
</g>
</svg>
