<?xml version="1.0" encoding="ISO-8859-1" standalone="no"?>
<!DOCTYPE svg PUBLIC "-//W3C//DTD SVG 1.1//EN" "http://www.w3.org/Graphics/SVG/1.1/DTD/svg11.dtd">
<svg version="1.1" baseProfile="full" id="body" width="8in" height="8in" viewBox="0 0 1 1" preserveAspectRatio="none" xmlns="http://www.w3.org/2000/svg" xmlns:xlink="http://www.w3.org/1999/xlink" xmlns:ev="http://www.w3.org/2001/xml-events">
<title>SVG drawing</title>
<desc>This was produced by version 4.4 of GNU libplot, a free library for exporting 2-D vector graphics.</desc>
<rect id="background" x="0" y="0" width="1" height="1" stroke="none" fill="white"/>
<g id="content" transform="translate(0.20409,-0.17566) scale(0.07891,-0.07891) " xml:space="preserve" stroke="black" stroke-linecap="butt" stroke-linejoin="miter" stroke-miterlimit="10.433" stroke-dasharray="none" stroke-dashoffset="0" stroke-opacity="1" fill="none" fill-rule="evenodd" fill-opacity="1" font-style="normal" font-variant="normal" font-weight="normal" font-stretch="normal" font-size-adjust="none" letter-spacing="normal" word-spacing="normal" text-anchor="start">
<rect x="0" y="-0.15" width="0.75" height="0.3" stroke-width="0.014909" />
<text transform="translate(0.051031,-0.077664) scale(1,-1) scale(0.011001) " font-family="Helvetica,sans-serif" font-size="20px" stroke="none" fill="black" >rtcpcld</text>
<line x1="0.1" y1="-0.07" x2="0.65" y2="-0.07" stroke-width="0.014909" />
<rect x="2.5" y="-0.15" width="0.75" height="0.3" stroke-width="0.014909" />
<text transform="translate(2.606,-0.077664) scale(1,-1) scale(0.011001) " font-family="Helvetica,sans-serif" font-size="20px" stroke="none" fill="black" >vdqm</text>
<line x1="2.6" y1="-0.07" x2="3.15" y2="-0.07" stroke-width="0.014909" />
<rect x="6.25" y="-0.15" width="0.75" height="0.3" stroke-width="0.014909" />
<text transform="translate(6.3805,-0.077664) scale(1,-1) scale(0.011001) " font-family="Helvetica,sans-serif" font-size="20px" stroke="none" fill="black" >rtcpd</text>
<line x1="6.35" y1="-0.07" x2="6.9" y2="-0.07" stroke-width="0.014909" />
<line x1="0.375" y1="-0.15" x2="0.375" y2="-0.25" stroke-width="0.014909" stroke-dasharray="0.05, 0.05"/>
<line x1="0.325" y1="-0.25" x2="0.425" y2="-0.25" stroke-width="0.014909" />
<line x1="0.435" y1="-0.5" x2="2.815" y2="-0.5" stroke-width="0.014909" />
<polygon points="2.715,-0.475 2.815,-0.5 2.715,-0.525 " stroke-width="0.014909" fill="black" />
<text transform="translate(1.2398,-0.44566) scale(1,-1) scale(0.011001) " font-family="Helvetica,sans-serif" font-size="20px" stroke="none" fill="black" >connect</text>
<text transform="translate(1.5944,-0.70967) scale(1,-1) scale(0.011001) " font-family="Helvetica,sans-serif" font-size="20px" stroke="none" fill="black" > </text>
<line x1="2.875" y1="-0.15" x2="2.875" y2="-0.5" stroke-width="0.014909" stroke-dasharray="0.05, 0.05"/>
<line x1="2.825" y1="-0.5" x2="2.925" y2="-0.5" stroke-width="0.014909" />
<line x1="0.435" y1="-0.75" x2="2.815" y2="-0.75" stroke-width="0.014909" />
<polygon points="2.715,-0.725 2.815,-0.75 2.715,-0.775 " stroke-width="0.014909" fill="black" />
<text transform="translate(0.873,-0.69566) scale(1,-1) scale(0.011001) " font-family="Helvetica,sans-serif" font-size="20px" stroke="none" fill="black" >volume request</text>
<text transform="translate(1.5944,-0.95967) scale(1,-1) scale(0.011001) " font-family="Helvetica,sans-serif" font-size="20px" stroke="none" fill="black" > </text>
<line x1="2.815" y1="-1" x2="0.435" y2="-1" stroke-width="0.014909" />
<polygon points="0.535,-1.025 0.435,-1 0.535,-0.975 " stroke-width="0.014909" fill="black" />
<text transform="translate(1.4538,-0.94566) scale(1,-1) scale(0.011001) " font-family="Helvetica,sans-serif" font-size="20px" stroke="none" fill="black" >ack</text>
<text transform="translate(1.5944,-1.2097) scale(1,-1) scale(0.011001) " font-family="Helvetica,sans-serif" font-size="20px" stroke="none" fill="black" > </text>
<line x1="2.815" y1="-1.25" x2="0.435" y2="-1.25" stroke-width="0.014909" />
<polygon points="0.535,-1.275 0.435,-1.25 0.535,-1.225 " stroke-width="0.014909" fill="black" />
<text transform="translate(1.1727,-1.1957) scale(1,-1) scale(0.011001) " font-family="Helvetica,sans-serif" font-size="20px" stroke="none" fill="black" >volReqID</text>
<text transform="translate(1.5944,-1.4597) scale(1,-1) scale(0.011001) " font-family="Helvetica,sans-serif" font-size="20px" stroke="none" fill="black" > </text>
<line x1="0.435" y1="-1.5" x2="2.815" y2="-1.5" stroke-width="0.014909" />
<polygon points="2.715,-1.475 2.815,-1.5 2.715,-1.525 " stroke-width="0.014909" fill="black" />
<text transform="translate(1.4538,-1.4457) scale(1,-1) scale(0.011001) " font-family="Helvetica,sans-serif" font-size="20px" stroke="none" fill="black" >ack</text>
<text transform="translate(1.5944,-1.7097) scale(1,-1) scale(0.011001) " font-family="Helvetica,sans-serif" font-size="20px" stroke="none" fill="black" > </text>
<line x1="0.435" y1="-1.75" x2="2.815" y2="-1.75" stroke-width="0.014909" />
<polygon points="2.715,-1.725 2.815,-1.75 2.715,-1.775 " stroke-width="0.014909" fill="black" />
<text transform="translate(1.0992,-1.6957) scale(1,-1) scale(0.011001) " font-family="Helvetica,sans-serif" font-size="20px" stroke="none" fill="black" >disconnect</text>
<text transform="translate(1.5944,-1.9597) scale(1,-1) scale(0.011001) " font-family="Helvetica,sans-serif" font-size="20px" stroke="none" fill="black" > </text>
<line x1="2.825" y1="-0.5" x2="2.825" y2="-1.75" stroke-width="0.014909" />
<line x1="2.925" y1="-0.5" x2="2.925" y2="-1.75" stroke-width="0.014909" />
<line x1="2.825" y1="-1.75" x2="2.925" y2="-1.75" stroke-width="0.014909" />
<line x1="2.875" y1="-1.75" x2="2.875" y2="-2" stroke-width="0.014909" stroke-dasharray="0.05, 0.05"/>
<line x1="2.825" y1="-2" x2="2.925" y2="-2" stroke-width="0.014909" />
<line x1="2.935" y1="-2.25" x2="6.565" y2="-2.25" stroke-width="0.014909" />
<polygon points="6.465,-2.225 6.565,-2.25 6.465,-2.275 " stroke-width="0.014909" fill="black" />
<text transform="translate(4.3648,-2.1957) scale(1,-1) scale(0.011001) " font-family="Helvetica,sans-serif" font-size="20px" stroke="none" fill="black" >connect</text>
<text transform="translate(4.7194,-2.4597) scale(1,-1) scale(0.011001) " font-family="Helvetica,sans-serif" font-size="20px" stroke="none" fill="black" > </text>
<line x1="6.625" y1="-0.15" x2="6.625" y2="-2.25" stroke-width="0.014909" stroke-dasharray="0.05, 0.05"/>
<line x1="6.575" y1="-2.25" x2="6.675" y2="-2.25" stroke-width="0.014909" />
<line x1="2.935" y1="-2.5" x2="6.565" y2="-2.5" stroke-width="0.014909" />
<polygon points="6.465,-2.475 6.565,-2.5 6.465,-2.525 " stroke-width="0.014909" fill="black" />
<text transform="translate(4.0132,-2.4457) scale(1,-1) scale(0.011001) " font-family="Helvetica,sans-serif" font-size="20px" stroke="none" fill="black" >ClientInfo - job</text>
<text transform="translate(4.7194,-2.7097) scale(1,-1) scale(0.011001) " font-family="Helvetica,sans-serif" font-size="20px" stroke="none" fill="black" > </text>
<line x1="6.565" y1="-2.75" x2="2.935" y2="-2.75" stroke-width="0.014909" />
<polygon points="3.035,-2.775 2.935,-2.75 3.035,-2.725 " stroke-width="0.014909" fill="black" />
<text transform="translate(4.0959,-2.6957) scale(1,-1) scale(0.011001) " font-family="Helvetica,sans-serif" font-size="20px" stroke="none" fill="black" >RcpJobReply</text>
<text transform="translate(4.7194,-2.9597) scale(1,-1) scale(0.011001) " font-family="Helvetica,sans-serif" font-size="20px" stroke="none" fill="black" > </text>
<line x1="6.565" y1="-3" x2="2.935" y2="-3" stroke-width="0.014909" />
<polygon points="3.035,-3.025 2.935,-3 3.035,-2.975 " stroke-width="0.014909" fill="black" />
<text transform="translate(4.2242,-2.9457) scale(1,-1) scale(0.011001) " font-family="Helvetica,sans-serif" font-size="20px" stroke="none" fill="black" >disconnect</text>
<text transform="translate(4.7194,-3.2097) scale(1,-1) scale(0.011001) " font-family="Helvetica,sans-serif" font-size="20px" stroke="none" fill="black" > </text>
<line x1="2.825" y1="-2" x2="2.825" y2="-3" stroke-width="0.014909" />
<line x1="2.925" y1="-2" x2="2.925" y2="-3" stroke-width="0.014909" />
<line x1="2.825" y1="-3" x2="2.925" y2="-3" stroke-width="0.014909" />
<line x1="6.565" y1="-3.25" x2="0.435" y2="-3.25" stroke-width="0.014909" />
<polygon points="0.535,-3.275 0.435,-3.25 0.535,-3.225 " stroke-width="0.014909" fill="black" />
<text transform="translate(3.1148,-3.1957) scale(1,-1) scale(0.011001) " font-family="Helvetica,sans-serif" font-size="20px" stroke="none" fill="black" >connect</text>
<text transform="translate(3.4694,-3.4597) scale(1,-1) scale(0.011001) " font-family="Helvetica,sans-serif" font-size="20px" stroke="none" fill="black" > </text>
<line x1="0.435" y1="-3.5" x2="6.565" y2="-3.5" stroke-width="0.014909" />
<polygon points="6.465,-3.475 6.565,-3.5 6.465,-3.525 " stroke-width="0.014909" fill="black" />
<text transform="translate(2.7173,-3.4457) scale(1,-1) scale(0.011001) " font-family="Helvetica,sans-serif" font-size="20px" stroke="none" fill="black" >request ReqInfo</text>
<text transform="translate(3.4694,-3.7097) scale(1,-1) scale(0.011001) " font-family="Helvetica,sans-serif" font-size="20px" stroke="none" fill="black" > </text>
<line x1="6.565" y1="-3.75" x2="0.435" y2="-3.75" stroke-width="0.014909" />
<polygon points="0.535,-3.775 0.435,-3.75 0.535,-3.725 " stroke-width="0.014909" fill="black" />
<text transform="translate(3.3288,-3.6957) scale(1,-1) scale(0.011001) " font-family="Helvetica,sans-serif" font-size="20px" stroke="none" fill="black" >ack</text>
<text transform="translate(3.4694,-3.9597) scale(1,-1) scale(0.011001) " font-family="Helvetica,sans-serif" font-size="20px" stroke="none" fill="black" > </text>
<line x1="6.565" y1="-4" x2="0.435" y2="-4" stroke-width="0.014909" />
<polygon points="0.535,-4.025 0.435,-4 0.535,-3.975 " stroke-width="0.014909" fill="black" />
<text transform="translate(3.1148,-3.9457) scale(1,-1) scale(0.011001) " font-family="Helvetica,sans-serif" font-size="20px" stroke="none" fill="black" >ReqInfo</text>
<text transform="translate(3.4694,-4.2097) scale(1,-1) scale(0.011001) " font-family="Helvetica,sans-serif" font-size="20px" stroke="none" fill="black" > </text>
<line x1="0.435" y1="-4.25" x2="6.565" y2="-4.25" stroke-width="0.014909" />
<polygon points="6.465,-4.225 6.565,-4.25 6.465,-4.275 " stroke-width="0.014909" fill="black" />
<text transform="translate(3.3288,-4.1957) scale(1,-1) scale(0.011001) " font-family="Helvetica,sans-serif" font-size="20px" stroke="none" fill="black" >ack</text>
<text transform="translate(3.4694,-4.4597) scale(1,-1) scale(0.011001) " font-family="Helvetica,sans-serif" font-size="20px" stroke="none" fill="black" > </text>
<line x1="0.435" y1="-4.5" x2="1.2425" y2="-4.5" stroke-width="0.014909" />
<polygon points="1.1425,-4.475 1.2425,-4.5 1.1425,-4.525 " stroke-width="0.014909" fill="black" />
<text transform="translate(0.41072,-4.4457) scale(1,-1) scale(0.011001) " font-family="Helvetica,sans-serif" font-size="20px" stroke="none" fill="black" >«create»</text>
<text transform="translate(0.80817,-4.7097) scale(1,-1) scale(0.011001) " font-family="Helvetica,sans-serif" font-size="20px" stroke="none" fill="black" > </text>
<rect x="1.2425" y="-4.65" width="0.75" height="0.3" stroke-width="0.014909" />
<text transform="translate(1.2141,-4.5777) scale(1,-1) scale(0.011001) " font-family="Helvetica,sans-serif" font-size="20px" stroke="none" fill="black" >migrator</text>
<line x1="1.3425" y1="-4.57" x2="1.8925" y2="-4.57" stroke-width="0.014909" />
<line x1="1.625" y1="-4.65" x2="1.625" y2="-4.775" stroke-width="0.014909" stroke-dasharray="0.05, 0.05"/>
<line x1="1.575" y1="-4.775" x2="1.675" y2="-4.775" stroke-width="0.014909" />
<line x1="1.685" y1="-5.025" x2="6.565" y2="-5.025" stroke-width="0.014909" />
<polygon points="6.465,-5 6.565,-5.025 6.465,-5.05 " stroke-width="0.014909" fill="black" />
<text transform="translate(2.9053,-4.9707) scale(1,-1) scale(0.011001) " font-family="Helvetica,sans-serif" font-size="20px" stroke="none" fill="black" >ClientInfo - new callback</text>
<text transform="translate(4.0944,-5.2347) scale(1,-1) scale(0.011001) " font-family="Helvetica,sans-serif" font-size="20px" stroke="none" fill="black" > </text>
<line x1="6.565" y1="-5.275" x2="1.685" y2="-5.275" stroke-width="0.014909" />
<polygon points="1.785,-5.3 1.685,-5.275 1.785,-5.25 " stroke-width="0.014909" fill="black" />
<text transform="translate(3.9538,-5.2207) scale(1,-1) scale(0.011001) " font-family="Helvetica,sans-serif" font-size="20px" stroke="none" fill="black" >ack</text>
<text transform="translate(4.0944,-5.4847) scale(1,-1) scale(0.011001) " font-family="Helvetica,sans-serif" font-size="20px" stroke="none" fill="black" > </text>
<line x1="1.685" y1="-5.525" x2="6.565" y2="-5.525" stroke-width="0.014909" />
<polygon points="6.465,-5.5 6.565,-5.525 6.465,-5.55 " stroke-width="0.014909" fill="black" />
<text transform="translate(3.5992,-5.4707) scale(1,-1) scale(0.011001) " font-family="Helvetica,sans-serif" font-size="20px" stroke="none" fill="black" >disconnect</text>
<text transform="translate(4.0944,-5.7347) scale(1,-1) scale(0.011001) " font-family="Helvetica,sans-serif" font-size="20px" stroke="none" fill="black" > </text>
<line x1="6.565" y1="-6.025" x2="1.685" y2="-6.025" stroke-width="0.014909" />
<polygon points="1.785,-6.05 1.685,-6.025 1.785,-6 " stroke-width="0.014909" fill="black" />
<text transform="translate(3.7398,-5.9707) scale(1,-1) scale(0.011001) " font-family="Helvetica,sans-serif" font-size="20px" stroke="none" fill="black" >connect</text>
<text transform="translate(4.0944,-6.2347) scale(1,-1) scale(0.011001) " font-family="Helvetica,sans-serif" font-size="20px" stroke="none" fill="black" > </text>
<line x1="1.685" y1="-6.275" x2="6.565" y2="-6.275" stroke-width="0.014909" />
<polygon points="6.465,-6.25 6.565,-6.275 6.465,-6.3 " stroke-width="0.014909" fill="black" />
<text transform="translate(3.5625,-6.2207) scale(1,-1) scale(0.011001) " font-family="Helvetica,sans-serif" font-size="20px" stroke="none" fill="black" >volume info</text>
<text transform="translate(4.0944,-6.4847) scale(1,-1) scale(0.011001) " font-family="Helvetica,sans-serif" font-size="20px" stroke="none" fill="black" > </text>
<line x1="6.565" y1="-6.525" x2="1.685" y2="-6.525" stroke-width="0.014909" />
<polygon points="1.785,-6.55 1.685,-6.525 1.785,-6.5 " stroke-width="0.014909" fill="black" />
<text transform="translate(3.9538,-6.4707) scale(1,-1) scale(0.011001) " font-family="Helvetica,sans-serif" font-size="20px" stroke="none" fill="black" >ack</text>
<text transform="translate(4.0944,-6.7347) scale(1,-1) scale(0.011001) " font-family="Helvetica,sans-serif" font-size="20px" stroke="none" fill="black" > </text>
<line x1="1.685" y1="-6.775" x2="6.565" y2="-6.775" stroke-width="0.014909" />
<polygon points="6.465,-6.75 6.565,-6.775 6.465,-6.8 " stroke-width="0.014909" fill="black" />
<text transform="translate(3.8927,-6.7207) scale(1,-1) scale(0.011001) " font-family="Helvetica,sans-serif" font-size="20px" stroke="none" fill="black" >file 1</text>
<text transform="translate(4.0944,-6.9847) scale(1,-1) scale(0.011001) " font-family="Helvetica,sans-serif" font-size="20px" stroke="none" fill="black" > </text>
<line x1="6.565" y1="-7.025" x2="1.685" y2="-7.025" stroke-width="0.014909" />
<polygon points="1.785,-7.05 1.685,-7.025 1.785,-7 " stroke-width="0.014909" fill="black" />
<text transform="translate(3.9538,-6.9707) scale(1,-1) scale(0.011001) " font-family="Helvetica,sans-serif" font-size="20px" stroke="none" fill="black" >ack</text>
<text transform="translate(4.0944,-7.2347) scale(1,-1) scale(0.011001) " font-family="Helvetica,sans-serif" font-size="20px" stroke="none" fill="black" > </text>
<line x1="1.685" y1="-7.275" x2="6.565" y2="-7.275" stroke-width="0.014909" />
<polygon points="6.465,-7.25 6.565,-7.275 6.465,-7.3 " stroke-width="0.014909" fill="black" />
<text transform="translate(2.9177,-7.2207) scale(1,-1) scale(0.011001) " font-family="Helvetica,sans-serif" font-size="20px" stroke="none" fill="black" >Offer_MoreWork - Joker</text>
<text transform="translate(4.0944,-7.4847) scale(1,-1) scale(0.011001) " font-family="Helvetica,sans-serif" font-size="20px" stroke="none" fill="black" > </text>
<line x1="6.565" y1="-7.525" x2="1.685" y2="-7.525" stroke-width="0.014909" />
<polygon points="1.785,-7.55 1.685,-7.525 1.785,-7.5 " stroke-width="0.014909" fill="black" />
<text transform="translate(3.9538,-7.4707) scale(1,-1) scale(0.011001) " font-family="Helvetica,sans-serif" font-size="20px" stroke="none" fill="black" >ack</text>
<text transform="translate(4.0944,-7.7347) scale(1,-1) scale(0.011001) " font-family="Helvetica,sans-serif" font-size="20px" stroke="none" fill="black" > </text>
<line x1="1.685" y1="-7.775" x2="6.565" y2="-7.775" stroke-width="0.014909" />
<polygon points="6.465,-7.75 6.565,-7.775 6.465,-7.8 " stroke-width="0.014909" fill="black" />
<text transform="translate(3.4709,-7.7207) scale(1,-1) scale(0.011001) " font-family="Helvetica,sans-serif" font-size="20px" stroke="none" fill="black" >NoMore_Req</text>
<text transform="translate(4.0944,-7.9847) scale(1,-1) scale(0.011001) " font-family="Helvetica,sans-serif" font-size="20px" stroke="none" fill="black" > </text>
<line x1="6.565" y1="-8.025" x2="1.685" y2="-8.025" stroke-width="0.014909" />
<polygon points="1.785,-8.05 1.685,-8.025 1.785,-8 " stroke-width="0.014909" fill="black" />
<text transform="translate(3.9538,-7.9707) scale(1,-1) scale(0.011001) " font-family="Helvetica,sans-serif" font-size="20px" stroke="none" fill="black" >ack</text>
<text transform="translate(4.0944,-8.2347) scale(1,-1) scale(0.011001) " font-family="Helvetica,sans-serif" font-size="20px" stroke="none" fill="black" > </text>
<line x1="6.565" y1="-8.525" x2="1.685" y2="-8.525" stroke-width="0.014909" />
<polygon points="1.785,-8.55 1.685,-8.525 1.785,-8.5 " stroke-width="0.014909" fill="black" />
<text transform="translate(3.1894,-8.4707) scale(1,-1) scale(0.011001) " font-family="Helvetica,sans-serif" font-size="20px" stroke="none" fill="black" >connect for tape IO</text>
<text transform="translate(4.0944,-8.7347) scale(1,-1) scale(0.011001) " font-family="Helvetica,sans-serif" font-size="20px" stroke="none" fill="black" > </text>
<line x1="6.565" y1="-8.775" x2="1.685" y2="-8.775" stroke-width="0.014909" />
<polygon points="1.785,-8.8 1.685,-8.775 1.785,-8.75 " stroke-width="0.014909" fill="black" />
<text transform="translate(3.2079,-8.7207) scale(1,-1) scale(0.011001) " font-family="Helvetica,sans-serif" font-size="20px" stroke="none" fill="black" >connect for disk IO</text>
<text transform="translate(4.0944,-8.9847) scale(1,-1) scale(0.011001) " font-family="Helvetica,sans-serif" font-size="20px" stroke="none" fill="black" > </text>
<line x1="6.565" y1="-9.025" x2="1.685" y2="-9.025" stroke-width="0.014909" />
<polygon points="1.785,-9.05 1.685,-9.025 1.785,-9 " stroke-width="0.014909" fill="black" />
<text transform="translate(3.2079,-8.9707) scale(1,-1) scale(0.011001) " font-family="Helvetica,sans-serif" font-size="20px" stroke="none" fill="black" >connect for disk IO</text>
<text transform="translate(4.0944,-9.2347) scale(1,-1) scale(0.011001) " font-family="Helvetica,sans-serif" font-size="20px" stroke="none" fill="black" > </text>
<line x1="6.565" y1="-9.275" x2="1.685" y2="-9.275" stroke-width="0.014909" />
<polygon points="1.785,-9.3 1.685,-9.275 1.785,-9.25 " stroke-width="0.014909" fill="black" />
<text transform="translate(3.2079,-9.2207) scale(1,-1) scale(0.011001) " font-family="Helvetica,sans-serif" font-size="20px" stroke="none" fill="black" >connect for disk IO</text>
<text transform="translate(4.0944,-9.4847) scale(1,-1) scale(0.011001) " font-family="Helvetica,sans-serif" font-size="20px" stroke="none" fill="black" > </text>
<line x1="6.565" y1="-9.775" x2="1.685" y2="-9.775" stroke-width="0.014909" />
<polygon points="1.785,-9.8 1.685,-9.775 1.785,-9.75 " stroke-width="0.014909" fill="black" />
<text transform="translate(2.9819,-9.7207) scale(1,-1) scale(0.011001) " font-family="Helvetica,sans-serif" font-size="20px" stroke="none" fill="black" >Request_MoreWork (1)</text>
<text transform="translate(4.0944,-9.9847) scale(1,-1) scale(0.011001) " font-family="Helvetica,sans-serif" font-size="20px" stroke="none" fill="black" > </text>
<line x1="1.685" y1="-10.025" x2="6.565" y2="-10.025" stroke-width="0.014909" />
<polygon points="6.465,-10 6.565,-10.025 6.465,-10.05 " stroke-width="0.014909" fill="black" />
<text transform="translate(3.8927,-9.9707) scale(1,-1) scale(0.011001) " font-family="Helvetica,sans-serif" font-size="20px" stroke="none" fill="black" >file 2</text>
<text transform="translate(4.0944,-10.235) scale(1,-1) scale(0.011001) " font-family="Helvetica,sans-serif" font-size="20px" stroke="none" fill="black" > </text>
<line x1="6.565" y1="-10.275" x2="1.685" y2="-10.275" stroke-width="0.014909" />
<polygon points="1.785,-10.3 1.685,-10.275 1.785,-10.25 " stroke-width="0.014909" fill="black" />
<text transform="translate(3.9538,-10.221) scale(1,-1) scale(0.011001) " font-family="Helvetica,sans-serif" font-size="20px" stroke="none" fill="black" >ack</text>
<text transform="translate(4.0944,-10.485) scale(1,-1) scale(0.011001) " font-family="Helvetica,sans-serif" font-size="20px" stroke="none" fill="black" > </text>
<line x1="1.685" y1="-10.525" x2="6.565" y2="-10.525" stroke-width="0.014909" />
<polygon points="6.465,-10.5 6.565,-10.525 6.465,-10.55 " stroke-width="0.014909" fill="black" />
<text transform="translate(2.9177,-10.471) scale(1,-1) scale(0.011001) " font-family="Helvetica,sans-serif" font-size="20px" stroke="none" fill="black" >Offer_MoreWork - Joker</text>
<text transform="translate(4.0944,-10.735) scale(1,-1) scale(0.011001) " font-family="Helvetica,sans-serif" font-size="20px" stroke="none" fill="black" > </text>
<line x1="6.565" y1="-10.775" x2="1.685" y2="-10.775" stroke-width="0.014909" />
<polygon points="1.785,-10.8 1.685,-10.775 1.785,-10.75 " stroke-width="0.014909" fill="black" />
<text transform="translate(3.9538,-10.721) scale(1,-1) scale(0.011001) " font-family="Helvetica,sans-serif" font-size="20px" stroke="none" fill="black" >ack</text>
<text transform="translate(4.0944,-10.985) scale(1,-1) scale(0.011001) " font-family="Helvetica,sans-serif" font-size="20px" stroke="none" fill="black" > </text>
<line x1="1.685" y1="-11.025" x2="6.565" y2="-11.025" stroke-width="0.014909" />
<polygon points="6.465,-11 6.565,-11.025 6.465,-11.05 " stroke-width="0.014909" fill="black" />
<text transform="translate(3.4709,-10.971) scale(1,-1) scale(0.011001) " font-family="Helvetica,sans-serif" font-size="20px" stroke="none" fill="black" >NoMore_Req</text>
<text transform="translate(4.0944,-11.235) scale(1,-1) scale(0.011001) " font-family="Helvetica,sans-serif" font-size="20px" stroke="none" fill="black" > </text>
<line x1="6.565" y1="-11.275" x2="1.685" y2="-11.275" stroke-width="0.014909" />
<polygon points="1.785,-11.3 1.685,-11.275 1.785,-11.25 " stroke-width="0.014909" fill="black" />
<text transform="translate(3.9538,-11.221) scale(1,-1) scale(0.011001) " font-family="Helvetica,sans-serif" font-size="20px" stroke="none" fill="black" >ack</text>
<text transform="translate(4.0944,-11.485) scale(1,-1) scale(0.011001) " font-family="Helvetica,sans-serif" font-size="20px" stroke="none" fill="black" > </text>
<line x1="1.685" y1="-11.525" x2="6.565" y2="-11.525" stroke-width="0.014909" />
<polygon points="6.465,-11.5 6.565,-11.525 6.465,-11.55 " stroke-width="0.014909" fill="black" />
<text transform="translate(2.6578,-11.471) scale(1,-1) scale(0.011001) " font-family="Helvetica,sans-serif" font-size="20px" stroke="none" fill="black" >ack of Request_MoreWork (1)</text>
<text transform="translate(4.0944,-11.735) scale(1,-1) scale(0.011001) " font-family="Helvetica,sans-serif" font-size="20px" stroke="none" fill="black" > </text>
<line x1="6.565" y1="-12.025" x2="1.685" y2="-12.025" stroke-width="0.014909" />
<polygon points="1.785,-12.05 1.685,-12.025 1.785,-12 " stroke-width="0.014909" fill="black" />
<text transform="translate(2.9819,-11.971) scale(1,-1) scale(0.011001) " font-family="Helvetica,sans-serif" font-size="20px" stroke="none" fill="black" >Request_MoreWork (2)</text>
<text transform="translate(4.0944,-12.235) scale(1,-1) scale(0.011001) " font-family="Helvetica,sans-serif" font-size="20px" stroke="none" fill="black" > </text>
<line x1="1.685" y1="-12.275" x2="6.565" y2="-12.275" stroke-width="0.014909" />
<polygon points="6.465,-12.25 6.565,-12.275 6.465,-12.3 " stroke-width="0.014909" fill="black" />
<text transform="translate(3.9538,-12.221) scale(1,-1) scale(0.011001) " font-family="Helvetica,sans-serif" font-size="20px" stroke="none" fill="black" >ack</text>
<text transform="translate(4.0944,-12.485) scale(1,-1) scale(0.011001) " font-family="Helvetica,sans-serif" font-size="20px" stroke="none" fill="black" > </text>
<line x1="1.685" y1="-12.525" x2="6.565" y2="-12.525" stroke-width="0.014909" />
<polygon points="6.465,-12.5 6.565,-12.525 6.465,-12.55 " stroke-width="0.014909" fill="black" />
<text transform="translate(3.5441,-12.471) scale(1,-1) scale(0.011001) " font-family="Helvetica,sans-serif" font-size="20px" stroke="none" fill="black" >End_of_List</text>
<text transform="translate(4.0944,-12.735) scale(1,-1) scale(0.011001) " font-family="Helvetica,sans-serif" font-size="20px" stroke="none" fill="black" > </text>
<line x1="6.565" y1="-12.775" x2="1.685" y2="-12.775" stroke-width="0.014909" />
<polygon points="1.785,-12.8 1.685,-12.775 1.785,-12.75 " stroke-width="0.014909" fill="black" />
<text transform="translate(3.9538,-12.721) scale(1,-1) scale(0.011001) " font-family="Helvetica,sans-serif" font-size="20px" stroke="none" fill="black" >ack</text>
<text transform="translate(4.0944,-12.985) scale(1,-1) scale(0.011001) " font-family="Helvetica,sans-serif" font-size="20px" stroke="none" fill="black" > </text>
<line x1="1.685" y1="-13.025" x2="6.565" y2="-13.025" stroke-width="0.014909" />
<polygon points="6.465,-13 6.565,-13.025 6.465,-13.05 " stroke-width="0.014909" fill="black" />
<text transform="translate(2.6578,-12.971) scale(1,-1) scale(0.011001) " font-family="Helvetica,sans-serif" font-size="20px" stroke="none" fill="black" >ack of Request_MoreWork (2)</text>
<text transform="translate(4.0944,-13.235) scale(1,-1) scale(0.011001) " font-family="Helvetica,sans-serif" font-size="20px" stroke="none" fill="black" > </text>
<line x1="6.565" y1="-13.525" x2="1.685" y2="-13.525" stroke-width="0.014909" />
<polygon points="1.785,-13.55 1.685,-13.525 1.785,-13.5 " stroke-width="0.014909" fill="black" />
<text transform="translate(2.6943,-13.471) scale(1,-1) scale(0.011001) " font-family="Helvetica,sans-serif" font-size="20px" stroke="none" fill="black" >positioned for file 1 (tape req)</text>
<text transform="translate(4.0944,-13.735) scale(1,-1) scale(0.011001) " font-family="Helvetica,sans-serif" font-size="20px" stroke="none" fill="black" > </text>
<line x1="1.685" y1="-13.775" x2="6.565" y2="-13.775" stroke-width="0.014909" />
<polygon points="6.465,-13.75 6.565,-13.775 6.465,-13.8 " stroke-width="0.014909" fill="black" />
<text transform="translate(3.9538,-13.721) scale(1,-1) scale(0.011001) " font-family="Helvetica,sans-serif" font-size="20px" stroke="none" fill="black" >ack</text>
<text transform="translate(4.0944,-13.985) scale(1,-1) scale(0.011001) " font-family="Helvetica,sans-serif" font-size="20px" stroke="none" fill="black" > </text>
<line x1="6.565" y1="-14.025" x2="1.685" y2="-14.025" stroke-width="0.014909" />
<polygon points="1.785,-14.05 1.685,-14.025 1.785,-14 " stroke-width="0.014909" fill="black" />
<text transform="translate(2.7677,-13.971) scale(1,-1) scale(0.011001) " font-family="Helvetica,sans-serif" font-size="20px" stroke="none" fill="black" >positioned for file 1 (file req)</text>
<text transform="translate(4.0944,-14.235) scale(1,-1) scale(0.011001) " font-family="Helvetica,sans-serif" font-size="20px" stroke="none" fill="black" > </text>
<line x1="1.685" y1="-14.275" x2="6.565" y2="-14.275" stroke-width="0.014909" />
<polygon points="6.465,-14.25 6.565,-14.275 6.465,-14.3 " stroke-width="0.014909" fill="black" />
<text transform="translate(3.9538,-14.221) scale(1,-1) scale(0.011001) " font-family="Helvetica,sans-serif" font-size="20px" stroke="none" fill="black" >ack</text>
<text transform="translate(4.0944,-14.485) scale(1,-1) scale(0.011001) " font-family="Helvetica,sans-serif" font-size="20px" stroke="none" fill="black" > </text>
<line x1="6.565" y1="-14.525" x2="1.685" y2="-14.525" stroke-width="0.014909" />
<polygon points="1.785,-14.55 1.685,-14.525 1.785,-14.5 " stroke-width="0.014909" fill="black" />
<text transform="translate(3.4219,-14.471) scale(1,-1) scale(0.011001) " font-family="Helvetica,sans-serif" font-size="20px" stroke="none" fill="black" >Transfert file 1</text>
<text transform="translate(4.0944,-14.735) scale(1,-1) scale(0.011001) " font-family="Helvetica,sans-serif" font-size="20px" stroke="none" fill="black" > </text>
<line x1="1.685" y1="-14.775" x2="6.565" y2="-14.775" stroke-width="0.014909" />
<polygon points="6.465,-14.75 6.565,-14.775 6.465,-14.8 " stroke-width="0.014909" fill="black" />
<text transform="translate(3.9538,-14.721) scale(1,-1) scale(0.011001) " font-family="Helvetica,sans-serif" font-size="20px" stroke="none" fill="black" >ack</text>
<text transform="translate(4.0944,-14.985) scale(1,-1) scale(0.011001) " font-family="Helvetica,sans-serif" font-size="20px" stroke="none" fill="black" > </text>
<line x1="6.565" y1="-15.275" x2="1.685" y2="-15.275" stroke-width="0.014909" />
<polygon points="1.785,-15.3 1.685,-15.275 1.785,-15.25 " stroke-width="0.014909" fill="black" />
<text transform="translate(2.6943,-15.221) scale(1,-1) scale(0.011001) " font-family="Helvetica,sans-serif" font-size="20px" stroke="none" fill="black" >positioned for file 2 (tape req)</text>
<text transform="translate(4.0944,-15.485) scale(1,-1) scale(0.011001) " font-family="Helvetica,sans-serif" font-size="20px" stroke="none" fill="black" > </text>
<line x1="1.685" y1="-15.525" x2="6.565" y2="-15.525" stroke-width="0.014909" />
<polygon points="6.465,-15.5 6.565,-15.525 6.465,-15.55 " stroke-width="0.014909" fill="black" />
<text transform="translate(3.9538,-15.471) scale(1,-1) scale(0.011001) " font-family="Helvetica,sans-serif" font-size="20px" stroke="none" fill="black" >ack</text>
<text transform="translate(4.0944,-15.735) scale(1,-1) scale(0.011001) " font-family="Helvetica,sans-serif" font-size="20px" stroke="none" fill="black" > </text>
<line x1="6.565" y1="-15.775" x2="1.685" y2="-15.775" stroke-width="0.014909" />
<polygon points="1.785,-15.8 1.685,-15.775 1.785,-15.75 " stroke-width="0.014909" fill="black" />
<text transform="translate(2.7677,-15.721) scale(1,-1) scale(0.011001) " font-family="Helvetica,sans-serif" font-size="20px" stroke="none" fill="black" >positioned for file 2 (file req)</text>
<text transform="translate(4.0944,-15.985) scale(1,-1) scale(0.011001) " font-family="Helvetica,sans-serif" font-size="20px" stroke="none" fill="black" > </text>
<line x1="1.685" y1="-16.025" x2="6.565" y2="-16.025" stroke-width="0.014909" />
<polygon points="6.465,-16 6.565,-16.025 6.465,-16.05 " stroke-width="0.014909" fill="black" />
<text transform="translate(3.9538,-15.971) scale(1,-1) scale(0.011001) " font-family="Helvetica,sans-serif" font-size="20px" stroke="none" fill="black" >ack</text>
<text transform="translate(4.0944,-16.235) scale(1,-1) scale(0.011001) " font-family="Helvetica,sans-serif" font-size="20px" stroke="none" fill="black" > </text>
<line x1="6.565" y1="-16.275" x2="1.685" y2="-16.275" stroke-width="0.014909" />
<polygon points="1.785,-16.3 1.685,-16.275 1.785,-16.25 " stroke-width="0.014909" fill="black" />
<text transform="translate(3.477,-16.221) scale(1,-1) scale(0.011001) " font-family="Helvetica,sans-serif" font-size="20px" stroke="none" fill="black" >Tranfert file 2</text>
<text transform="translate(4.0944,-16.485) scale(1,-1) scale(0.011001) " font-family="Helvetica,sans-serif" font-size="20px" stroke="none" fill="black" > </text>
<line x1="1.685" y1="-16.525" x2="6.565" y2="-16.525" stroke-width="0.014909" />
<polygon points="6.465,-16.5 6.565,-16.525 6.465,-16.55 " stroke-width="0.014909" fill="black" />
<text transform="translate(3.9538,-16.471) scale(1,-1) scale(0.011001) " font-family="Helvetica,sans-serif" font-size="20px" stroke="none" fill="black" >ack</text>
<text transform="translate(4.0944,-16.735) scale(1,-1) scale(0.011001) " font-family="Helvetica,sans-serif" font-size="20px" stroke="none" fill="black" > </text>
<line x1="6.565" y1="-17.025" x2="1.685" y2="-17.025" stroke-width="0.014909" />
<polygon points="1.785,-17.05 1.685,-17.025 1.785,-17 " stroke-width="0.014909" fill="black" />
<text transform="translate(3.5135,-16.971) scale(1,-1) scale(0.011001) " font-family="Helvetica,sans-serif" font-size="20px" stroke="none" fill="black" >End_of_Req</text>
<text transform="translate(4.0944,-17.235) scale(1,-1) scale(0.011001) " font-family="Helvetica,sans-serif" font-size="20px" stroke="none" fill="black" > </text>
<line x1="1.685" y1="-17.275" x2="6.565" y2="-17.275" stroke-width="0.014909" />
<polygon points="6.465,-17.25 6.565,-17.275 6.465,-17.3 " stroke-width="0.014909" fill="black" />
<text transform="translate(3.9538,-17.221) scale(1,-1) scale(0.011001) " font-family="Helvetica,sans-serif" font-size="20px" stroke="none" fill="black" >ack</text>
<text transform="translate(4.0944,-17.485) scale(1,-1) scale(0.011001) " font-family="Helvetica,sans-serif" font-size="20px" stroke="none" fill="black" > </text>
<line x1="6.575" y1="-2.25" x2="6.575" y2="-17.275" stroke-width="0.014909" />
<line x1="6.675" y1="-2.25" x2="6.675" y2="-17.275" stroke-width="0.014909" />
<line x1="6.575" y1="-17.275" x2="6.675" y2="-17.275" stroke-width="0.014909" />
<line x1="1.575" y1="-4.775" x2="1.575" y2="-17.275" stroke-width="0.014909" />
<line x1="1.675" y1="-4.775" x2="1.675" y2="-17.275" stroke-width="0.014909" />
<line x1="1.575" y1="-17.275" x2="1.675" y2="-17.275" stroke-width="0.014909" />
<line x1="0.325" y1="-0.25" x2="0.325" y2="-17.275" stroke-width="0.014909" />
<line x1="0.425" y1="-0.25" x2="0.425" y2="-17.275" stroke-width="0.014909" />
<line x1="0.325" y1="-17.275" x2="0.425" y2="-17.275" stroke-width="0.014909" />
<line x1="0.375" y1="-17.275" x2="0.375" y2="-17.275" stroke-width="0.014909" stroke-dasharray="0.05, 0.05"/>
<line x1="1.625" y1="-17.275" x2="1.625" y2="-17.275" stroke-width="0.014909" stroke-dasharray="0.05, 0.05"/>
<line x1="2.875" y1="-3" x2="2.875" y2="-17.275" stroke-width="0.014909" stroke-dasharray="0.05, 0.05"/>
<line x1="6.625" y1="-17.275" x2="6.625" y2="-17.275" stroke-width="0.014909" stroke-dasharray="0.05, 0.05"/>
</g>
</svg>
