<?xml version="1.0" encoding="ISO-8859-1" standalone="no"?>
<!DOCTYPE svg PUBLIC "-//W3C//DTD SVG 1.1//EN" "http://www.w3.org/Graphics/SVG/1.1/DTD/svg11.dtd">
<svg version="1.1" baseProfile="full" id="body" width="8in" height="8in" viewBox="0 0 1 1" preserveAspectRatio="none" xmlns="http://www.w3.org/2000/svg" xmlns:xlink="http://www.w3.org/1999/xlink" xmlns:ev="http://www.w3.org/2001/xml-events">
<title>SVG drawing</title>
<desc>This was produced by version 4.4 of GNU libplot, a free library for exporting 2-D vector graphics.</desc>
<rect id="background" x="0" y="0" width="1" height="1" stroke="none" fill="white"/>
<g id="content" transform="translate(0.20395,-0.1875) scale(0.087719,-0.087719) " xml:space="preserve" stroke="black" stroke-linecap="butt" stroke-linejoin="miter" stroke-miterlimit="10.433" stroke-dasharray="none" stroke-dashoffset="0" stroke-opacity="1" fill="none" fill-rule="evenodd" fill-opacity="1" font-style="normal" font-variant="normal" font-weight="normal" font-stretch="normal" font-size-adjust="none" letter-spacing="normal" word-spacing="normal" text-anchor="start">
<rect x="-0.375" y="-0.55" width="0.75" height="0.3" stroke-width="0.013412" />
<text transform="translate(-0.29143,-0.46986) scale(1,-1) scale(0.0098958) " font-family="Helvetica,sans-serif" font-size="20px" stroke="none" fill="black" >rtcpcld</text>
<line x1="-0.275" y1="-0.47" x2="0.275" y2="-0.47" stroke-width="0.013412" />
<rect x="2.125" y="-0.55" width="0.75" height="0.3" stroke-width="0.013412" />
<text transform="translate(2.258,-0.46986) scale(1,-1) scale(0.0098958) " font-family="Helvetica,sans-serif" font-size="20px" stroke="none" fill="black" >vdqm</text>
<line x1="2.225" y1="-0.47" x2="2.775" y2="-0.47" stroke-width="0.013412" />
<rect x="5.875" y="-0.55" width="0.75" height="0.3" stroke-width="0.013412" />
<text transform="translate(6.03,-0.46986) scale(1,-1) scale(0.0098958) " font-family="Helvetica,sans-serif" font-size="20px" stroke="none" fill="black" >rtcpd</text>
<line x1="5.975" y1="-0.47" x2="6.525" y2="-0.47" stroke-width="0.013412" />
<line x1="0" y1="-0.55" x2="0" y2="-0.65" stroke-width="0.013412" stroke-dasharray="0.05, 0.05"/>
<line x1="-0.05" y1="-0.65" x2="0.05" y2="-0.65" stroke-width="0.013412" />
<line x1="0.06" y1="-0.9" x2="2.44" y2="-0.9" stroke-width="0.013412" />
<polygon points="2.34,-0.875 2.44,-0.9 2.34,-0.925 " stroke-width="0.013412" fill="black" />
<text transform="translate(0.90345,-0.85111) scale(1,-1) scale(0.0098958) " font-family="Helvetica,sans-serif" font-size="20px" stroke="none" fill="black" >connect</text>
<text transform="translate(1.2225,-1.0886) scale(1,-1) scale(0.0098958) " font-family="Helvetica,sans-serif" font-size="20px" stroke="none" fill="black" > </text>
<line x1="2.5" y1="-0.55" x2="2.5" y2="-0.9" stroke-width="0.013412" stroke-dasharray="0.05, 0.05"/>
<line x1="2.45" y1="-0.9" x2="2.55" y2="-0.9" stroke-width="0.013412" />
<line x1="0.06" y1="-1.15" x2="2.44" y2="-1.15" stroke-width="0.013412" />
<polygon points="2.34,-1.125 2.44,-1.15 2.34,-1.175 " stroke-width="0.013412" fill="black" />
<text transform="translate(0.57352,-1.1011) scale(1,-1) scale(0.0098958) " font-family="Helvetica,sans-serif" font-size="20px" stroke="none" fill="black" >volume request</text>
<text transform="translate(1.2225,-1.3386) scale(1,-1) scale(0.0098958) " font-family="Helvetica,sans-serif" font-size="20px" stroke="none" fill="black" > </text>
<line x1="2.44" y1="-1.4" x2="0.06" y2="-1.4" stroke-width="0.013412" />
<polygon points="0.16,-1.425 0.06,-1.4 0.16,-1.375 " stroke-width="0.013412" fill="black" />
<text transform="translate(1.096,-1.3511) scale(1,-1) scale(0.0098958) " font-family="Helvetica,sans-serif" font-size="20px" stroke="none" fill="black" >ack</text>
<text transform="translate(1.2225,-1.5886) scale(1,-1) scale(0.0098958) " font-family="Helvetica,sans-serif" font-size="20px" stroke="none" fill="black" > </text>
<line x1="2.44" y1="-1.65" x2="0.06" y2="-1.65" stroke-width="0.013412" />
<polygon points="0.16,-1.675 0.06,-1.65 0.16,-1.625 " stroke-width="0.013412" fill="black" />
<text transform="translate(0.84308,-1.6011) scale(1,-1) scale(0.0098958) " font-family="Helvetica,sans-serif" font-size="20px" stroke="none" fill="black" >volReqID</text>
<text transform="translate(1.2225,-1.8386) scale(1,-1) scale(0.0098958) " font-family="Helvetica,sans-serif" font-size="20px" stroke="none" fill="black" > </text>
<line x1="0.06" y1="-1.9" x2="2.44" y2="-1.9" stroke-width="0.013412" />
<polygon points="2.34,-1.875 2.44,-1.9 2.34,-1.925 " stroke-width="0.013412" fill="black" />
<text transform="translate(1.096,-1.8511) scale(1,-1) scale(0.0098958) " font-family="Helvetica,sans-serif" font-size="20px" stroke="none" fill="black" >ack</text>
<text transform="translate(1.2225,-2.0886) scale(1,-1) scale(0.0098958) " font-family="Helvetica,sans-serif" font-size="20px" stroke="none" fill="black" > </text>
<line x1="0.06" y1="-2.15" x2="2.44" y2="-2.15" stroke-width="0.013412" />
<polygon points="2.34,-2.125 2.44,-2.15 2.34,-2.175 " stroke-width="0.013412" fill="black" />
<text transform="translate(0.77698,-2.1011) scale(1,-1) scale(0.0098958) " font-family="Helvetica,sans-serif" font-size="20px" stroke="none" fill="black" >disconnect</text>
<text transform="translate(1.2225,-2.3386) scale(1,-1) scale(0.0098958) " font-family="Helvetica,sans-serif" font-size="20px" stroke="none" fill="black" > </text>
<line x1="2.45" y1="-0.9" x2="2.45" y2="-2.15" stroke-width="0.013412" />
<line x1="2.55" y1="-0.9" x2="2.55" y2="-2.15" stroke-width="0.013412" />
<line x1="2.45" y1="-2.15" x2="2.55" y2="-2.15" stroke-width="0.013412" />
<line x1="2.5" y1="-2.15" x2="2.5" y2="-2.4" stroke-width="0.013412" stroke-dasharray="0.05, 0.05"/>
<line x1="2.45" y1="-2.4" x2="2.55" y2="-2.4" stroke-width="0.013412" />
<line x1="6.25" y1="-0.55" x2="6.25" y2="-2.4" stroke-width="0.013412" stroke-dasharray="0.05, 0.05"/>
<line x1="6.2" y1="-2.4" x2="6.3" y2="-2.4" stroke-width="0.013412" />
<line x1="2.56" y1="-2.65" x2="6.19" y2="-2.65" stroke-width="0.013412" />
<polygon points="6.09,-2.625 6.19,-2.65 6.09,-2.675 " stroke-width="0.013412" fill="black" />
<text transform="translate(4.0284,-2.6011) scale(1,-1) scale(0.0098958) " font-family="Helvetica,sans-serif" font-size="20px" stroke="none" fill="black" >connect</text>
<text transform="translate(4.3475,-2.8386) scale(1,-1) scale(0.0098958) " font-family="Helvetica,sans-serif" font-size="20px" stroke="none" fill="black" > </text>
<line x1="2.56" y1="-2.9" x2="6.19" y2="-2.9" stroke-width="0.013412" />
<polygon points="6.09,-2.875 6.19,-2.9 6.09,-2.925 " stroke-width="0.013412" fill="black" />
<text transform="translate(3.7122,-2.8511) scale(1,-1) scale(0.0098958) " font-family="Helvetica,sans-serif" font-size="20px" stroke="none" fill="black" >ClientInfo - job</text>
<text transform="translate(4.3475,-3.0886) scale(1,-1) scale(0.0098958) " font-family="Helvetica,sans-serif" font-size="20px" stroke="none" fill="black" > </text>
<line x1="6.19" y1="-3.15" x2="2.56" y2="-3.15" stroke-width="0.013412" />
<polygon points="2.66,-3.175 2.56,-3.15 2.66,-3.125 " stroke-width="0.013412" fill="black" />
<text transform="translate(3.7866,-3.1011) scale(1,-1) scale(0.0098958) " font-family="Helvetica,sans-serif" font-size="20px" stroke="none" fill="black" >RcpJobReply</text>
<text transform="translate(4.3475,-3.3386) scale(1,-1) scale(0.0098958) " font-family="Helvetica,sans-serif" font-size="20px" stroke="none" fill="black" > </text>
<line x1="6.19" y1="-3.4" x2="2.56" y2="-3.4" stroke-width="0.013412" />
<polygon points="2.66,-3.425 2.56,-3.4 2.66,-3.375 " stroke-width="0.013412" fill="black" />
<text transform="translate(3.902,-3.3511) scale(1,-1) scale(0.0098958) " font-family="Helvetica,sans-serif" font-size="20px" stroke="none" fill="black" >disconnect</text>
<text transform="translate(4.3475,-3.5886) scale(1,-1) scale(0.0098958) " font-family="Helvetica,sans-serif" font-size="20px" stroke="none" fill="black" > </text>
<line x1="2.45" y1="-2.4" x2="2.45" y2="-3.4" stroke-width="0.013412" />
<line x1="2.55" y1="-2.4" x2="2.55" y2="-3.4" stroke-width="0.013412" />
<line x1="2.45" y1="-3.4" x2="2.55" y2="-3.4" stroke-width="0.013412" />
<line x1="6.19" y1="-3.65" x2="0.06" y2="-3.65" stroke-width="0.013412" />
<polygon points="0.16,-3.675 0.06,-3.65 0.16,-3.625 " stroke-width="0.013412" fill="black" />
<text transform="translate(2.7784,-3.6011) scale(1,-1) scale(0.0098958) " font-family="Helvetica,sans-serif" font-size="20px" stroke="none" fill="black" >connect</text>
<text transform="translate(3.0975,-3.8386) scale(1,-1) scale(0.0098958) " font-family="Helvetica,sans-serif" font-size="20px" stroke="none" fill="black" > </text>
<line x1="0.06" y1="-3.9" x2="6.19" y2="-3.9" stroke-width="0.013412" />
<polygon points="6.09,-3.875 6.19,-3.9 6.09,-3.925 " stroke-width="0.013412" fill="black" />
<text transform="translate(2.4209,-3.8511) scale(1,-1) scale(0.0098958) " font-family="Helvetica,sans-serif" font-size="20px" stroke="none" fill="black" >request ReqInfo</text>
<text transform="translate(3.0975,-4.0886) scale(1,-1) scale(0.0098958) " font-family="Helvetica,sans-serif" font-size="20px" stroke="none" fill="black" > </text>
<line x1="6.19" y1="-4.15" x2="0.06" y2="-4.15" stroke-width="0.013412" />
<polygon points="0.16,-4.175 0.06,-4.15 0.16,-4.125 " stroke-width="0.013412" fill="black" />
<text transform="translate(2.971,-4.1011) scale(1,-1) scale(0.0098958) " font-family="Helvetica,sans-serif" font-size="20px" stroke="none" fill="black" >ack</text>
<text transform="translate(3.0975,-4.3386) scale(1,-1) scale(0.0098958) " font-family="Helvetica,sans-serif" font-size="20px" stroke="none" fill="black" > </text>
<line x1="6.19" y1="-4.4" x2="0.06" y2="-4.4" stroke-width="0.013412" />
<polygon points="0.16,-4.425 0.06,-4.4 0.16,-4.375 " stroke-width="0.013412" fill="black" />
<text transform="translate(2.7784,-4.3511) scale(1,-1) scale(0.0098958) " font-family="Helvetica,sans-serif" font-size="20px" stroke="none" fill="black" >ReqInfo</text>
<text transform="translate(3.0975,-4.5886) scale(1,-1) scale(0.0098958) " font-family="Helvetica,sans-serif" font-size="20px" stroke="none" fill="black" > </text>
<line x1="0.06" y1="-4.65" x2="6.19" y2="-4.65" stroke-width="0.013412" />
<polygon points="6.09,-4.625 6.19,-4.65 6.09,-4.675 " stroke-width="0.013412" fill="black" />
<text transform="translate(2.971,-4.6011) scale(1,-1) scale(0.0098958) " font-family="Helvetica,sans-serif" font-size="20px" stroke="none" fill="black" >ack</text>
<text transform="translate(3.0975,-4.8386) scale(1,-1) scale(0.0098958) " font-family="Helvetica,sans-serif" font-size="20px" stroke="none" fill="black" > </text>
<line x1="0.06" y1="-4.9" x2="0.8675" y2="-4.9" stroke-width="0.013412" />
<polygon points="0.7675,-4.875 0.8675,-4.9 0.7675,-4.925 " stroke-width="0.013412" fill="black" />
<text transform="translate(0.078703,-4.8511) scale(1,-1) scale(0.0098958) " font-family="Helvetica,sans-serif" font-size="20px" stroke="none" fill="black" >«create»</text>
<text transform="translate(0.43624,-5.0886) scale(1,-1) scale(0.0098958) " font-family="Helvetica,sans-serif" font-size="20px" stroke="none" fill="black" > </text>
<rect x="0.8675" y="-5.05" width="0.75" height="0.3" stroke-width="0.013412" />
<text transform="translate(0.91811,-4.9699) scale(1,-1) scale(0.0098958) " font-family="Helvetica,sans-serif" font-size="20px" stroke="none" fill="black" >recaller</text>
<line x1="0.9675" y1="-4.97" x2="1.5175" y2="-4.97" stroke-width="0.013412" />
<line x1="1.25" y1="-5.05" x2="1.25" y2="-5.175" stroke-width="0.013412" stroke-dasharray="0.05, 0.05"/>
<line x1="1.2" y1="-5.175" x2="1.3" y2="-5.175" stroke-width="0.013412" />
<line x1="1.31" y1="-5.425" x2="6.19" y2="-5.425" stroke-width="0.013412" />
<polygon points="6.09,-5.4 6.19,-5.425 6.09,-5.45 " stroke-width="0.013412" fill="black" />
<text transform="translate(2.6527,-5.3761) scale(1,-1) scale(0.0098958) " font-family="Helvetica,sans-serif" font-size="20px" stroke="none" fill="black" >ClientInfo - new callback</text>
<text transform="translate(3.7225,-5.6136) scale(1,-1) scale(0.0098958) " font-family="Helvetica,sans-serif" font-size="20px" stroke="none" fill="black" > </text>
<line x1="6.19" y1="-5.675" x2="1.31" y2="-5.675" stroke-width="0.013412" />
<polygon points="1.41,-5.7 1.31,-5.675 1.41,-5.65 " stroke-width="0.013412" fill="black" />
<text transform="translate(3.596,-5.6261) scale(1,-1) scale(0.0098958) " font-family="Helvetica,sans-serif" font-size="20px" stroke="none" fill="black" >ack</text>
<text transform="translate(3.7225,-5.8636) scale(1,-1) scale(0.0098958) " font-family="Helvetica,sans-serif" font-size="20px" stroke="none" fill="black" > </text>
<line x1="1.31" y1="-5.925" x2="6.19" y2="-5.925" stroke-width="0.013412" />
<polygon points="6.09,-5.9 6.19,-5.925 6.09,-5.95 " stroke-width="0.013412" fill="black" />
<text transform="translate(3.277,-5.8761) scale(1,-1) scale(0.0098958) " font-family="Helvetica,sans-serif" font-size="20px" stroke="none" fill="black" >disconnect</text>
<text transform="translate(3.7225,-6.1136) scale(1,-1) scale(0.0098958) " font-family="Helvetica,sans-serif" font-size="20px" stroke="none" fill="black" > </text>
<line x1="6.19" y1="-6.425" x2="1.31" y2="-6.425" stroke-width="0.013412" />
<polygon points="1.41,-6.45 1.31,-6.425 1.41,-6.4 " stroke-width="0.013412" fill="black" />
<text transform="translate(3.4034,-6.3761) scale(1,-1) scale(0.0098958) " font-family="Helvetica,sans-serif" font-size="20px" stroke="none" fill="black" >connect</text>
<text transform="translate(3.7225,-6.6136) scale(1,-1) scale(0.0098958) " font-family="Helvetica,sans-serif" font-size="20px" stroke="none" fill="black" > </text>
<line x1="1.31" y1="-6.675" x2="6.19" y2="-6.675" stroke-width="0.013412" />
<polygon points="6.09,-6.65 6.19,-6.675 6.09,-6.7 " stroke-width="0.013412" fill="black" />
<text transform="translate(3.244,-6.6261) scale(1,-1) scale(0.0098958) " font-family="Helvetica,sans-serif" font-size="20px" stroke="none" fill="black" >volume info</text>
<text transform="translate(3.7225,-6.8636) scale(1,-1) scale(0.0098958) " font-family="Helvetica,sans-serif" font-size="20px" stroke="none" fill="black" > </text>
<line x1="6.19" y1="-6.925" x2="1.31" y2="-6.925" stroke-width="0.013412" />
<polygon points="1.41,-6.95 1.31,-6.925 1.41,-6.9 " stroke-width="0.013412" fill="black" />
<text transform="translate(3.596,-6.8761) scale(1,-1) scale(0.0098958) " font-family="Helvetica,sans-serif" font-size="20px" stroke="none" fill="black" >ack</text>
<text transform="translate(3.7225,-7.1136) scale(1,-1) scale(0.0098958) " font-family="Helvetica,sans-serif" font-size="20px" stroke="none" fill="black" > </text>
<line x1="1.31" y1="-7.175" x2="6.19" y2="-7.175" stroke-width="0.013412" />
<polygon points="6.09,-7.15 6.19,-7.175 6.09,-7.2 " stroke-width="0.013412" fill="black" />
<text transform="translate(2.6639,-7.1261) scale(1,-1) scale(0.0098958) " font-family="Helvetica,sans-serif" font-size="20px" stroke="none" fill="black" >Offer_MoreWork - Joker</text>
<text transform="translate(3.7225,-7.3636) scale(1,-1) scale(0.0098958) " font-family="Helvetica,sans-serif" font-size="20px" stroke="none" fill="black" > </text>
<line x1="6.19" y1="-7.425" x2="1.31" y2="-7.425" stroke-width="0.013412" />
<polygon points="1.41,-7.45 1.31,-7.425 1.41,-7.4 " stroke-width="0.013412" fill="black" />
<text transform="translate(3.596,-7.3761) scale(1,-1) scale(0.0098958) " font-family="Helvetica,sans-serif" font-size="20px" stroke="none" fill="black" >ack</text>
<text transform="translate(3.7225,-7.6136) scale(1,-1) scale(0.0098958) " font-family="Helvetica,sans-serif" font-size="20px" stroke="none" fill="black" > </text>
<line x1="1.31" y1="-7.675" x2="6.19" y2="-7.675" stroke-width="0.013412" />
<polygon points="6.09,-7.65 6.19,-7.675 6.09,-7.7 " stroke-width="0.013412" fill="black" />
<text transform="translate(3.1616,-7.6261) scale(1,-1) scale(0.0098958) " font-family="Helvetica,sans-serif" font-size="20px" stroke="none" fill="black" >NoMore_Req</text>
<text transform="translate(3.7225,-7.8636) scale(1,-1) scale(0.0098958) " font-family="Helvetica,sans-serif" font-size="20px" stroke="none" fill="black" > </text>
<line x1="6.19" y1="-7.925" x2="1.31" y2="-7.925" stroke-width="0.013412" />
<polygon points="1.41,-7.95 1.31,-7.925 1.41,-7.9 " stroke-width="0.013412" fill="black" />
<text transform="translate(3.596,-7.8761) scale(1,-1) scale(0.0098958) " font-family="Helvetica,sans-serif" font-size="20px" stroke="none" fill="black" >ack</text>
<text transform="translate(3.7225,-8.1136) scale(1,-1) scale(0.0098958) " font-family="Helvetica,sans-serif" font-size="20px" stroke="none" fill="black" > </text>
<line x1="6.19" y1="-8.425" x2="1.31" y2="-8.425" stroke-width="0.013412" />
<polygon points="1.41,-8.45 1.31,-8.425 1.41,-8.4 " stroke-width="0.013412" fill="black" />
<text transform="translate(2.9084,-8.3761) scale(1,-1) scale(0.0098958) " font-family="Helvetica,sans-serif" font-size="20px" stroke="none" fill="black" >connect for tape IO</text>
<text transform="translate(3.7225,-8.6136) scale(1,-1) scale(0.0098958) " font-family="Helvetica,sans-serif" font-size="20px" stroke="none" fill="black" > </text>
<line x1="6.19" y1="-8.675" x2="1.31" y2="-8.675" stroke-width="0.013412" />
<polygon points="1.41,-8.7 1.31,-8.675 1.41,-8.65 " stroke-width="0.013412" fill="black" />
<text transform="translate(2.925,-8.6261) scale(1,-1) scale(0.0098958) " font-family="Helvetica,sans-serif" font-size="20px" stroke="none" fill="black" >connect for disk IO</text>
<text transform="translate(3.7225,-8.8636) scale(1,-1) scale(0.0098958) " font-family="Helvetica,sans-serif" font-size="20px" stroke="none" fill="black" > </text>
<line x1="6.19" y1="-8.925" x2="1.31" y2="-8.925" stroke-width="0.013412" />
<polygon points="1.41,-8.95 1.31,-8.925 1.41,-8.9 " stroke-width="0.013412" fill="black" />
<text transform="translate(2.925,-8.8761) scale(1,-1) scale(0.0098958) " font-family="Helvetica,sans-serif" font-size="20px" stroke="none" fill="black" >connect for disk IO</text>
<text transform="translate(3.7225,-9.1136) scale(1,-1) scale(0.0098958) " font-family="Helvetica,sans-serif" font-size="20px" stroke="none" fill="black" > </text>
<line x1="6.19" y1="-9.175" x2="1.31" y2="-9.175" stroke-width="0.013412" />
<polygon points="1.41,-9.2 1.31,-9.175 1.41,-9.15 " stroke-width="0.013412" fill="black" />
<text transform="translate(2.925,-9.1261) scale(1,-1) scale(0.0098958) " font-family="Helvetica,sans-serif" font-size="20px" stroke="none" fill="black" >connect for disk IO</text>
<text transform="translate(3.7225,-9.3636) scale(1,-1) scale(0.0098958) " font-family="Helvetica,sans-serif" font-size="20px" stroke="none" fill="black" > </text>
<line x1="6.19" y1="-9.675" x2="1.31" y2="-9.675" stroke-width="0.013412" />
<polygon points="1.41,-9.7 1.31,-9.675 1.41,-9.65 " stroke-width="0.013412" fill="black" />
<text transform="translate(2.7217,-9.6261) scale(1,-1) scale(0.0098958) " font-family="Helvetica,sans-serif" font-size="20px" stroke="none" fill="black" >Request_MoreWork (1)</text>
<text transform="translate(3.7225,-9.8636) scale(1,-1) scale(0.0098958) " font-family="Helvetica,sans-serif" font-size="20px" stroke="none" fill="black" > </text>
<line x1="1.31" y1="-9.925" x2="6.19" y2="-9.925" stroke-width="0.013412" />
<polygon points="6.09,-9.9 6.19,-9.925 6.09,-9.95 " stroke-width="0.013412" fill="black" />
<text transform="translate(3.541,-9.8761) scale(1,-1) scale(0.0098958) " font-family="Helvetica,sans-serif" font-size="20px" stroke="none" fill="black" >file 1</text>
<text transform="translate(3.7225,-10.114) scale(1,-1) scale(0.0098958) " font-family="Helvetica,sans-serif" font-size="20px" stroke="none" fill="black" > </text>
<line x1="6.19" y1="-10.175" x2="1.31" y2="-10.175" stroke-width="0.013412" />
<polygon points="1.41,-10.2 1.31,-10.175 1.41,-10.15 " stroke-width="0.013412" fill="black" />
<text transform="translate(3.596,-10.126) scale(1,-1) scale(0.0098958) " font-family="Helvetica,sans-serif" font-size="20px" stroke="none" fill="black" >ack</text>
<text transform="translate(3.7225,-10.364) scale(1,-1) scale(0.0098958) " font-family="Helvetica,sans-serif" font-size="20px" stroke="none" fill="black" > </text>
<line x1="1.31" y1="-10.425" x2="6.19" y2="-10.425" stroke-width="0.013412" />
<polygon points="6.09,-10.4 6.19,-10.425 6.09,-10.45 " stroke-width="0.013412" fill="black" />
<text transform="translate(2.6639,-10.376) scale(1,-1) scale(0.0098958) " font-family="Helvetica,sans-serif" font-size="20px" stroke="none" fill="black" >Offer_MoreWork - Joker</text>
<text transform="translate(3.7225,-10.614) scale(1,-1) scale(0.0098958) " font-family="Helvetica,sans-serif" font-size="20px" stroke="none" fill="black" > </text>
<line x1="6.19" y1="-10.675" x2="1.31" y2="-10.675" stroke-width="0.013412" />
<polygon points="1.41,-10.7 1.31,-10.675 1.41,-10.65 " stroke-width="0.013412" fill="black" />
<text transform="translate(3.596,-10.626) scale(1,-1) scale(0.0098958) " font-family="Helvetica,sans-serif" font-size="20px" stroke="none" fill="black" >ack</text>
<text transform="translate(3.7225,-10.864) scale(1,-1) scale(0.0098958) " font-family="Helvetica,sans-serif" font-size="20px" stroke="none" fill="black" > </text>
<line x1="1.31" y1="-10.925" x2="6.19" y2="-10.925" stroke-width="0.013412" />
<polygon points="6.09,-10.9 6.19,-10.925 6.09,-10.95 " stroke-width="0.013412" fill="black" />
<text transform="translate(3.1616,-10.876) scale(1,-1) scale(0.0098958) " font-family="Helvetica,sans-serif" font-size="20px" stroke="none" fill="black" >NoMore_Req</text>
<text transform="translate(3.7225,-11.114) scale(1,-1) scale(0.0098958) " font-family="Helvetica,sans-serif" font-size="20px" stroke="none" fill="black" > </text>
<line x1="6.19" y1="-11.175" x2="1.31" y2="-11.175" stroke-width="0.013412" />
<polygon points="1.41,-11.2 1.31,-11.175 1.41,-11.15 " stroke-width="0.013412" fill="black" />
<text transform="translate(3.596,-11.126) scale(1,-1) scale(0.0098958) " font-family="Helvetica,sans-serif" font-size="20px" stroke="none" fill="black" >ack</text>
<text transform="translate(3.7225,-11.364) scale(1,-1) scale(0.0098958) " font-family="Helvetica,sans-serif" font-size="20px" stroke="none" fill="black" > </text>
<line x1="6.19" y1="-11.675" x2="1.31" y2="-11.675" stroke-width="0.013412" />
<polygon points="1.41,-11.7 1.31,-11.675 1.41,-11.65 " stroke-width="0.013412" fill="black" />
<text transform="translate(2.4629,-11.626) scale(1,-1) scale(0.0098958) " font-family="Helvetica,sans-serif" font-size="20px" stroke="none" fill="black" >positioned for file 1 (tape req)</text>
<text transform="translate(3.7225,-11.864) scale(1,-1) scale(0.0098958) " font-family="Helvetica,sans-serif" font-size="20px" stroke="none" fill="black" > </text>
<line x1="1.31" y1="-11.925" x2="6.19" y2="-11.925" stroke-width="0.013412" />
<polygon points="6.09,-11.9 6.19,-11.925 6.09,-11.95 " stroke-width="0.013412" fill="black" />
<text transform="translate(3.596,-11.876) scale(1,-1) scale(0.0098958) " font-family="Helvetica,sans-serif" font-size="20px" stroke="none" fill="black" >ack</text>
<text transform="translate(3.7225,-12.114) scale(1,-1) scale(0.0098958) " font-family="Helvetica,sans-serif" font-size="20px" stroke="none" fill="black" > </text>
<line x1="6.19" y1="-12.175" x2="1.31" y2="-12.175" stroke-width="0.013412" />
<polygon points="1.41,-12.2 1.31,-12.175 1.41,-12.15 " stroke-width="0.013412" fill="black" />
<text transform="translate(2.5291,-12.126) scale(1,-1) scale(0.0098958) " font-family="Helvetica,sans-serif" font-size="20px" stroke="none" fill="black" >positioned for file 1 (file req)</text>
<text transform="translate(3.7225,-12.364) scale(1,-1) scale(0.0098958) " font-family="Helvetica,sans-serif" font-size="20px" stroke="none" fill="black" > </text>
<line x1="1.31" y1="-12.425" x2="6.19" y2="-12.425" stroke-width="0.013412" />
<polygon points="6.09,-12.4 6.19,-12.425 6.09,-12.45 " stroke-width="0.013412" fill="black" />
<text transform="translate(3.596,-12.376) scale(1,-1) scale(0.0098958) " font-family="Helvetica,sans-serif" font-size="20px" stroke="none" fill="black" >ack</text>
<text transform="translate(3.7225,-12.614) scale(1,-1) scale(0.0098958) " font-family="Helvetica,sans-serif" font-size="20px" stroke="none" fill="black" > </text>
<line x1="6.19" y1="-12.675" x2="1.31" y2="-12.675" stroke-width="0.013412" />
<polygon points="1.41,-12.7 1.31,-12.675 1.41,-12.65 " stroke-width="0.013412" fill="black" />
<text transform="translate(3.1176,-12.626) scale(1,-1) scale(0.0098958) " font-family="Helvetica,sans-serif" font-size="20px" stroke="none" fill="black" >Transfert file 1</text>
<text transform="translate(3.7225,-12.864) scale(1,-1) scale(0.0098958) " font-family="Helvetica,sans-serif" font-size="20px" stroke="none" fill="black" > </text>
<line x1="1.31" y1="-12.925" x2="6.19" y2="-12.925" stroke-width="0.013412" />
<polygon points="6.09,-12.9 6.19,-12.925 6.09,-12.95 " stroke-width="0.013412" fill="black" />
<text transform="translate(3.596,-12.876) scale(1,-1) scale(0.0098958) " font-family="Helvetica,sans-serif" font-size="20px" stroke="none" fill="black" >ack</text>
<text transform="translate(3.7225,-13.114) scale(1,-1) scale(0.0098958) " font-family="Helvetica,sans-serif" font-size="20px" stroke="none" fill="black" > </text>
<line x1="1.31" y1="-13.175" x2="6.19" y2="-13.175" stroke-width="0.013412" />
<polygon points="6.09,-13.15 6.19,-13.175 6.09,-13.2 " stroke-width="0.013412" fill="black" />
<text transform="translate(2.4302,-13.126) scale(1,-1) scale(0.0098958) " font-family="Helvetica,sans-serif" font-size="20px" stroke="none" fill="black" >ack of Request_MoreWork (1)</text>
<text transform="translate(3.7225,-13.364) scale(1,-1) scale(0.0098958) " font-family="Helvetica,sans-serif" font-size="20px" stroke="none" fill="black" > </text>
<line x1="6.19" y1="-13.675" x2="1.31" y2="-13.675" stroke-width="0.013412" />
<polygon points="1.41,-13.7 1.31,-13.675 1.41,-13.65 " stroke-width="0.013412" fill="black" />
<text transform="translate(2.7217,-13.626) scale(1,-1) scale(0.0098958) " font-family="Helvetica,sans-serif" font-size="20px" stroke="none" fill="black" >Request_MoreWork (2)</text>
<text transform="translate(3.7225,-13.864) scale(1,-1) scale(0.0098958) " font-family="Helvetica,sans-serif" font-size="20px" stroke="none" fill="black" > </text>
<line x1="1.31" y1="-13.925" x2="6.19" y2="-13.925" stroke-width="0.013412" />
<polygon points="6.09,-13.9 6.19,-13.925 6.09,-13.95 " stroke-width="0.013412" fill="black" />
<text transform="translate(3.596,-13.876) scale(1,-1) scale(0.0098958) " font-family="Helvetica,sans-serif" font-size="20px" stroke="none" fill="black" >ack</text>
<text transform="translate(3.7225,-14.114) scale(1,-1) scale(0.0098958) " font-family="Helvetica,sans-serif" font-size="20px" stroke="none" fill="black" > </text>
<line x1="1.31" y1="-14.175" x2="6.19" y2="-14.175" stroke-width="0.013412" />
<polygon points="6.09,-14.15 6.19,-14.175 6.09,-14.2 " stroke-width="0.013412" fill="black" />
<text transform="translate(3.2274,-14.126) scale(1,-1) scale(0.0098958) " font-family="Helvetica,sans-serif" font-size="20px" stroke="none" fill="black" >End_of_List</text>
<text transform="translate(3.7225,-14.364) scale(1,-1) scale(0.0098958) " font-family="Helvetica,sans-serif" font-size="20px" stroke="none" fill="black" > </text>
<line x1="6.19" y1="-14.425" x2="1.31" y2="-14.425" stroke-width="0.013412" />
<polygon points="1.41,-14.45 1.31,-14.425 1.41,-14.4 " stroke-width="0.013412" fill="black" />
<text transform="translate(3.596,-14.376) scale(1,-1) scale(0.0098958) " font-family="Helvetica,sans-serif" font-size="20px" stroke="none" fill="black" >ack</text>
<text transform="translate(3.7225,-14.614) scale(1,-1) scale(0.0098958) " font-family="Helvetica,sans-serif" font-size="20px" stroke="none" fill="black" > </text>
<line x1="1.31" y1="-14.675" x2="6.19" y2="-14.675" stroke-width="0.013412" />
<polygon points="6.09,-14.65 6.19,-14.675 6.09,-14.7 " stroke-width="0.013412" fill="black" />
<text transform="translate(2.4302,-14.626) scale(1,-1) scale(0.0098958) " font-family="Helvetica,sans-serif" font-size="20px" stroke="none" fill="black" >ack of Request_MoreWork (2)</text>
<text transform="translate(3.7225,-14.864) scale(1,-1) scale(0.0098958) " font-family="Helvetica,sans-serif" font-size="20px" stroke="none" fill="black" > </text>
<line x1="6.19" y1="-15.175" x2="1.31" y2="-15.175" stroke-width="0.013412" />
<polygon points="1.41,-15.2 1.31,-15.175 1.41,-15.15 " stroke-width="0.013412" fill="black" />
<text transform="translate(3.1999,-15.126) scale(1,-1) scale(0.0098958) " font-family="Helvetica,sans-serif" font-size="20px" stroke="none" fill="black" >End_of_Req</text>
<text transform="translate(3.7225,-15.364) scale(1,-1) scale(0.0098958) " font-family="Helvetica,sans-serif" font-size="20px" stroke="none" fill="black" > </text>
<line x1="1.31" y1="-15.425" x2="6.19" y2="-15.425" stroke-width="0.013412" />
<polygon points="6.09,-15.4 6.19,-15.425 6.09,-15.45 " stroke-width="0.013412" fill="black" />
<text transform="translate(3.596,-15.376) scale(1,-1) scale(0.0098958) " font-family="Helvetica,sans-serif" font-size="20px" stroke="none" fill="black" >ack</text>
<text transform="translate(3.7225,-15.614) scale(1,-1) scale(0.0098958) " font-family="Helvetica,sans-serif" font-size="20px" stroke="none" fill="black" > </text>
<line x1="6.2" y1="-2.4" x2="6.2" y2="-15.675" stroke-width="0.013412" />
<line x1="6.3" y1="-2.4" x2="6.3" y2="-15.675" stroke-width="0.013412" />
<line x1="6.2" y1="-15.675" x2="6.3" y2="-15.675" stroke-width="0.013412" />
<line x1="1.2" y1="-5.175" x2="1.2" y2="-15.675" stroke-width="0.013412" />
<line x1="1.3" y1="-5.175" x2="1.3" y2="-15.675" stroke-width="0.013412" />
<line x1="1.2" y1="-15.675" x2="1.3" y2="-15.675" stroke-width="0.013412" />
<line x1="-0.05" y1="-0.65" x2="-0.05" y2="-15.675" stroke-width="0.013412" />
<line x1="0.05" y1="-0.65" x2="0.05" y2="-15.675" stroke-width="0.013412" />
<line x1="-0.05" y1="-15.675" x2="0.05" y2="-15.675" stroke-width="0.013412" />
<line x1="0" y1="-15.675" x2="0" y2="-15.675" stroke-width="0.013412" stroke-dasharray="0.05, 0.05"/>
<line x1="1.25" y1="-15.675" x2="1.25" y2="-15.675" stroke-width="0.013412" stroke-dasharray="0.05, 0.05"/>
<line x1="2.5" y1="-3.4" x2="2.5" y2="-15.675" stroke-width="0.013412" stroke-dasharray="0.05, 0.05"/>
<line x1="6.25" y1="-15.675" x2="6.25" y2="-15.675" stroke-width="0.013412" stroke-dasharray="0.05, 0.05"/>
</g>
</svg>
