<?xml version="1.0" encoding="ISO-8859-1" standalone="no"?>
<!DOCTYPE svg PUBLIC "-//W3C//DTD SVG 1.1//EN" "http://www.w3.org/Graphics/SVG/1.1/DTD/svg11.dtd">
<svg version="1.1" baseProfile="full" id="body" width="8in" height="8in" viewBox="0 0 1 1" preserveAspectRatio="none" xmlns="http://www.w3.org/2000/svg" xmlns:xlink="http://www.w3.org/1999/xlink" xmlns:ev="http://www.w3.org/2001/xml-events">
<title>SVG drawing</title>
<desc>This was produced by version 4.4 of GNU libplot, a free library for exporting 2-D vector graphics.</desc>
<rect id="background" x="0" y="0" width="1" height="1" stroke="none" fill="white"/>
<g id="content" transform="translate(0.10938,0.06875) scale(1,-1) scale(0.125) " xml:space="preserve" stroke="black" stroke-linecap="butt" stroke-linejoin="miter" stroke-miterlimit="10.433" stroke-dasharray="none" stroke-dashoffset="0" stroke-opacity="1" fill="none" fill-rule="evenodd" fill-opacity="1" font-style="normal" font-variant="normal" font-weight="normal" font-stretch="normal" font-size-adjust="none" letter-spacing="normal" word-spacing="normal" text-anchor="start">
<rect x="0" y="-0.15" width="0.75" height="0.3" stroke-width="0.0094118" />
<text transform="translate(0.17049,-0.049028) scale(1,-1) scale(0.0069444) " font-family="Helvetica,sans-serif" font-size="20px" stroke="none" fill="black" >rtcpcld</text>
<line x1="0.1" y1="-0.07" x2="0.65" y2="-0.07" stroke-width="0.0094118" />
<rect x="2.5" y="-0.15" width="0.75" height="0.3" stroke-width="0.0094118" />
<text transform="translate(2.7052,-0.049028) scale(1,-1) scale(0.0069444) " font-family="Helvetica,sans-serif" font-size="20px" stroke="none" fill="black" >vdqm</text>
<line x1="2.6" y1="-0.07" x2="3.15" y2="-0.07" stroke-width="0.0094118" />
<rect x="3.75" y="-0.15" width="0.75" height="0.3" stroke-width="0.0094118" />
<text transform="translate(3.9706,-0.049028) scale(1,-1) scale(0.0069444) " font-family="Helvetica,sans-serif" font-size="20px" stroke="none" fill="black" >rtcpd</text>
<line x1="3.85" y1="-0.07" x2="4.4" y2="-0.07" stroke-width="0.0094118" />
<line x1="0.375" y1="-0.15" x2="0.375" y2="-0.25" stroke-width="0.0094118" stroke-dasharray="0.05, 0.05"/>
<line x1="0.325" y1="-0.25" x2="0.425" y2="-0.25" stroke-width="0.0094118" />
<line x1="0.435" y1="-0.5" x2="2.815" y2="-0.5" stroke-width="0.0094118" />
<polygon points="2.715,-0.475 2.815,-0.5 2.715,-0.525 " stroke-width="0.0094118" fill="black" />
<text transform="translate(1.3818,-0.46569) scale(1,-1) scale(0.0069444) " font-family="Helvetica,sans-serif" font-size="20px" stroke="none" fill="black" >connect</text>
<text transform="translate(1.6057,-0.63236) scale(1,-1) scale(0.0069444) " font-family="Helvetica,sans-serif" font-size="20px" stroke="none" fill="black" > </text>
<line x1="2.875" y1="-0.15" x2="2.875" y2="-0.5" stroke-width="0.0094118" stroke-dasharray="0.05, 0.05"/>
<line x1="2.825" y1="-0.5" x2="2.925" y2="-0.5" stroke-width="0.0094118" />
<line x1="0.435" y1="-0.75" x2="2.815" y2="-0.75" stroke-width="0.0094118" />
<polygon points="2.715,-0.725 2.815,-0.75 2.715,-0.775 " stroke-width="0.0094118" fill="black" />
<text transform="translate(1.1503,-0.71569) scale(1,-1) scale(0.0069444) " font-family="Helvetica,sans-serif" font-size="20px" stroke="none" fill="black" >volume request</text>
<text transform="translate(1.6057,-0.88236) scale(1,-1) scale(0.0069444) " font-family="Helvetica,sans-serif" font-size="20px" stroke="none" fill="black" > </text>
<line x1="2.815" y1="-1" x2="0.435" y2="-1" stroke-width="0.0094118" />
<polygon points="0.535,-1.025 0.435,-1 0.535,-0.975 " stroke-width="0.0094118" fill="black" />
<text transform="translate(1.5169,-0.96569) scale(1,-1) scale(0.0069444) " font-family="Helvetica,sans-serif" font-size="20px" stroke="none" fill="black" >ack</text>
<text transform="translate(1.6057,-1.1324) scale(1,-1) scale(0.0069444) " font-family="Helvetica,sans-serif" font-size="20px" stroke="none" fill="black" > </text>
<line x1="2.815" y1="-1.25" x2="0.435" y2="-1.25" stroke-width="0.0094118" />
<polygon points="0.535,-1.275 0.435,-1.25 0.535,-1.225 " stroke-width="0.0094118" fill="black" />
<text transform="translate(1.3394,-1.2157) scale(1,-1) scale(0.0069444) " font-family="Helvetica,sans-serif" font-size="20px" stroke="none" fill="black" >volReqID</text>
<text transform="translate(1.6057,-1.3824) scale(1,-1) scale(0.0069444) " font-family="Helvetica,sans-serif" font-size="20px" stroke="none" fill="black" > </text>
<line x1="0.435" y1="-1.5" x2="2.815" y2="-1.5" stroke-width="0.0094118" />
<polygon points="2.715,-1.475 2.815,-1.5 2.715,-1.525 " stroke-width="0.0094118" fill="black" />
<text transform="translate(1.5169,-1.4657) scale(1,-1) scale(0.0069444) " font-family="Helvetica,sans-serif" font-size="20px" stroke="none" fill="black" >ack</text>
<text transform="translate(1.6057,-1.6324) scale(1,-1) scale(0.0069444) " font-family="Helvetica,sans-serif" font-size="20px" stroke="none" fill="black" > </text>
<line x1="0.435" y1="-1.75" x2="2.815" y2="-1.75" stroke-width="0.0094118" />
<polygon points="2.715,-1.725 2.815,-1.75 2.715,-1.775 " stroke-width="0.0094118" fill="black" />
<text transform="translate(1.2931,-1.7157) scale(1,-1) scale(0.0069444) " font-family="Helvetica,sans-serif" font-size="20px" stroke="none" fill="black" >disconnect</text>
<text transform="translate(1.6057,-1.8824) scale(1,-1) scale(0.0069444) " font-family="Helvetica,sans-serif" font-size="20px" stroke="none" fill="black" > </text>
<line x1="2.825" y1="-0.5" x2="2.825" y2="-1.75" stroke-width="0.0094118" />
<line x1="2.925" y1="-0.5" x2="2.925" y2="-1.75" stroke-width="0.0094118" />
<line x1="2.825" y1="-1.75" x2="2.925" y2="-1.75" stroke-width="0.0094118" />
<line x1="2.875" y1="-1.75" x2="2.875" y2="-2" stroke-width="0.0094118" stroke-dasharray="0.05, 0.05"/>
<line x1="2.825" y1="-2" x2="2.925" y2="-2" stroke-width="0.0094118" />
<line x1="2.935" y1="-2.25" x2="4.065" y2="-2.25" stroke-width="0.0094118" />
<polygon points="3.965,-2.225 4.065,-2.25 3.965,-2.275 " stroke-width="0.0094118" fill="black" />
<text transform="translate(3.2568,-2.2157) scale(1,-1) scale(0.0069444) " font-family="Helvetica,sans-serif" font-size="20px" stroke="none" fill="black" >connect</text>
<text transform="translate(3.4807,-2.3824) scale(1,-1) scale(0.0069444) " font-family="Helvetica,sans-serif" font-size="20px" stroke="none" fill="black" > </text>
<line x1="4.125" y1="-0.15" x2="4.125" y2="-2.25" stroke-width="0.0094118" stroke-dasharray="0.05, 0.05"/>
<line x1="4.075" y1="-2.25" x2="4.175" y2="-2.25" stroke-width="0.0094118" />
<line x1="4.185" y1="-2.5" x2="4.9925" y2="-2.5" stroke-width="0.0094118" />
<polygon points="4.8925,-2.475 4.9925,-2.5 4.8925,-2.525 " stroke-width="0.0094118" fill="black" />
<text transform="translate(4.3185,-2.4657) scale(1,-1) scale(0.0069444) " font-family="Helvetica,sans-serif" font-size="20px" stroke="none" fill="black" >«create»</text>
<text transform="translate(4.5694,-2.6324) scale(1,-1) scale(0.0069444) " font-family="Helvetica,sans-serif" font-size="20px" stroke="none" fill="black" > </text>
<rect x="4.9925" y="-2.65" width="0.75" height="0.3" stroke-width="0.0094118" />
<text transform="translate(5.0897,-2.549) scale(1,-1) scale(0.0069444) " font-family="Helvetica,sans-serif" font-size="20px" stroke="none" fill="black" >main cntl</text>
<line x1="5.0925" y1="-2.57" x2="5.6425" y2="-2.57" stroke-width="0.0094118" />
<line x1="5.375" y1="-2.65" x2="5.375" y2="-2.775" stroke-width="0.0094118" stroke-dasharray="0.05, 0.05"/>
<line x1="5.325" y1="-2.775" x2="5.425" y2="-2.775" stroke-width="0.0094118" />
<line x1="4.075" y1="-2.25" x2="4.075" y2="-2.775" stroke-width="0.0094118" />
<line x1="4.175" y1="-2.25" x2="4.175" y2="-2.775" stroke-width="0.0094118" />
<line x1="4.075" y1="-2.775" x2="4.175" y2="-2.775" stroke-width="0.0094118" />
<line x1="2.935" y1="-3.025" x2="5.315" y2="-3.025" stroke-width="0.0094118" />
<polygon points="5.215,-3 5.315,-3.025 5.215,-3.05 " stroke-width="0.0094118" fill="black" />
<text transform="translate(3.6599,-2.9907) scale(1,-1) scale(0.0069444) " font-family="Helvetica,sans-serif" font-size="20px" stroke="none" fill="black" >ClientInfo - job</text>
<text transform="translate(4.1057,-3.1574) scale(1,-1) scale(0.0069444) " font-family="Helvetica,sans-serif" font-size="20px" stroke="none" fill="black" > </text>
<line x1="5.315" y1="-3.275" x2="2.935" y2="-3.275" stroke-width="0.0094118" />
<polygon points="3.035,-3.3 2.935,-3.275 3.035,-3.25 " stroke-width="0.0094118" fill="black" />
<text transform="translate(3.7121,-3.2407) scale(1,-1) scale(0.0069444) " font-family="Helvetica,sans-serif" font-size="20px" stroke="none" fill="black" >RcpJobReply</text>
<text transform="translate(4.1057,-3.4074) scale(1,-1) scale(0.0069444) " font-family="Helvetica,sans-serif" font-size="20px" stroke="none" fill="black" > </text>
<line x1="5.315" y1="-3.525" x2="2.935" y2="-3.525" stroke-width="0.0094118" />
<polygon points="3.035,-3.55 2.935,-3.525 3.035,-3.5 " stroke-width="0.0094118" fill="black" />
<text transform="translate(3.7931,-3.4907) scale(1,-1) scale(0.0069444) " font-family="Helvetica,sans-serif" font-size="20px" stroke="none" fill="black" >disconnect</text>
<text transform="translate(4.1057,-3.6574) scale(1,-1) scale(0.0069444) " font-family="Helvetica,sans-serif" font-size="20px" stroke="none" fill="black" > </text>
<line x1="2.825" y1="-2" x2="2.825" y2="-3.525" stroke-width="0.0094118" />
<line x1="2.925" y1="-2" x2="2.925" y2="-3.525" stroke-width="0.0094118" />
<line x1="2.825" y1="-3.525" x2="2.925" y2="-3.525" stroke-width="0.0094118" />
<line x1="5.315" y1="-4.025" x2="0.435" y2="-4.025" stroke-width="0.0094118" />
<polygon points="0.535,-4.05 0.435,-4.025 0.535,-4 " stroke-width="0.0094118" fill="black" />
<text transform="translate(2.6318,-3.9907) scale(1,-1) scale(0.0069444) " font-family="Helvetica,sans-serif" font-size="20px" stroke="none" fill="black" >connect</text>
<text transform="translate(2.8557,-4.1574) scale(1,-1) scale(0.0069444) " font-family="Helvetica,sans-serif" font-size="20px" stroke="none" fill="black" > </text>
<line x1="0.435" y1="-4.275" x2="5.315" y2="-4.275" stroke-width="0.0094118" />
<polygon points="5.215,-4.25 5.315,-4.275 5.215,-4.3 " stroke-width="0.0094118" fill="black" />
<text transform="translate(2.3809,-4.2407) scale(1,-1) scale(0.0069444) " font-family="Helvetica,sans-serif" font-size="20px" stroke="none" fill="black" >request ReqInfo</text>
<text transform="translate(2.8557,-4.4074) scale(1,-1) scale(0.0069444) " font-family="Helvetica,sans-serif" font-size="20px" stroke="none" fill="black" > </text>
<line x1="5.315" y1="-4.525" x2="0.435" y2="-4.525" stroke-width="0.0094118" />
<polygon points="0.535,-4.55 0.435,-4.525 0.535,-4.5 " stroke-width="0.0094118" fill="black" />
<text transform="translate(2.7669,-4.4907) scale(1,-1) scale(0.0069444) " font-family="Helvetica,sans-serif" font-size="20px" stroke="none" fill="black" >ack</text>
<text transform="translate(2.8557,-4.6574) scale(1,-1) scale(0.0069444) " font-family="Helvetica,sans-serif" font-size="20px" stroke="none" fill="black" > </text>
<line x1="5.315" y1="-4.775" x2="0.435" y2="-4.775" stroke-width="0.0094118" />
<polygon points="0.535,-4.8 0.435,-4.775 0.535,-4.75 " stroke-width="0.0094118" fill="black" />
<text transform="translate(2.6318,-4.7407) scale(1,-1) scale(0.0069444) " font-family="Helvetica,sans-serif" font-size="20px" stroke="none" fill="black" >ReqInfo</text>
<text transform="translate(2.8557,-4.9074) scale(1,-1) scale(0.0069444) " font-family="Helvetica,sans-serif" font-size="20px" stroke="none" fill="black" > </text>
<line x1="0.435" y1="-5.025" x2="5.315" y2="-5.025" stroke-width="0.0094118" />
<polygon points="5.215,-5 5.315,-5.025 5.215,-5.05 " stroke-width="0.0094118" fill="black" />
<text transform="translate(2.7669,-4.9907) scale(1,-1) scale(0.0069444) " font-family="Helvetica,sans-serif" font-size="20px" stroke="none" fill="black" >ack</text>
<text transform="translate(2.8557,-5.1574) scale(1,-1) scale(0.0069444) " font-family="Helvetica,sans-serif" font-size="20px" stroke="none" fill="black" > </text>
<line x1="0.435" y1="-5.275" x2="1.2425" y2="-5.275" stroke-width="0.0094118" />
<polygon points="1.1425,-5.25 1.2425,-5.275 1.1425,-5.3 " stroke-width="0.0094118" fill="black" />
<text transform="translate(0.56854,-5.2407) scale(1,-1) scale(0.0069444) " font-family="Helvetica,sans-serif" font-size="20px" stroke="none" fill="black" >«create»</text>
<text transform="translate(0.81944,-5.4074) scale(1,-1) scale(0.0069444) " font-family="Helvetica,sans-serif" font-size="20px" stroke="none" fill="black" > </text>
<rect x="1.2425" y="-5.425" width="0.75" height="0.3" stroke-width="0.0094118" />
<text transform="translate(1.3628,-5.324) scale(1,-1) scale(0.0069444) " font-family="Helvetica,sans-serif" font-size="20px" stroke="none" fill="black" >migrator</text>
<line x1="1.3425" y1="-5.345" x2="1.8925" y2="-5.345" stroke-width="0.0094118" />
<line x1="1.625" y1="-5.425" x2="1.625" y2="-5.55" stroke-width="0.0094118" stroke-dasharray="0.05, 0.05"/>
<line x1="1.575" y1="-5.55" x2="1.675" y2="-5.55" stroke-width="0.0094118" />
<polyline points="1.685,-5.8 2.185,-5.8 2.185,-6.05 1.685,-6.05 " stroke-width="0.0094118" />
<polygon points="1.785,-6.075 1.685,-6.05 1.785,-6.025 " stroke-width="0.0094118" fill="black" />
<text transform="translate(1.685,-5.724) scale(1,-1) scale(0.0069444) " font-family="Helvetica,sans-serif" font-size="20px" stroke="none" fill="black" >anyReqsForTape</text>
<text transform="translate(1.6657,-5.8907) scale(1,-1) scale(0.0069444) " font-family="Helvetica,sans-serif" font-size="20px" stroke="none" fill="black" > </text>
<text transform="translate(1.6657,-6.0574) scale(1,-1) scale(0.0069444) " font-family="Helvetica,sans-serif" font-size="20px" stroke="none" fill="black" > </text>
<text transform="translate(1.6657,-6.224) scale(1,-1) scale(0.0069444) " font-family="Helvetica,sans-serif" font-size="20px" stroke="none" fill="black" > </text>
<line x1="1.685" y1="-6.3" x2="5.315" y2="-6.3" stroke-width="0.0094118" />
<polygon points="5.215,-6.275 5.315,-6.3 5.215,-6.325 " stroke-width="0.0094118" fill="black" />
<text transform="translate(3.1681,-6.2657) scale(1,-1) scale(0.0069444) " font-family="Helvetica,sans-serif" font-size="20px" stroke="none" fill="black" >disconnect</text>
<text transform="translate(3.4807,-6.4324) scale(1,-1) scale(0.0069444) " font-family="Helvetica,sans-serif" font-size="20px" stroke="none" fill="black" > </text>
<polyline points="5.435,-6.55 5.935,-6.55 5.935,-6.8 5.435,-6.8 " stroke-width="0.0094118" />
<polygon points="5.535,-6.825 5.435,-6.8 5.535,-6.775 " stroke-width="0.0094118" fill="black" />
<text transform="translate(5.435,-6.474) scale(1,-1) scale(0.0069444) " font-family="Helvetica,sans-serif" font-size="20px" stroke="none" fill="black" >deassign</text>
<text transform="translate(5.4157,-6.6407) scale(1,-1) scale(0.0069444) " font-family="Helvetica,sans-serif" font-size="20px" stroke="none" fill="black" > </text>
<text transform="translate(5.4157,-6.8074) scale(1,-1) scale(0.0069444) " font-family="Helvetica,sans-serif" font-size="20px" stroke="none" fill="black" > </text>
<text transform="translate(5.4157,-6.974) scale(1,-1) scale(0.0069444) " font-family="Helvetica,sans-serif" font-size="20px" stroke="none" fill="black" > </text>
<line x1="1.575" y1="-5.55" x2="1.575" y2="-7.05" stroke-width="0.0094118" />
<line x1="1.675" y1="-5.55" x2="1.675" y2="-7.05" stroke-width="0.0094118" />
<line x1="1.575" y1="-7.05" x2="1.675" y2="-7.05" stroke-width="0.0094118" />
<line x1="5.325" y1="-2.775" x2="5.325" y2="-7.05" stroke-width="0.0094118" />
<line x1="5.425" y1="-2.775" x2="5.425" y2="-7.05" stroke-width="0.0094118" />
<line x1="5.325" y1="-7.05" x2="5.425" y2="-7.05" stroke-width="0.0094118" />
<line x1="0.325" y1="-0.25" x2="0.325" y2="-7.05" stroke-width="0.0094118" />
<line x1="0.425" y1="-0.25" x2="0.425" y2="-7.05" stroke-width="0.0094118" />
<line x1="0.325" y1="-7.05" x2="0.425" y2="-7.05" stroke-width="0.0094118" />
<line x1="1.625" y1="-7.05" x2="1.625" y2="-7.05" stroke-width="0.0094118" stroke-dasharray="0.05, 0.05"/>
<line x1="2.875" y1="-3.525" x2="2.875" y2="-7.05" stroke-width="0.0094118" stroke-dasharray="0.05, 0.05"/>
<line x1="4.125" y1="-2.775" x2="4.125" y2="-7.05" stroke-width="0.0094118" stroke-dasharray="0.05, 0.05"/>
<line x1="5.375" y1="-7.05" x2="5.375" y2="-7.05" stroke-width="0.0094118" stroke-dasharray="0.05, 0.05"/>
</g>
</svg>
